<?xml version='1.0' encoding='utf-8'?>
<mlt producer="main bin" LC_NUMERIC="ru_RU.UTF-8" title="Anonymous Submission" version="0.9.8" root="/home/ustimenko">
 <profile description="HD 720p 30 fps" width="1280" progressive="1" sample_aspect_num="1" display_aspect_num="16" colorspace="709" display_aspect_den="9" height="720" sample_aspect_den="1" frame_rate_num="30" frame_rate_den="1"/>
 <producer out="332" id="1" in="0" title="Anonymous Submission">
  <property name="mlt_type">mlt_producer</property>
  <property name="length">00:00:11:03</property>
  <property name="eof">pause</property>
  <property name="resource">projects/UstimenkoAlexander/wp-testing/wp-testing/tools/intro-video/mp3/01.mp3</property>
  <property name="audio_index">0</property>
  <property name="video_index">-1</property>
  <property name="mute_on_pause">1</property>
  <property name="mlt_service">avformat-novalidate</property>
  <property name="meta.media.nb_streams">1</property>
  <property name="meta.media.0.stream.type">audio</property>
  <property name="meta.media.0.codec.sample_fmt">s16p</property>
  <property name="meta.media.0.codec.sample_rate">44100</property>
  <property name="meta.media.0.codec.channels">2</property>
  <property name="meta.media.0.codec.name">mp3</property>
  <property name="meta.media.0.codec.long_name">MP3 (MPEG audio layer 3)</property>
  <property name="meta.media.0.codec.bit_rate">128000</property>
  <property name="meta.attr.0.stream.encoder.markup">LAME3.99r</property>
  <property name="seekable">1</property>
  <property name="kdenlive:file_size">178049</property>
  <property name="kdenlive:file_hash">bd6e3c02773e484b272693995512e9a8</property>
  <property name="global_feed">1</property>
 </producer>
 <producer out="707" id="2" in="0" title="Anonymous Submission">
  <property name="mlt_type">mlt_producer</property>
  <property name="length">00:00:23:18</property>
  <property name="eof">pause</property>
  <property name="resource">projects/UstimenkoAlexander/wp-testing/wp-testing/tools/intro-video/mkv/02.mkv</property>
  <property name="audio_index">-1</property>
  <property name="video_index">0</property>
  <property name="mute_on_pause">1</property>
  <property name="mlt_service">avformat-novalidate</property>
  <property name="meta.media.nb_streams">1</property>
  <property name="meta.media.0.stream.type">video</property>
  <property name="meta.media.0.stream.frame_rate">15</property>
  <property name="meta.media.0.stream.sample_aspect_ratio">1</property>
  <property name="meta.media.0.codec.width">1616</property>
  <property name="meta.media.0.codec.height">1024</property>
  <property name="meta.media.0.codec.frame_rate">15</property>
  <property name="meta.media.0.codec.pix_fmt">yuv420p</property>
  <property name="meta.media.0.codec.sample_aspect_ratio">1</property>
  <property name="meta.media.0.codec.colorspace">709</property>
  <property name="meta.media.0.codec.name">theora</property>
  <property name="meta.media.0.codec.long_name">Theora</property>
  <property name="meta.media.0.codec.bit_rate">0</property>
  <property name="meta.attr.0.stream.RECORDMYDESKTOP.markup">0.3.8.1</property>
  <property name="meta.attr.ENCODER.markup">Lavf56.36.100</property>
  <property name="seekable">1</property>
  <property name="meta.media.sample_aspect_num">1</property>
  <property name="meta.media.sample_aspect_den">1</property>
  <property name="aspect_ratio">1</property>
  <property name="meta.media.frame_rate_num">15</property>
  <property name="meta.media.frame_rate_den">1</property>
  <property name="meta.media.colorspace">709</property>
  <property name="meta.media.color_trc">2</property>
  <property name="meta.media.width">1616</property>
  <property name="meta.media.height">1024</property>
  <property name="meta.media.top_field_first">0</property>
  <property name="meta.media.progressive">1</property>
  <property name="kdenlive:file_size">1728030</property>
  <property name="kdenlive:file_hash">37bd02aa2b7e99312ec7a9b164404163</property>
  <property name="global_feed">1</property>
 </producer>
 <producer out="333" id="3" in="0">
  <property name="mlt_type">producer</property>
  <property name="length">00:00:11:04</property>
  <property name="eof">pause</property>
  <property name="resource">projects/UstimenkoAlexander/wp-testing/wp-testing/tools/intro-video/img/01-title.png</property>
  <property name="ttl">25</property>
  <property name="aspect_ratio">1</property>
  <property name="progressive">1</property>
  <property name="seekable">1</property>
  <property name="loop">1</property>
  <property name="meta.media.width">1616</property>
  <property name="meta.media.height">1024</property>
  <property name="mlt_service">pixbuf</property>
  <property name="kdenlive:file_size">289548</property>
  <property name="kdenlive:file_hash">563e9403b590b549efcb267964aaaede</property>
 </producer>
 <producer out="58" id="4" in="0" title="Anonymous Submission">
  <property name="mlt_type">mlt_producer</property>
  <property name="length">00:00:01:29</property>
  <property name="eof">pause</property>
  <property name="resource">projects/UstimenkoAlexander/wp-testing/wp-testing/tools/intro-video/mp3/02-01.mp3</property>
  <property name="audio_index">0</property>
  <property name="video_index">-1</property>
  <property name="mute_on_pause">1</property>
  <property name="mlt_service">avformat-novalidate</property>
  <property name="meta.media.nb_streams">1</property>
  <property name="meta.media.0.stream.type">audio</property>
  <property name="meta.media.0.codec.sample_fmt">s16p</property>
  <property name="meta.media.0.codec.sample_rate">44100</property>
  <property name="meta.media.0.codec.channels">2</property>
  <property name="meta.media.0.codec.name">mp3</property>
  <property name="meta.media.0.codec.long_name">MP3 (MPEG audio layer 3)</property>
  <property name="meta.media.0.codec.bit_rate">128000</property>
  <property name="meta.attr.0.stream.encoder.markup">LAME3.99r</property>
  <property name="meta.attr.track.markup">1</property>
  <property name="meta.attr.title.markup">let-s-activate</property>
  <property name="seekable">1</property>
  <property name="kdenlive:file_size">31822</property>
  <property name="kdenlive:file_hash">1939c5615953ed27815175e57feafe46</property>
  <property name="global_feed">1</property>
 </producer>
 <producer out="117" id="5" in="0" title="Anonymous Submission">
  <property name="mlt_type">mlt_producer</property>
  <property name="length">00:00:03:28</property>
  <property name="eof">pause</property>
  <property name="resource">projects/UstimenkoAlexander/wp-testing/wp-testing/tools/intro-video/mp3/02-02.mp3</property>
  <property name="audio_index">0</property>
  <property name="video_index">-1</property>
  <property name="mute_on_pause">1</property>
  <property name="mlt_service">avformat-novalidate</property>
  <property name="meta.media.nb_streams">1</property>
  <property name="meta.media.0.stream.type">audio</property>
  <property name="meta.media.0.codec.sample_fmt">s16p</property>
  <property name="meta.media.0.codec.sample_rate">44100</property>
  <property name="meta.media.0.codec.channels">2</property>
  <property name="meta.media.0.codec.name">mp3</property>
  <property name="meta.media.0.codec.long_name">MP3 (MPEG audio layer 3)</property>
  <property name="meta.media.0.codec.bit_rate">128000</property>
  <property name="meta.attr.0.stream.encoder.markup">LAME3.99r</property>
  <property name="meta.attr.track.markup">2</property>
  <property name="meta.attr.title.markup">we-see-menu</property>
  <property name="seekable">1</property>
  <property name="kdenlive:file_size">63166</property>
  <property name="kdenlive:file_hash">dd36d980819cd5dc027826ae361f187b</property>
  <property name="global_feed">1</property>
 </producer>
 <producer out="128" id="6" in="0" title="Anonymous Submission">
  <property name="mlt_type">mlt_producer</property>
  <property name="length">00:00:04:09</property>
  <property name="eof">pause</property>
  <property name="resource">projects/UstimenkoAlexander/wp-testing/wp-testing/tools/intro-video/mp3/03.mp3</property>
  <property name="audio_index">0</property>
  <property name="video_index">-1</property>
  <property name="mute_on_pause">1</property>
  <property name="mlt_service">avformat-novalidate</property>
  <property name="meta.media.nb_streams">1</property>
  <property name="meta.media.0.stream.type">audio</property>
  <property name="meta.media.0.codec.sample_fmt">s16p</property>
  <property name="meta.media.0.codec.sample_rate">44100</property>
  <property name="meta.media.0.codec.channels">2</property>
  <property name="meta.media.0.codec.name">mp3</property>
  <property name="meta.media.0.codec.long_name">MP3 (MPEG audio layer 3)</property>
  <property name="meta.media.0.codec.bit_rate">128000</property>
  <property name="meta.attr.0.stream.encoder.markup">LAME3.99r</property>
  <property name="seekable">1</property>
  <property name="kdenlive:file_size">68962</property>
  <property name="kdenlive:file_hash">7eee8c0249883ca260368f712a4ac1c2</property>
  <property name="global_feed">1</property>
 </producer>
 <producer out="703" id="7" in="0" title="Anonymous Submission">
  <property name="mlt_type">mlt_producer</property>
  <property name="length">00:00:23:14</property>
  <property name="eof">pause</property>
  <property name="resource">projects/UstimenkoAlexander/wp-testing/wp-testing/tools/intro-video/mkv/03.mkv</property>
  <property name="audio_index">-1</property>
  <property name="video_index">0</property>
  <property name="mute_on_pause">1</property>
  <property name="mlt_service">avformat-novalidate</property>
  <property name="meta.media.nb_streams">1</property>
  <property name="meta.media.0.stream.type">video</property>
  <property name="meta.media.0.stream.frame_rate">15</property>
  <property name="meta.media.0.stream.sample_aspect_ratio">1</property>
  <property name="meta.media.0.codec.width">1616</property>
  <property name="meta.media.0.codec.height">1024</property>
  <property name="meta.media.0.codec.frame_rate">15</property>
  <property name="meta.media.0.codec.pix_fmt">yuv420p</property>
  <property name="meta.media.0.codec.sample_aspect_ratio">1</property>
  <property name="meta.media.0.codec.colorspace">709</property>
  <property name="meta.media.0.codec.name">theora</property>
  <property name="meta.media.0.codec.long_name">Theora</property>
  <property name="meta.media.0.codec.bit_rate">0</property>
  <property name="meta.attr.0.stream.RECORDMYDESKTOP.markup">0.3.8.1</property>
  <property name="meta.attr.ENCODER.markup">Lavf56.36.100</property>
  <property name="seekable">1</property>
  <property name="meta.media.sample_aspect_num">1</property>
  <property name="meta.media.sample_aspect_den">1</property>
  <property name="aspect_ratio">1</property>
  <property name="meta.media.frame_rate_num">15</property>
  <property name="meta.media.frame_rate_den">1</property>
  <property name="meta.media.colorspace">709</property>
  <property name="meta.media.color_trc">2</property>
  <property name="meta.media.width">1616</property>
  <property name="meta.media.height">1024</property>
  <property name="meta.media.top_field_first">0</property>
  <property name="meta.media.progressive">1</property>
  <property name="kdenlive:file_size">1117157</property>
  <property name="kdenlive:file_hash">70f3a60e2d555e45dc3560b1bffe1732</property>
  <property name="kdenlive:zone_in">57</property>
  <property name="kdenlive:zone_out">123</property>
  <property name="global_feed">1</property>
 </producer>
 <producer out="6625" id="8" in="0" title="Anonymous Submission">
  <property name="mlt_type">mlt_producer</property>
  <property name="length">00:03:40:26</property>
  <property name="eof">pause</property>
  <property name="resource">projects/UstimenkoAlexander/wp-testing/wp-testing/tools/intro-video/mkv/04.mkv</property>
  <property name="audio_index">-1</property>
  <property name="video_index">0</property>
  <property name="mute_on_pause">1</property>
  <property name="mlt_service">avformat-novalidate</property>
  <property name="meta.media.nb_streams">1</property>
  <property name="meta.media.0.stream.type">video</property>
  <property name="meta.media.0.stream.frame_rate">15</property>
  <property name="meta.media.0.stream.sample_aspect_ratio">1</property>
  <property name="meta.media.0.codec.width">1616</property>
  <property name="meta.media.0.codec.height">1024</property>
  <property name="meta.media.0.codec.frame_rate">15</property>
  <property name="meta.media.0.codec.pix_fmt">yuv420p</property>
  <property name="meta.media.0.codec.sample_aspect_ratio">1</property>
  <property name="meta.media.0.codec.colorspace">709</property>
  <property name="meta.media.0.codec.name">theora</property>
  <property name="meta.media.0.codec.long_name">Theora</property>
  <property name="meta.media.0.codec.bit_rate">0</property>
  <property name="meta.attr.0.stream.RECORDMYDESKTOP.markup">0.3.8.1</property>
  <property name="meta.attr.ENCODER.markup">Lavf56.36.100</property>
  <property name="seekable">1</property>
  <property name="meta.media.sample_aspect_num">1</property>
  <property name="meta.media.sample_aspect_den">1</property>
  <property name="aspect_ratio">1</property>
  <property name="meta.media.frame_rate_num">15</property>
  <property name="meta.media.frame_rate_den">1</property>
  <property name="meta.media.colorspace">709</property>
  <property name="meta.media.color_trc">2</property>
  <property name="meta.media.width">1616</property>
  <property name="meta.media.height">1024</property>
  <property name="meta.media.top_field_first">0</property>
  <property name="meta.media.progressive">1</property>
  <property name="kdenlive:file_size">39351947</property>
  <property name="kdenlive:file_hash">a9fc7d435e2203aa5d6f52e535e5a4b8</property>
  <property name="global_feed">1</property>
 </producer>
 <producer out="97" id="9" in="0" title="Anonymous Submission">
  <property name="mlt_type">mlt_producer</property>
  <property name="length">00:00:03:08</property>
  <property name="eof">pause</property>
  <property name="resource">projects/UstimenkoAlexander/wp-testing/wp-testing/tools/intro-video/mp3/04-01.mp3</property>
  <property name="audio_index">0</property>
  <property name="video_index">-1</property>
  <property name="mute_on_pause">1</property>
  <property name="mlt_service">avformat-novalidate</property>
  <property name="meta.media.nb_streams">1</property>
  <property name="meta.media.0.stream.type">audio</property>
  <property name="meta.media.0.codec.sample_fmt">s16p</property>
  <property name="meta.media.0.codec.sample_rate">44100</property>
  <property name="meta.media.0.codec.channels">2</property>
  <property name="meta.media.0.codec.name">mp3</property>
  <property name="meta.media.0.codec.long_name">MP3 (MPEG audio layer 3)</property>
  <property name="meta.media.0.codec.bit_rate">128000</property>
  <property name="meta.attr.0.stream.encoder.markup">LAME3.99r</property>
  <property name="meta.attr.track.markup">1</property>
  <property name="meta.attr.title.markup">1</property>
  <property name="seekable">1</property>
  <property name="kdenlive:file_size">52707</property>
  <property name="kdenlive:file_hash">38ea7d77bec24830d9104de839b124c4</property>
  <property name="global_feed">1</property>
 </producer>
 <producer out="60" id="10" in="0" title="Anonymous Submission">
  <property name="mlt_type">mlt_producer</property>
  <property name="length">00:00:02:01</property>
  <property name="eof">pause</property>
  <property name="resource">projects/UstimenkoAlexander/wp-testing/wp-testing/tools/intro-video/mp3/04-02.mp3</property>
  <property name="audio_index">0</property>
  <property name="video_index">-1</property>
  <property name="mute_on_pause">1</property>
  <property name="mlt_service">avformat-novalidate</property>
  <property name="meta.media.nb_streams">1</property>
  <property name="meta.media.0.stream.type">audio</property>
  <property name="meta.media.0.codec.sample_fmt">s16p</property>
  <property name="meta.media.0.codec.sample_rate">44100</property>
  <property name="meta.media.0.codec.channels">2</property>
  <property name="meta.media.0.codec.name">mp3</property>
  <property name="meta.media.0.codec.long_name">MP3 (MPEG audio layer 3)</property>
  <property name="meta.media.0.codec.bit_rate">128000</property>
  <property name="meta.attr.0.stream.encoder.markup">LAME3.99r</property>
  <property name="meta.attr.track.markup">2</property>
  <property name="meta.attr.title.markup">2</property>
  <property name="seekable">1</property>
  <property name="kdenlive:file_size">33063</property>
  <property name="kdenlive:file_hash">4062144bcced45436fa7a007c6d84a04</property>
  <property name="global_feed">1</property>
 </producer>
 <producer out="50" id="11" in="0" title="Anonymous Submission">
  <property name="mlt_type">mlt_producer</property>
  <property name="length">00:00:01:21</property>
  <property name="eof">pause</property>
  <property name="resource">projects/UstimenkoAlexander/wp-testing/wp-testing/tools/intro-video/mp3/04-03.mp3</property>
  <property name="audio_index">0</property>
  <property name="video_index">-1</property>
  <property name="mute_on_pause">1</property>
  <property name="mlt_service">avformat-novalidate</property>
  <property name="meta.media.nb_streams">1</property>
  <property name="meta.media.0.stream.type">audio</property>
  <property name="meta.media.0.codec.sample_fmt">s16p</property>
  <property name="meta.media.0.codec.sample_rate">44100</property>
  <property name="meta.media.0.codec.channels">2</property>
  <property name="meta.media.0.codec.name">mp3</property>
  <property name="meta.media.0.codec.long_name">MP3 (MPEG audio layer 3)</property>
  <property name="meta.media.0.codec.bit_rate">128000</property>
  <property name="meta.attr.0.stream.encoder.markup">LAME3.99r</property>
  <property name="meta.attr.track.markup">3</property>
  <property name="meta.attr.title.markup">3</property>
  <property name="seekable">1</property>
  <property name="kdenlive:file_size">27630</property>
  <property name="kdenlive:file_hash">593f765c4c68c67c4e8240c59369506a</property>
  <property name="global_feed">1</property>
 </producer>
 <producer out="91" id="12" in="0" title="Anonymous Submission">
  <property name="mlt_type">mlt_producer</property>
  <property name="length">00:00:03:02</property>
  <property name="eof">pause</property>
  <property name="resource">projects/UstimenkoAlexander/wp-testing/wp-testing/tools/intro-video/mp3/04-04.mp3</property>
  <property name="audio_index">0</property>
  <property name="video_index">-1</property>
  <property name="mute_on_pause">1</property>
  <property name="mlt_service">avformat-novalidate</property>
  <property name="meta.media.nb_streams">1</property>
  <property name="meta.media.0.stream.type">audio</property>
  <property name="meta.media.0.codec.sample_fmt">s16p</property>
  <property name="meta.media.0.codec.sample_rate">44100</property>
  <property name="meta.media.0.codec.channels">2</property>
  <property name="meta.media.0.codec.name">mp3</property>
  <property name="meta.media.0.codec.long_name">MP3 (MPEG audio layer 3)</property>
  <property name="meta.media.0.codec.bit_rate">128000</property>
  <property name="meta.attr.0.stream.encoder.markup">LAME3.99r</property>
  <property name="meta.attr.track.markup">4</property>
  <property name="meta.attr.title.markup">1</property>
  <property name="seekable">1</property>
  <property name="kdenlive:file_size">49364</property>
  <property name="kdenlive:file_hash">02f0c8ac186266eb8e748338325e6598</property>
  <property name="global_feed">1</property>
 </producer>
 <producer out="167" id="13" in="0" title="Anonymous Submission">
  <property name="mlt_type">mlt_producer</property>
  <property name="length">00:00:05:18</property>
  <property name="eof">pause</property>
  <property name="resource">projects/UstimenkoAlexander/wp-testing/wp-testing/tools/intro-video/mp3/04-05.mp3</property>
  <property name="audio_index">0</property>
  <property name="video_index">-1</property>
  <property name="mute_on_pause">1</property>
  <property name="mlt_service">avformat-novalidate</property>
  <property name="meta.media.nb_streams">1</property>
  <property name="meta.media.0.stream.type">audio</property>
  <property name="meta.media.0.codec.sample_fmt">s16p</property>
  <property name="meta.media.0.codec.sample_rate">44100</property>
  <property name="meta.media.0.codec.channels">2</property>
  <property name="meta.media.0.codec.name">mp3</property>
  <property name="meta.media.0.codec.long_name">MP3 (MPEG audio layer 3)</property>
  <property name="meta.media.0.codec.bit_rate">128000</property>
  <property name="meta.attr.0.stream.encoder.markup">LAME3.99r</property>
  <property name="meta.attr.track.markup">5</property>
  <property name="meta.attr.title.markup">2</property>
  <property name="seekable">1</property>
  <property name="kdenlive:file_size">89906</property>
  <property name="kdenlive:file_hash">76d499c3e1c61f5b0dbf0e2e62b242f4</property>
  <property name="global_feed">1</property>
 </producer>
 <producer out="195" id="14" in="0" title="Anonymous Submission">
  <property name="mlt_type">mlt_producer</property>
  <property name="length">00:00:06:16</property>
  <property name="eof">pause</property>
  <property name="resource">projects/UstimenkoAlexander/wp-testing/wp-testing/tools/intro-video/mp3/04-06.mp3</property>
  <property name="audio_index">0</property>
  <property name="video_index">-1</property>
  <property name="mute_on_pause">1</property>
  <property name="mlt_service">avformat-novalidate</property>
  <property name="meta.media.nb_streams">1</property>
  <property name="meta.media.0.stream.type">audio</property>
  <property name="meta.media.0.codec.sample_fmt">s16p</property>
  <property name="meta.media.0.codec.sample_rate">44100</property>
  <property name="meta.media.0.codec.channels">2</property>
  <property name="meta.media.0.codec.name">mp3</property>
  <property name="meta.media.0.codec.long_name">MP3 (MPEG audio layer 3)</property>
  <property name="meta.media.0.codec.bit_rate">128000</property>
  <property name="meta.attr.0.stream.encoder.markup">LAME3.99r</property>
  <property name="meta.attr.track.markup">6</property>
  <property name="meta.attr.title.markup">3</property>
  <property name="seekable">1</property>
  <property name="kdenlive:file_size">104952</property>
  <property name="kdenlive:file_hash">042b06d23062bf430ab1fc67a2d7e916</property>
  <property name="global_feed">1</property>
 </producer>
 <producer out="84" id="15" in="0" title="Anonymous Submission">
  <property name="mlt_type">mlt_producer</property>
  <property name="length">00:00:02:25</property>
  <property name="eof">pause</property>
  <property name="resource">projects/UstimenkoAlexander/wp-testing/wp-testing/tools/intro-video/mp3/04-07.mp3</property>
  <property name="audio_index">0</property>
  <property name="video_index">-1</property>
  <property name="mute_on_pause">1</property>
  <property name="mlt_service">avformat-novalidate</property>
  <property name="meta.media.nb_streams">1</property>
  <property name="meta.media.0.stream.type">audio</property>
  <property name="meta.media.0.codec.sample_fmt">s16p</property>
  <property name="meta.media.0.codec.sample_rate">44100</property>
  <property name="meta.media.0.codec.channels">2</property>
  <property name="meta.media.0.codec.name">mp3</property>
  <property name="meta.media.0.codec.long_name">MP3 (MPEG audio layer 3)</property>
  <property name="meta.media.0.codec.bit_rate">128000</property>
  <property name="meta.attr.0.stream.encoder.markup">LAME3.99r</property>
  <property name="meta.attr.track.markup">7</property>
  <property name="meta.attr.title.markup">4</property>
  <property name="seekable">1</property>
  <property name="kdenlive:file_size">45602</property>
  <property name="kdenlive:file_hash">e0a9826c88e2fe3653bc2d44004a99ff</property>
  <property name="global_feed">1</property>
 </producer>
 <producer out="242" id="16" in="0" title="Anonymous Submission">
  <property name="mlt_type">mlt_producer</property>
  <property name="length">00:00:08:03</property>
  <property name="eof">pause</property>
  <property name="resource">projects/UstimenkoAlexander/wp-testing/wp-testing/tools/intro-video/mp3/04-08.mp3</property>
  <property name="audio_index">0</property>
  <property name="video_index">-1</property>
  <property name="mute_on_pause">1</property>
  <property name="mlt_service">avformat-novalidate</property>
  <property name="meta.media.nb_streams">1</property>
  <property name="meta.media.0.stream.type">audio</property>
  <property name="meta.media.0.codec.sample_fmt">s16p</property>
  <property name="meta.media.0.codec.sample_rate">44100</property>
  <property name="meta.media.0.codec.channels">2</property>
  <property name="meta.media.0.codec.name">mp3</property>
  <property name="meta.media.0.codec.long_name">MP3 (MPEG audio layer 3)</property>
  <property name="meta.media.0.codec.bit_rate">128000</property>
  <property name="meta.attr.0.stream.encoder.markup">LAME3.99r</property>
  <property name="meta.attr.track.markup">8</property>
  <property name="meta.attr.title.markup">5</property>
  <property name="seekable">1</property>
  <property name="kdenlive:file_size">130030</property>
  <property name="kdenlive:file_hash">e69fb428f3f018d0943c99ebb0ec1ca4</property>
  <property name="global_feed">1</property>
 </producer>
 <producer out="159" id="17" in="0" title="Anonymous Submission">
  <property name="mlt_type">mlt_producer</property>
  <property name="length">00:00:05:10</property>
  <property name="eof">pause</property>
  <property name="resource">projects/UstimenkoAlexander/wp-testing/wp-testing/tools/intro-video/mp3/04-09.mp3</property>
  <property name="audio_index">0</property>
  <property name="video_index">-1</property>
  <property name="mute_on_pause">1</property>
  <property name="mlt_service">avformat-novalidate</property>
  <property name="meta.media.nb_streams">1</property>
  <property name="meta.media.0.stream.type">audio</property>
  <property name="meta.media.0.codec.sample_fmt">s16p</property>
  <property name="meta.media.0.codec.sample_rate">44100</property>
  <property name="meta.media.0.codec.channels">2</property>
  <property name="meta.media.0.codec.name">mp3</property>
  <property name="meta.media.0.codec.long_name">MP3 (MPEG audio layer 3)</property>
  <property name="meta.media.0.codec.bit_rate">128000</property>
  <property name="meta.attr.0.stream.encoder.markup">LAME3.99r</property>
  <property name="meta.attr.track.markup">9</property>
  <property name="meta.attr.title.markup">6</property>
  <property name="seekable">1</property>
  <property name="kdenlive:file_size">85726</property>
  <property name="kdenlive:file_hash">7718caef35699b71f7b6dd7a57874cf9</property>
  <property name="global_feed">1</property>
 </producer>
 <producer out="65" id="18" in="0" title="Anonymous Submission">
  <property name="mlt_type">mlt_producer</property>
  <property name="length">00:00:02:06</property>
  <property name="eof">pause</property>
  <property name="resource">projects/UstimenkoAlexander/wp-testing/wp-testing/tools/intro-video/mp3/04-10.mp3</property>
  <property name="audio_index">0</property>
  <property name="video_index">-1</property>
  <property name="mute_on_pause">1</property>
  <property name="mlt_service">avformat-novalidate</property>
  <property name="meta.media.nb_streams">1</property>
  <property name="meta.media.0.stream.type">audio</property>
  <property name="meta.media.0.codec.sample_fmt">s16p</property>
  <property name="meta.media.0.codec.sample_rate">44100</property>
  <property name="meta.media.0.codec.channels">2</property>
  <property name="meta.media.0.codec.name">mp3</property>
  <property name="meta.media.0.codec.long_name">MP3 (MPEG audio layer 3)</property>
  <property name="meta.media.0.codec.bit_rate">128000</property>
  <property name="meta.attr.0.stream.encoder.markup">LAME3.99r</property>
  <property name="meta.attr.track.markup">10</property>
  <property name="meta.attr.title.markup">7</property>
  <property name="seekable">1</property>
  <property name="kdenlive:file_size">35572</property>
  <property name="kdenlive:file_hash">e053ca72af68f505c896fb13ed6c12b3</property>
  <property name="global_feed">1</property>
 </producer>
 <producer out="225" id="19" in="0" title="Anonymous Submission">
  <property name="mlt_type">mlt_producer</property>
  <property name="length">00:00:07:16</property>
  <property name="eof">pause</property>
  <property name="resource">projects/UstimenkoAlexander/wp-testing/wp-testing/tools/intro-video/mp3/04-11.mp3</property>
  <property name="audio_index">0</property>
  <property name="video_index">-1</property>
  <property name="mute_on_pause">1</property>
  <property name="mlt_service">avformat-novalidate</property>
  <property name="meta.media.nb_streams">1</property>
  <property name="meta.media.0.stream.type">audio</property>
  <property name="meta.media.0.codec.sample_fmt">s16p</property>
  <property name="meta.media.0.codec.sample_rate">44100</property>
  <property name="meta.media.0.codec.channels">2</property>
  <property name="meta.media.0.codec.name">mp3</property>
  <property name="meta.media.0.codec.long_name">MP3 (MPEG audio layer 3)</property>
  <property name="meta.media.0.codec.bit_rate">128000</property>
  <property name="meta.attr.0.stream.encoder.markup">LAME3.99r</property>
  <property name="meta.attr.track.markup">11</property>
  <property name="meta.attr.title.markup">1</property>
  <property name="seekable">1</property>
  <property name="kdenlive:file_size">120836</property>
  <property name="kdenlive:file_hash">1c1bb1fd0bed7f9768e4403b7f4bcf74</property>
  <property name="global_feed">1</property>
 </producer>
 <producer out="86" id="20" in="0" title="Anonymous Submission">
  <property name="mlt_type">mlt_producer</property>
  <property name="length">00:00:02:27</property>
  <property name="eof">pause</property>
  <property name="resource">projects/UstimenkoAlexander/wp-testing/wp-testing/tools/intro-video/mp3/04-12.mp3</property>
  <property name="audio_index">0</property>
  <property name="video_index">-1</property>
  <property name="mute_on_pause">1</property>
  <property name="mlt_service">avformat-novalidate</property>
  <property name="meta.media.nb_streams">1</property>
  <property name="meta.media.0.stream.type">audio</property>
  <property name="meta.media.0.codec.sample_fmt">s16p</property>
  <property name="meta.media.0.codec.sample_rate">44100</property>
  <property name="meta.media.0.codec.channels">2</property>
  <property name="meta.media.0.codec.name">mp3</property>
  <property name="meta.media.0.codec.long_name">MP3 (MPEG audio layer 3)</property>
  <property name="meta.media.0.codec.bit_rate">128000</property>
  <property name="meta.attr.0.stream.encoder.markup">LAME3.99r</property>
  <property name="meta.attr.track.markup">12</property>
  <property name="meta.attr.title.markup">2</property>
  <property name="seekable">1</property>
  <property name="kdenlive:file_size">46857</property>
  <property name="kdenlive:file_hash">d2e7f09855715be1d9a5c204e59fd4e5</property>
  <property name="global_feed">1</property>
 </producer>
 <producer out="121" id="21" in="0" title="Anonymous Submission">
  <property name="mlt_type">mlt_producer</property>
  <property name="length">00:00:04:02</property>
  <property name="eof">pause</property>
  <property name="resource">projects/UstimenkoAlexander/wp-testing/wp-testing/tools/intro-video/mp3/04-13.mp3</property>
  <property name="audio_index">0</property>
  <property name="video_index">-1</property>
  <property name="mute_on_pause">1</property>
  <property name="mlt_service">avformat-novalidate</property>
  <property name="meta.media.nb_streams">1</property>
  <property name="meta.media.0.stream.type">audio</property>
  <property name="meta.media.0.codec.sample_fmt">s16p</property>
  <property name="meta.media.0.codec.sample_rate">44100</property>
  <property name="meta.media.0.codec.channels">2</property>
  <property name="meta.media.0.codec.name">mp3</property>
  <property name="meta.media.0.codec.long_name">MP3 (MPEG audio layer 3)</property>
  <property name="meta.media.0.codec.bit_rate">128000</property>
  <property name="meta.attr.0.stream.encoder.markup">LAME3.99r</property>
  <property name="meta.attr.track.markup">13</property>
  <property name="meta.attr.title.markup">3</property>
  <property name="seekable">1</property>
  <property name="kdenlive:file_size">65665</property>
  <property name="kdenlive:file_hash">9c0ac2f2a153d4a496fe214478bd49ae</property>
  <property name="global_feed">1</property>
 </producer>
 <producer out="149" id="22" in="0" title="Anonymous Submission">
  <property name="mlt_type">mlt_producer</property>
  <property name="length">00:00:05:00</property>
  <property name="eof">pause</property>
  <property name="resource">projects/UstimenkoAlexander/wp-testing/wp-testing/tools/intro-video/mp3/04-14.mp3</property>
  <property name="audio_index">0</property>
  <property name="video_index">-1</property>
  <property name="mute_on_pause">1</property>
  <property name="mlt_service">avformat-novalidate</property>
  <property name="meta.media.nb_streams">1</property>
  <property name="meta.media.0.stream.type">audio</property>
  <property name="meta.media.0.codec.sample_fmt">s16p</property>
  <property name="meta.media.0.codec.sample_rate">44100</property>
  <property name="meta.media.0.codec.channels">2</property>
  <property name="meta.media.0.codec.name">mp3</property>
  <property name="meta.media.0.codec.long_name">MP3 (MPEG audio layer 3)</property>
  <property name="meta.media.0.codec.bit_rate">128000</property>
  <property name="meta.attr.0.stream.encoder.markup">LAME3.99r</property>
  <property name="meta.attr.track.markup">14</property>
  <property name="meta.attr.title.markup">4</property>
  <property name="seekable">1</property>
  <property name="kdenlive:file_size">80294</property>
  <property name="kdenlive:file_hash">2ca83b3da3bb31e191854cb45834f81b</property>
  <property name="global_feed">1</property>
 </producer>
 <producer out="492" id="23" in="0" title="Anonymous Submission">
  <property name="mlt_type">mlt_producer</property>
  <property name="length">00:00:16:13</property>
  <property name="eof">pause</property>
  <property name="resource">projects/UstimenkoAlexander/wp-testing/wp-testing/tools/intro-video/mkv/05.mkv</property>
  <property name="audio_index">-1</property>
  <property name="video_index">0</property>
  <property name="mute_on_pause">1</property>
  <property name="mlt_service">avformat-novalidate</property>
  <property name="meta.media.nb_streams">1</property>
  <property name="meta.media.0.stream.type">video</property>
  <property name="meta.media.0.stream.frame_rate">15</property>
  <property name="meta.media.0.stream.sample_aspect_ratio">1</property>
  <property name="meta.media.0.codec.width">1616</property>
  <property name="meta.media.0.codec.height">1024</property>
  <property name="meta.media.0.codec.frame_rate">15</property>
  <property name="meta.media.0.codec.pix_fmt">yuv420p</property>
  <property name="meta.media.0.codec.sample_aspect_ratio">1</property>
  <property name="meta.media.0.codec.colorspace">709</property>
  <property name="meta.media.0.codec.name">theora</property>
  <property name="meta.media.0.codec.long_name">Theora</property>
  <property name="meta.media.0.codec.bit_rate">0</property>
  <property name="meta.attr.0.stream.RECORDMYDESKTOP.markup">0.3.8.1</property>
  <property name="meta.attr.ENCODER.markup">Lavf56.36.100</property>
  <property name="seekable">1</property>
  <property name="meta.media.sample_aspect_num">1</property>
  <property name="meta.media.sample_aspect_den">1</property>
  <property name="aspect_ratio">1</property>
  <property name="meta.media.frame_rate_num">15</property>
  <property name="meta.media.frame_rate_den">1</property>
  <property name="meta.media.colorspace">709</property>
  <property name="meta.media.color_trc">2</property>
  <property name="meta.media.width">1616</property>
  <property name="meta.media.height">1024</property>
  <property name="meta.media.top_field_first">0</property>
  <property name="meta.media.progressive">1</property>
  <property name="kdenlive:file_size">1408394</property>
  <property name="kdenlive:file_hash">1f7e285b7dd04b83b8b24032c75bb0d8</property>
  <property name="global_feed">1</property>
 </producer>
 <producer out="112" id="25" in="0" title="Anonymous Submission">
  <property name="mlt_type">mlt_producer</property>
  <property name="length">00:00:03:23</property>
  <property name="eof">pause</property>
  <property name="resource">projects/UstimenkoAlexander/wp-testing/wp-testing/tools/intro-video/mp3/05-01.mp3</property>
  <property name="audio_index">0</property>
  <property name="video_index">-1</property>
  <property name="mute_on_pause">1</property>
  <property name="mlt_service">avformat-novalidate</property>
  <property name="meta.media.nb_streams">1</property>
  <property name="meta.media.0.stream.type">audio</property>
  <property name="meta.media.0.codec.sample_fmt">s16p</property>
  <property name="meta.media.0.codec.sample_rate">44100</property>
  <property name="meta.media.0.codec.channels">2</property>
  <property name="meta.media.0.codec.name">mp3</property>
  <property name="meta.media.0.codec.long_name">MP3 (MPEG audio layer 3)</property>
  <property name="meta.media.0.codec.bit_rate">128000</property>
  <property name="meta.attr.0.stream.encoder.markup">LAME3.99r</property>
  <property name="meta.attr.track.markup">1</property>
  <property name="meta.attr.title.markup">5-e-1</property>
  <property name="seekable">1</property>
  <property name="kdenlive:file_size">60653</property>
  <property name="kdenlive:file_hash">1576e9d09b4c7a81146dbf6e110436a3</property>
  <property name="global_feed">1</property>
 </producer>
 <producer out="731" id="27" in="0" title="Anonymous Submission">
  <property name="mlt_type">mlt_producer</property>
  <property name="length">00:00:24:12</property>
  <property name="eof">pause</property>
  <property name="resource">projects/UstimenkoAlexander/wp-testing/wp-testing/tools/intro-video/mkv/06.mkv</property>
  <property name="audio_index">-1</property>
  <property name="video_index">0</property>
  <property name="mute_on_pause">1</property>
  <property name="mlt_service">avformat-novalidate</property>
  <property name="meta.media.nb_streams">1</property>
  <property name="meta.media.0.stream.type">video</property>
  <property name="meta.media.0.stream.frame_rate">15</property>
  <property name="meta.media.0.stream.sample_aspect_ratio">1</property>
  <property name="meta.media.0.codec.width">1616</property>
  <property name="meta.media.0.codec.height">1024</property>
  <property name="meta.media.0.codec.frame_rate">15</property>
  <property name="meta.media.0.codec.pix_fmt">yuv420p</property>
  <property name="meta.media.0.codec.sample_aspect_ratio">1</property>
  <property name="meta.media.0.codec.colorspace">709</property>
  <property name="meta.media.0.codec.name">theora</property>
  <property name="meta.media.0.codec.long_name">Theora</property>
  <property name="meta.media.0.codec.bit_rate">0</property>
  <property name="meta.attr.0.stream.RECORDMYDESKTOP.markup">0.3.8.1</property>
  <property name="meta.attr.ENCODER.markup">Lavf56.36.100</property>
  <property name="seekable">1</property>
  <property name="meta.media.sample_aspect_num">1</property>
  <property name="meta.media.sample_aspect_den">1</property>
  <property name="aspect_ratio">1</property>
  <property name="meta.media.frame_rate_num">15</property>
  <property name="meta.media.frame_rate_den">1</property>
  <property name="meta.media.colorspace">709</property>
  <property name="meta.media.color_trc">2</property>
  <property name="meta.media.width">1616</property>
  <property name="meta.media.height">1024</property>
  <property name="meta.media.top_field_first">0</property>
  <property name="meta.media.progressive">1</property>
  <property name="kdenlive:file_size">1429384</property>
  <property name="kdenlive:file_hash">cdbc83b7cd9614f8ba1974182f5d7442</property>
  <property name="global_feed">1</property>
 </producer>
 <producer out="341" id="26" in="0" title="Anonymous Submission">
  <property name="mlt_type">mlt_producer</property>
  <property name="length">00:00:11:12</property>
  <property name="eof">pause</property>
  <property name="resource">projects/UstimenkoAlexander/wp-testing/wp-testing/tools/intro-video/mp3/06.mp3</property>
  <property name="audio_index">0</property>
  <property name="video_index">-1</property>
  <property name="mute_on_pause">1</property>
  <property name="mlt_service">avformat-novalidate</property>
  <property name="meta.media.nb_streams">1</property>
  <property name="meta.media.0.stream.type">audio</property>
  <property name="meta.media.0.codec.sample_fmt">s16p</property>
  <property name="meta.media.0.codec.sample_rate">44100</property>
  <property name="meta.media.0.codec.channels">2</property>
  <property name="meta.media.0.codec.name">mp3</property>
  <property name="meta.media.0.codec.long_name">MP3 (MPEG audio layer 3)</property>
  <property name="meta.media.0.codec.bit_rate">128000</property>
  <property name="meta.attr.0.stream.encoder.markup">LAME3.99r</property>
  <property name="seekable">1</property>
  <property name="kdenlive:file_size">186826</property>
  <property name="kdenlive:file_hash">1861092116fbd860f9eb2fa2937f2983</property>
  <property name="global_feed">1</property>
 </producer>
 <producer out="1535" id="28" in="0" title="Anonymous Submission">
  <property name="mlt_type">mlt_producer</property>
  <property name="length">00:00:51:06</property>
  <property name="eof">pause</property>
  <property name="resource">projects/UstimenkoAlexander/wp-testing/wp-testing/tools/intro-video/mkv/07.mkv</property>
  <property name="audio_index">-1</property>
  <property name="video_index">0</property>
  <property name="mute_on_pause">1</property>
  <property name="mlt_service">avformat-novalidate</property>
  <property name="meta.media.nb_streams">1</property>
  <property name="meta.media.0.stream.type">video</property>
  <property name="meta.media.0.stream.frame_rate">15</property>
  <property name="meta.media.0.stream.sample_aspect_ratio">1</property>
  <property name="meta.media.0.codec.width">1616</property>
  <property name="meta.media.0.codec.height">1024</property>
  <property name="meta.media.0.codec.frame_rate">15</property>
  <property name="meta.media.0.codec.pix_fmt">yuv420p</property>
  <property name="meta.media.0.codec.sample_aspect_ratio">1</property>
  <property name="meta.media.0.codec.colorspace">709</property>
  <property name="meta.media.0.codec.name">theora</property>
  <property name="meta.media.0.codec.long_name">Theora</property>
  <property name="meta.media.0.codec.bit_rate">0</property>
  <property name="meta.attr.0.stream.RECORDMYDESKTOP.markup">0.3.8.1</property>
  <property name="meta.attr.ENCODER.markup">Lavf56.36.100</property>
  <property name="seekable">1</property>
  <property name="meta.media.sample_aspect_num">1</property>
  <property name="meta.media.sample_aspect_den">1</property>
  <property name="aspect_ratio">1</property>
  <property name="meta.media.frame_rate_num">15</property>
  <property name="meta.media.frame_rate_den">1</property>
  <property name="meta.media.colorspace">709</property>
  <property name="meta.media.color_trc">2</property>
  <property name="meta.media.width">1616</property>
  <property name="meta.media.height">1024</property>
  <property name="meta.media.top_field_first">0</property>
  <property name="meta.media.progressive">1</property>
  <property name="kdenlive:file_size">5194049</property>
  <property name="kdenlive:file_hash">30a756a8aed7c8ad6d262109790638f7</property>
  <property name="global_feed">1</property>
 </producer>
 <producer out="163" id="29" in="0" title="Anonymous Submission">
  <property name="mlt_type">mlt_producer</property>
  <property name="length">00:00:05:14</property>
  <property name="eof">pause</property>
  <property name="resource">projects/UstimenkoAlexander/wp-testing/wp-testing/tools/intro-video/mp3/07-01.mp3</property>
  <property name="audio_index">0</property>
  <property name="video_index">-1</property>
  <property name="mute_on_pause">1</property>
  <property name="mlt_service">avformat-novalidate</property>
  <property name="meta.media.nb_streams">1</property>
  <property name="meta.media.0.stream.type">audio</property>
  <property name="meta.media.0.codec.sample_fmt">s16p</property>
  <property name="meta.media.0.codec.sample_rate">44100</property>
  <property name="meta.media.0.codec.channels">2</property>
  <property name="meta.media.0.codec.name">mp3</property>
  <property name="meta.media.0.codec.long_name">MP3 (MPEG audio layer 3)</property>
  <property name="meta.media.0.codec.bit_rate">128000</property>
  <property name="meta.attr.0.stream.encoder.markup">LAME3.99r</property>
  <property name="meta.attr.track.markup">1</property>
  <property name="meta.attr.title.markup">1</property>
  <property name="seekable">1</property>
  <property name="kdenlive:file_size">87816</property>
  <property name="kdenlive:file_hash">94a939df862690031800fb37ce903572</property>
  <property name="global_feed">1</property>
 </producer>
 <producer out="44" id="30" in="0" title="Anonymous Submission">
  <property name="mlt_type">mlt_producer</property>
  <property name="length">00:00:01:15</property>
  <property name="eof">pause</property>
  <property name="resource">projects/UstimenkoAlexander/wp-testing/wp-testing/tools/intro-video/mp3/07-02.mp3</property>
  <property name="audio_index">0</property>
  <property name="video_index">-1</property>
  <property name="mute_on_pause">1</property>
  <property name="mlt_service">avformat-novalidate</property>
  <property name="meta.media.nb_streams">1</property>
  <property name="meta.media.0.stream.type">audio</property>
  <property name="meta.media.0.codec.sample_fmt">s16p</property>
  <property name="meta.media.0.codec.sample_rate">44100</property>
  <property name="meta.media.0.codec.channels">2</property>
  <property name="meta.media.0.codec.name">mp3</property>
  <property name="meta.media.0.codec.long_name">MP3 (MPEG audio layer 3)</property>
  <property name="meta.media.0.codec.bit_rate">128000</property>
  <property name="meta.attr.0.stream.encoder.markup">LAME3.99r</property>
  <property name="meta.attr.track.markup">2</property>
  <property name="meta.attr.title.markup">2</property>
  <property name="seekable">1</property>
  <property name="kdenlive:file_size">24286</property>
  <property name="kdenlive:file_hash">69233d392d036399bc98993b0d74afb9</property>
  <property name="global_feed">1</property>
 </producer>
 <producer out="140" id="31" in="0" title="Anonymous Submission">
  <property name="mlt_type">mlt_producer</property>
  <property name="length">00:00:04:21</property>
  <property name="eof">pause</property>
  <property name="resource">projects/UstimenkoAlexander/wp-testing/wp-testing/tools/intro-video/mp3/07-03.mp3</property>
  <property name="audio_index">0</property>
  <property name="video_index">-1</property>
  <property name="mute_on_pause">1</property>
  <property name="mlt_service">avformat-novalidate</property>
  <property name="meta.media.nb_streams">1</property>
  <property name="meta.media.0.stream.type">audio</property>
  <property name="meta.media.0.codec.sample_fmt">s16p</property>
  <property name="meta.media.0.codec.sample_rate">44100</property>
  <property name="meta.media.0.codec.channels">2</property>
  <property name="meta.media.0.codec.name">mp3</property>
  <property name="meta.media.0.codec.long_name">MP3 (MPEG audio layer 3)</property>
  <property name="meta.media.0.codec.bit_rate">128000</property>
  <property name="meta.attr.0.stream.encoder.markup">LAME3.99r</property>
  <property name="meta.attr.track.markup">3</property>
  <property name="meta.attr.title.markup">3</property>
  <property name="seekable">1</property>
  <property name="kdenlive:file_size">75695</property>
  <property name="kdenlive:file_hash">ebc24e3c69be454f51da5ab6365f0f0d</property>
  <property name="global_feed">1</property>
 </producer>
 <producer out="120" id="32" in="0" title="Anonymous Submission">
  <property name="mlt_type">mlt_producer</property>
  <property name="length">00:00:04:01</property>
  <property name="eof">pause</property>
  <property name="resource">projects/UstimenkoAlexander/wp-testing/wp-testing/tools/intro-video/mp3/07-04.mp3</property>
  <property name="audio_index">0</property>
  <property name="video_index">-1</property>
  <property name="mute_on_pause">1</property>
  <property name="mlt_service">avformat-novalidate</property>
  <property name="meta.media.nb_streams">1</property>
  <property name="meta.media.0.stream.type">audio</property>
  <property name="meta.media.0.codec.sample_fmt">s16p</property>
  <property name="meta.media.0.codec.sample_rate">44100</property>
  <property name="meta.media.0.codec.channels">2</property>
  <property name="meta.media.0.codec.name">mp3</property>
  <property name="meta.media.0.codec.long_name">MP3 (MPEG audio layer 3)</property>
  <property name="meta.media.0.codec.bit_rate">128000</property>
  <property name="meta.attr.0.stream.encoder.markup">LAME3.99r</property>
  <property name="meta.attr.track.markup">4</property>
  <property name="meta.attr.title.markup">4</property>
  <property name="seekable">1</property>
  <property name="kdenlive:file_size">64828</property>
  <property name="kdenlive:file_hash">6f55a2dfb6808bc4c75fb20f19344b3d</property>
  <property name="global_feed">1</property>
 </producer>
 <producer out="140" id="33" in="0" title="Anonymous Submission">
  <property name="mlt_type">mlt_producer</property>
  <property name="length">00:00:04:21</property>
  <property name="eof">pause</property>
  <property name="resource">projects/UstimenkoAlexander/wp-testing/wp-testing/tools/intro-video/mp3/08-01.mp3</property>
  <property name="audio_index">0</property>
  <property name="video_index">-1</property>
  <property name="mute_on_pause">1</property>
  <property name="mlt_service">avformat-novalidate</property>
  <property name="meta.media.nb_streams">1</property>
  <property name="meta.media.0.stream.type">audio</property>
  <property name="meta.media.0.codec.sample_fmt">s16p</property>
  <property name="meta.media.0.codec.sample_rate">44100</property>
  <property name="meta.media.0.codec.channels">2</property>
  <property name="meta.media.0.codec.name">mp3</property>
  <property name="meta.media.0.codec.long_name">MP3 (MPEG audio layer 3)</property>
  <property name="meta.media.0.codec.bit_rate">128000</property>
  <property name="meta.attr.0.stream.encoder.markup">LAME3.99r</property>
  <property name="meta.attr.track.markup">1</property>
  <property name="meta.attr.title.markup">1</property>
  <property name="seekable">1</property>
  <property name="kdenlive:file_size">75695</property>
  <property name="kdenlive:file_hash">e35ae7f9bfab6d831f75c18125404d64</property>
  <property name="global_feed">1</property>
 </producer>
 <producer out="120" id="34" in="0" title="Anonymous Submission">
  <property name="mlt_type">mlt_producer</property>
  <property name="length">00:00:04:01</property>
  <property name="eof">pause</property>
  <property name="resource">projects/UstimenkoAlexander/wp-testing/wp-testing/tools/intro-video/mp3/08-02.mp3</property>
  <property name="audio_index">0</property>
  <property name="video_index">-1</property>
  <property name="mute_on_pause">1</property>
  <property name="mlt_service">avformat-novalidate</property>
  <property name="meta.media.nb_streams">1</property>
  <property name="meta.media.0.stream.type">audio</property>
  <property name="meta.media.0.codec.sample_fmt">s16p</property>
  <property name="meta.media.0.codec.sample_rate">44100</property>
  <property name="meta.media.0.codec.channels">2</property>
  <property name="meta.media.0.codec.name">mp3</property>
  <property name="meta.media.0.codec.long_name">MP3 (MPEG audio layer 3)</property>
  <property name="meta.media.0.codec.bit_rate">128000</property>
  <property name="meta.attr.0.stream.encoder.markup">LAME3.99r</property>
  <property name="meta.attr.track.markup">2</property>
  <property name="meta.attr.title.markup">2</property>
  <property name="seekable">1</property>
  <property name="kdenlive:file_size">65246</property>
  <property name="kdenlive:file_hash">aad67fa750d513237f7a24527af9010d</property>
  <property name="global_feed">1</property>
 </producer>
 <producer out="67" id="35" in="0" title="Anonymous Submission">
  <property name="mlt_type">mlt_producer</property>
  <property name="length">00:00:02:08</property>
  <property name="eof">pause</property>
  <property name="resource">projects/UstimenkoAlexander/wp-testing/wp-testing/tools/intro-video/mp3/08-03.mp3</property>
  <property name="audio_index">0</property>
  <property name="video_index">-1</property>
  <property name="mute_on_pause">1</property>
  <property name="mlt_service">avformat-novalidate</property>
  <property name="meta.media.nb_streams">1</property>
  <property name="meta.media.0.stream.type">audio</property>
  <property name="meta.media.0.codec.sample_fmt">s16p</property>
  <property name="meta.media.0.codec.sample_rate">44100</property>
  <property name="meta.media.0.codec.channels">2</property>
  <property name="meta.media.0.codec.name">mp3</property>
  <property name="meta.media.0.codec.long_name">MP3 (MPEG audio layer 3)</property>
  <property name="meta.media.0.codec.bit_rate">128000</property>
  <property name="meta.attr.0.stream.encoder.markup">LAME3.99r</property>
  <property name="meta.attr.track.markup">3</property>
  <property name="meta.attr.title.markup">3</property>
  <property name="seekable">1</property>
  <property name="kdenlive:file_size">36825</property>
  <property name="kdenlive:file_hash">8be00f15b0f9d148af048581e39e5702</property>
  <property name="global_feed">1</property>
 </producer>
 <producer out="156" id="36" in="0" title="Anonymous Submission">
  <property name="mlt_type">mlt_producer</property>
  <property name="length">00:00:05:07</property>
  <property name="eof">pause</property>
  <property name="resource">projects/UstimenkoAlexander/wp-testing/wp-testing/tools/intro-video/mp3/08-04.mp3</property>
  <property name="audio_index">0</property>
  <property name="video_index">-1</property>
  <property name="mute_on_pause">1</property>
  <property name="mlt_service">avformat-novalidate</property>
  <property name="meta.media.nb_streams">1</property>
  <property name="meta.media.0.stream.type">audio</property>
  <property name="meta.media.0.codec.sample_fmt">s16p</property>
  <property name="meta.media.0.codec.sample_rate">44100</property>
  <property name="meta.media.0.codec.channels">2</property>
  <property name="meta.media.0.codec.name">mp3</property>
  <property name="meta.media.0.codec.long_name">MP3 (MPEG audio layer 3)</property>
  <property name="meta.media.0.codec.bit_rate">128000</property>
  <property name="meta.attr.0.stream.encoder.markup">LAME3.99r</property>
  <property name="meta.attr.track.markup">4</property>
  <property name="meta.attr.title.markup">4</property>
  <property name="seekable">1</property>
  <property name="kdenlive:file_size">84054</property>
  <property name="kdenlive:file_hash">48f90ba9ddab636bd37cbcbd9ebd6be9</property>
  <property name="global_feed">1</property>
 </producer>
 <producer out="110" id="37" in="0" title="Anonymous Submission">
  <property name="mlt_type">mlt_producer</property>
  <property name="length">00:00:03:21</property>
  <property name="eof">pause</property>
  <property name="resource">projects/UstimenkoAlexander/wp-testing/wp-testing/tools/intro-video/mp3/08-05.mp3</property>
  <property name="audio_index">0</property>
  <property name="video_index">-1</property>
  <property name="mute_on_pause">1</property>
  <property name="mlt_service">avformat-novalidate</property>
  <property name="meta.media.nb_streams">1</property>
  <property name="meta.media.0.stream.type">audio</property>
  <property name="meta.media.0.codec.sample_fmt">s16p</property>
  <property name="meta.media.0.codec.sample_rate">44100</property>
  <property name="meta.media.0.codec.channels">2</property>
  <property name="meta.media.0.codec.name">mp3</property>
  <property name="meta.media.0.codec.long_name">MP3 (MPEG audio layer 3)</property>
  <property name="meta.media.0.codec.bit_rate">128000</property>
  <property name="meta.attr.0.stream.encoder.markup">LAME3.99r</property>
  <property name="meta.attr.track.markup">5</property>
  <property name="meta.attr.title.markup">5</property>
  <property name="seekable">1</property>
  <property name="kdenlive:file_size">59813</property>
  <property name="kdenlive:file_hash">47ae5213086aa726b96aae7483474aa0</property>
  <property name="global_feed">1</property>
 </producer>
 <producer out="1307" id="38" in="0" title="Anonymous Submission">
  <property name="mlt_type">mlt_producer</property>
  <property name="length">00:00:43:18</property>
  <property name="eof">pause</property>
  <property name="resource">projects/UstimenkoAlexander/wp-testing/wp-testing/tools/intro-video/mkv/08.mkv</property>
  <property name="audio_index">-1</property>
  <property name="video_index">0</property>
  <property name="mute_on_pause">1</property>
  <property name="mlt_service">avformat-novalidate</property>
  <property name="meta.media.nb_streams">1</property>
  <property name="meta.media.0.stream.type">video</property>
  <property name="meta.media.0.stream.frame_rate">15</property>
  <property name="meta.media.0.stream.sample_aspect_ratio">1</property>
  <property name="meta.media.0.codec.width">1616</property>
  <property name="meta.media.0.codec.height">1024</property>
  <property name="meta.media.0.codec.frame_rate">15</property>
  <property name="meta.media.0.codec.pix_fmt">yuv420p</property>
  <property name="meta.media.0.codec.sample_aspect_ratio">1</property>
  <property name="meta.media.0.codec.colorspace">709</property>
  <property name="meta.media.0.codec.name">theora</property>
  <property name="meta.media.0.codec.long_name">Theora</property>
  <property name="meta.media.0.codec.bit_rate">0</property>
  <property name="meta.attr.0.stream.RECORDMYDESKTOP.markup">0.3.8.1</property>
  <property name="meta.attr.ENCODER.markup">Lavf56.36.100</property>
  <property name="seekable">1</property>
  <property name="meta.media.sample_aspect_num">1</property>
  <property name="meta.media.sample_aspect_den">1</property>
  <property name="aspect_ratio">1</property>
  <property name="meta.media.frame_rate_num">15</property>
  <property name="meta.media.frame_rate_den">1</property>
  <property name="meta.media.colorspace">709</property>
  <property name="meta.media.color_trc">2</property>
  <property name="meta.media.width">1616</property>
  <property name="meta.media.height">1024</property>
  <property name="meta.media.top_field_first">0</property>
  <property name="meta.media.progressive">1</property>
  <property name="kdenlive:file_size">6742673</property>
  <property name="kdenlive:file_hash">827af32503d75ce645645309c7a47acd</property>
  <property name="global_feed">1</property>
 </producer>
 <producer out="2067" id="39" in="0" title="Anonymous Submission">
  <property name="mlt_type">mlt_producer</property>
  <property name="length">00:01:08:28</property>
  <property name="eof">pause</property>
  <property name="resource">projects/UstimenkoAlexander/wp-testing/wp-testing/tools/intro-video/mkv/09.mkv</property>
  <property name="audio_index">-1</property>
  <property name="video_index">0</property>
  <property name="mute_on_pause">1</property>
  <property name="mlt_service">avformat-novalidate</property>
  <property name="meta.media.nb_streams">1</property>
  <property name="meta.media.0.stream.type">video</property>
  <property name="meta.media.0.stream.frame_rate">15</property>
  <property name="meta.media.0.stream.sample_aspect_ratio">1</property>
  <property name="meta.media.0.codec.width">1616</property>
  <property name="meta.media.0.codec.height">1024</property>
  <property name="meta.media.0.codec.frame_rate">15</property>
  <property name="meta.media.0.codec.pix_fmt">yuv420p</property>
  <property name="meta.media.0.codec.sample_aspect_ratio">1</property>
  <property name="meta.media.0.codec.colorspace">709</property>
  <property name="meta.media.0.codec.name">theora</property>
  <property name="meta.media.0.codec.long_name">Theora</property>
  <property name="meta.media.0.codec.bit_rate">0</property>
  <property name="meta.attr.0.stream.RECORDMYDESKTOP.markup">0.3.8.1</property>
  <property name="meta.attr.ENCODER.markup">Lavf56.36.100</property>
  <property name="seekable">1</property>
  <property name="meta.media.sample_aspect_num">1</property>
  <property name="meta.media.sample_aspect_den">1</property>
  <property name="aspect_ratio">1</property>
  <property name="meta.media.frame_rate_num">15</property>
  <property name="meta.media.frame_rate_den">1</property>
  <property name="meta.media.colorspace">709</property>
  <property name="meta.media.color_trc">2</property>
  <property name="meta.media.width">1616</property>
  <property name="meta.media.height">1024</property>
  <property name="meta.media.top_field_first">0</property>
  <property name="meta.media.progressive">1</property>
  <property name="kdenlive:file_size">5801961</property>
  <property name="kdenlive:file_hash">444733a3c51b73634ece83f297ca6f04</property>
  <property name="global_feed">1</property>
 </producer>
 <producer out="67" id="40" in="0" title="Anonymous Submission">
  <property name="mlt_type">mlt_producer</property>
  <property name="length">00:00:02:08</property>
  <property name="eof">pause</property>
  <property name="resource">projects/UstimenkoAlexander/wp-testing/wp-testing/tools/intro-video/mp3/09-g-01.mp3</property>
  <property name="audio_index">0</property>
  <property name="video_index">-1</property>
  <property name="mute_on_pause">1</property>
  <property name="mlt_service">avformat-novalidate</property>
  <property name="meta.media.nb_streams">1</property>
  <property name="meta.media.0.stream.type">audio</property>
  <property name="meta.media.0.codec.sample_fmt">s16p</property>
  <property name="meta.media.0.codec.sample_rate">44100</property>
  <property name="meta.media.0.codec.channels">2</property>
  <property name="meta.media.0.codec.name">mp3</property>
  <property name="meta.media.0.codec.long_name">MP3 (MPEG audio layer 3)</property>
  <property name="meta.media.0.codec.bit_rate">128000</property>
  <property name="meta.attr.0.stream.encoder.markup">LAME3.99r</property>
  <property name="meta.attr.track.markup">1</property>
  <property name="meta.attr.title.markup">1</property>
  <property name="seekable">1</property>
  <property name="kdenlive:file_size">36825</property>
  <property name="kdenlive:file_hash">295de7e3b8434b1a7e081840e599b7a6</property>
  <property name="global_feed">1</property>
 </producer>
 <producer out="93" id="41" in="0" title="Anonymous Submission">
  <property name="mlt_type">mlt_producer</property>
  <property name="length">00:00:03:04</property>
  <property name="eof">pause</property>
  <property name="resource">projects/UstimenkoAlexander/wp-testing/wp-testing/tools/intro-video/mp3/09-g-02.mp3</property>
  <property name="audio_index">0</property>
  <property name="video_index">-1</property>
  <property name="mute_on_pause">1</property>
  <property name="mlt_service">avformat-novalidate</property>
  <property name="meta.media.nb_streams">1</property>
  <property name="meta.media.0.stream.type">audio</property>
  <property name="meta.media.0.codec.sample_fmt">s16p</property>
  <property name="meta.media.0.codec.sample_rate">44100</property>
  <property name="meta.media.0.codec.channels">2</property>
  <property name="meta.media.0.codec.name">mp3</property>
  <property name="meta.media.0.codec.long_name">MP3 (MPEG audio layer 3)</property>
  <property name="meta.media.0.codec.bit_rate">128000</property>
  <property name="meta.attr.0.stream.encoder.markup">LAME3.99r</property>
  <property name="meta.attr.track.markup">2</property>
  <property name="meta.attr.title.markup">2</property>
  <property name="seekable">1</property>
  <property name="kdenlive:file_size">50618</property>
  <property name="kdenlive:file_hash">4d96fb711542d0d1f113a7afa94ae753</property>
  <property name="global_feed">1</property>
 </producer>
 <producer out="117" id="42" in="0" title="Anonymous Submission">
  <property name="mlt_type">mlt_producer</property>
  <property name="length">00:00:03:28</property>
  <property name="eof">pause</property>
  <property name="resource">projects/UstimenkoAlexander/wp-testing/wp-testing/tools/intro-video/mp3/09-g-03.mp3</property>
  <property name="audio_index">0</property>
  <property name="video_index">-1</property>
  <property name="mute_on_pause">1</property>
  <property name="mlt_service">avformat-novalidate</property>
  <property name="meta.media.nb_streams">1</property>
  <property name="meta.media.0.stream.type">audio</property>
  <property name="meta.media.0.codec.sample_fmt">s16p</property>
  <property name="meta.media.0.codec.sample_rate">44100</property>
  <property name="meta.media.0.codec.channels">2</property>
  <property name="meta.media.0.codec.name">mp3</property>
  <property name="meta.media.0.codec.long_name">MP3 (MPEG audio layer 3)</property>
  <property name="meta.media.0.codec.bit_rate">128000</property>
  <property name="meta.attr.0.stream.encoder.markup">LAME3.99r</property>
  <property name="meta.attr.track.markup">3</property>
  <property name="meta.attr.title.markup">3</property>
  <property name="seekable">1</property>
  <property name="kdenlive:file_size">63156</property>
  <property name="kdenlive:file_hash">728372178e545091ed424a43a1fabe54</property>
  <property name="global_feed">1</property>
 </producer>
 <producer out="78" id="43" in="0" title="Anonymous Submission">
  <property name="mlt_type">mlt_producer</property>
  <property name="length">00:00:02:19</property>
  <property name="eof">pause</property>
  <property name="resource">projects/UstimenkoAlexander/wp-testing/wp-testing/tools/intro-video/mp3/09-g-04.mp3</property>
  <property name="audio_index">0</property>
  <property name="video_index">-1</property>
  <property name="mute_on_pause">1</property>
  <property name="mlt_service">avformat-novalidate</property>
  <property name="meta.media.nb_streams">1</property>
  <property name="meta.media.0.stream.type">audio</property>
  <property name="meta.media.0.codec.sample_fmt">s16p</property>
  <property name="meta.media.0.codec.sample_rate">44100</property>
  <property name="meta.media.0.codec.channels">2</property>
  <property name="meta.media.0.codec.name">mp3</property>
  <property name="meta.media.0.codec.long_name">MP3 (MPEG audio layer 3)</property>
  <property name="meta.media.0.codec.bit_rate">128000</property>
  <property name="meta.attr.0.stream.encoder.markup">LAME3.99r</property>
  <property name="meta.attr.track.markup">4</property>
  <property name="meta.attr.title.markup">4</property>
  <property name="seekable">1</property>
  <property name="kdenlive:file_size">42676</property>
  <property name="kdenlive:file_hash">c86f8c1e808accf08687552ed00ed4f3</property>
  <property name="global_feed">1</property>
 </producer>
 <producer out="70" id="44" in="0" title="Anonymous Submission">
  <property name="mlt_type">mlt_producer</property>
  <property name="length">00:00:02:11</property>
  <property name="eof">pause</property>
  <property name="resource">projects/UstimenkoAlexander/wp-testing/wp-testing/tools/intro-video/mp3/09-g-05.mp3</property>
  <property name="audio_index">0</property>
  <property name="video_index">-1</property>
  <property name="mute_on_pause">1</property>
  <property name="mlt_service">avformat-novalidate</property>
  <property name="meta.media.nb_streams">1</property>
  <property name="meta.media.0.stream.type">audio</property>
  <property name="meta.media.0.codec.sample_fmt">s16p</property>
  <property name="meta.media.0.codec.sample_rate">44100</property>
  <property name="meta.media.0.codec.channels">2</property>
  <property name="meta.media.0.codec.name">mp3</property>
  <property name="meta.media.0.codec.long_name">MP3 (MPEG audio layer 3)</property>
  <property name="meta.media.0.codec.bit_rate">128000</property>
  <property name="meta.attr.0.stream.encoder.markup">LAME3.99r</property>
  <property name="meta.attr.track.markup">5</property>
  <property name="meta.attr.title.markup">5</property>
  <property name="seekable">1</property>
  <property name="kdenlive:file_size">38079</property>
  <property name="kdenlive:file_hash">8486e2d03c503c93d7a2ee0082ccb490</property>
  <property name="global_feed">1</property>
 </producer>
 <producer out="147" id="45" in="0" title="Anonymous Submission">
  <property name="mlt_type">mlt_producer</property>
  <property name="length">00:00:04:28</property>
  <property name="eof">pause</property>
  <property name="resource">projects/UstimenkoAlexander/wp-testing/wp-testing/tools/intro-video/mp3/09-g-06.mp3</property>
  <property name="audio_index">0</property>
  <property name="video_index">-1</property>
  <property name="mute_on_pause">1</property>
  <property name="mlt_service">avformat-novalidate</property>
  <property name="meta.media.nb_streams">1</property>
  <property name="meta.media.0.stream.type">audio</property>
  <property name="meta.media.0.codec.sample_fmt">s16p</property>
  <property name="meta.media.0.codec.sample_rate">44100</property>
  <property name="meta.media.0.codec.channels">2</property>
  <property name="meta.media.0.codec.name">mp3</property>
  <property name="meta.media.0.codec.long_name">MP3 (MPEG audio layer 3)</property>
  <property name="meta.media.0.codec.bit_rate">128000</property>
  <property name="meta.attr.0.stream.encoder.markup">LAME3.99r</property>
  <property name="meta.attr.track.markup">6</property>
  <property name="meta.attr.title.markup">6</property>
  <property name="seekable">1</property>
  <property name="kdenlive:file_size">79457</property>
  <property name="kdenlive:file_hash">29c600d011e3082a82332f3d511453e6</property>
  <property name="global_feed">1</property>
 </producer>
 <producer out="62" id="46" in="0" title="Anonymous Submission">
  <property name="mlt_type">mlt_producer</property>
  <property name="length">00:00:02:03</property>
  <property name="eof">pause</property>
  <property name="resource">projects/UstimenkoAlexander/wp-testing/wp-testing/tools/intro-video/mp3/09-g-07.mp3</property>
  <property name="audio_index">0</property>
  <property name="video_index">-1</property>
  <property name="mute_on_pause">1</property>
  <property name="mlt_service">avformat-novalidate</property>
  <property name="meta.media.nb_streams">1</property>
  <property name="meta.media.0.stream.type">audio</property>
  <property name="meta.media.0.codec.sample_fmt">s16p</property>
  <property name="meta.media.0.codec.sample_rate">44100</property>
  <property name="meta.media.0.codec.channels">2</property>
  <property name="meta.media.0.codec.name">mp3</property>
  <property name="meta.media.0.codec.long_name">MP3 (MPEG audio layer 3)</property>
  <property name="meta.media.0.codec.bit_rate">128000</property>
  <property name="meta.attr.0.stream.encoder.markup">LAME3.99r</property>
  <property name="meta.attr.track.markup">7</property>
  <property name="meta.attr.title.markup">7</property>
  <property name="seekable">1</property>
  <property name="kdenlive:file_size">34317</property>
  <property name="kdenlive:file_hash">7016d16646d4a8b8288400b23f3dab80</property>
  <property name="global_feed">1</property>
 </producer>
 <producer out="140" id="47" in="0" title="Anonymous Submission">
  <property name="mlt_type">mlt_producer</property>
  <property name="length">00:00:04:21</property>
  <property name="eof">pause</property>
  <property name="resource">projects/UstimenkoAlexander/wp-testing/wp-testing/tools/intro-video/mp3/10-a-01.mp3</property>
  <property name="audio_index">0</property>
  <property name="video_index">-1</property>
  <property name="mute_on_pause">1</property>
  <property name="mlt_service">avformat-novalidate</property>
  <property name="meta.media.nb_streams">1</property>
  <property name="meta.media.0.stream.type">audio</property>
  <property name="meta.media.0.codec.sample_fmt">s16p</property>
  <property name="meta.media.0.codec.sample_rate">44100</property>
  <property name="meta.media.0.codec.channels">2</property>
  <property name="meta.media.0.codec.name">mp3</property>
  <property name="meta.media.0.codec.long_name">MP3 (MPEG audio layer 3)</property>
  <property name="meta.media.0.codec.bit_rate">128000</property>
  <property name="meta.attr.0.stream.encoder.markup">LAME3.99r</property>
  <property name="meta.attr.track.markup">1</property>
  <property name="meta.attr.title.markup">1</property>
  <property name="seekable">1</property>
  <property name="kdenlive:file_size">75695</property>
  <property name="kdenlive:file_hash">b21a0d3b58c7092c3fe386216d21e206</property>
  <property name="global_feed">1</property>
 </producer>
 <producer out="120" id="48" in="0" title="Anonymous Submission">
  <property name="mlt_type">mlt_producer</property>
  <property name="length">00:00:04:01</property>
  <property name="eof">pause</property>
  <property name="resource">projects/UstimenkoAlexander/wp-testing/wp-testing/tools/intro-video/mp3/10-a-02.mp3</property>
  <property name="audio_index">0</property>
  <property name="video_index">-1</property>
  <property name="mute_on_pause">1</property>
  <property name="mlt_service">avformat-novalidate</property>
  <property name="meta.media.nb_streams">1</property>
  <property name="meta.media.0.stream.type">audio</property>
  <property name="meta.media.0.codec.sample_fmt">s16p</property>
  <property name="meta.media.0.codec.sample_rate">44100</property>
  <property name="meta.media.0.codec.channels">2</property>
  <property name="meta.media.0.codec.name">mp3</property>
  <property name="meta.media.0.codec.long_name">MP3 (MPEG audio layer 3)</property>
  <property name="meta.media.0.codec.bit_rate">128000</property>
  <property name="meta.attr.0.stream.encoder.markup">LAME3.99r</property>
  <property name="meta.attr.track.markup">2</property>
  <property name="meta.attr.title.markup">2</property>
  <property name="seekable">1</property>
  <property name="kdenlive:file_size">65246</property>
  <property name="kdenlive:file_hash">0012cf28789db74606c87a7136900529</property>
  <property name="global_feed">1</property>
 </producer>
 <producer out="182" id="49" in="0" title="Anonymous Submission">
  <property name="mlt_type">mlt_producer</property>
  <property name="length">00:00:06:03</property>
  <property name="eof">pause</property>
  <property name="resource">projects/UstimenkoAlexander/wp-testing/wp-testing/tools/intro-video/mp3/10-a-03.mp3</property>
  <property name="audio_index">0</property>
  <property name="video_index">-1</property>
  <property name="mute_on_pause">1</property>
  <property name="mlt_service">avformat-novalidate</property>
  <property name="meta.media.nb_streams">1</property>
  <property name="meta.media.0.stream.type">audio</property>
  <property name="meta.media.0.codec.sample_fmt">s16p</property>
  <property name="meta.media.0.codec.sample_rate">44100</property>
  <property name="meta.media.0.codec.channels">2</property>
  <property name="meta.media.0.codec.name">mp3</property>
  <property name="meta.media.0.codec.long_name">MP3 (MPEG audio layer 3)</property>
  <property name="meta.media.0.codec.bit_rate">128000</property>
  <property name="meta.attr.0.stream.encoder.markup">LAME3.99r</property>
  <property name="meta.attr.track.markup">3</property>
  <property name="meta.attr.title.markup">3</property>
  <property name="seekable">1</property>
  <property name="kdenlive:file_size">97847</property>
  <property name="kdenlive:file_hash">62b8d1048855817321d0adc0c6be0ee7</property>
  <property name="global_feed">1</property>
 </producer>
 <producer out="95" id="50" in="0" title="Anonymous Submission">
  <property name="mlt_type">mlt_producer</property>
  <property name="length">00:00:03:06</property>
  <property name="eof">pause</property>
  <property name="resource">projects/UstimenkoAlexander/wp-testing/wp-testing/tools/intro-video/mp3/10-a-04.mp3</property>
  <property name="audio_index">0</property>
  <property name="video_index">-1</property>
  <property name="mute_on_pause">1</property>
  <property name="mlt_service">avformat-novalidate</property>
  <property name="meta.media.nb_streams">1</property>
  <property name="meta.media.0.stream.type">audio</property>
  <property name="meta.media.0.codec.sample_fmt">s16p</property>
  <property name="meta.media.0.codec.sample_rate">44100</property>
  <property name="meta.media.0.codec.channels">2</property>
  <property name="meta.media.0.codec.name">mp3</property>
  <property name="meta.media.0.codec.long_name">MP3 (MPEG audio layer 3)</property>
  <property name="meta.media.0.codec.bit_rate">128000</property>
  <property name="meta.attr.0.stream.encoder.markup">LAME3.99r</property>
  <property name="meta.attr.track.markup">4</property>
  <property name="meta.attr.title.markup">4</property>
  <property name="seekable">1</property>
  <property name="kdenlive:file_size">51872</property>
  <property name="kdenlive:file_hash">c3d99eba5076166fc9edc420518e42a4</property>
  <property name="global_feed">1</property>
 </producer>
 <producer out="1463" id="51" in="0" title="Anonymous Submission">
  <property name="mlt_type">mlt_producer</property>
  <property name="length">00:00:48:24</property>
  <property name="eof">pause</property>
  <property name="resource">projects/UstimenkoAlexander/wp-testing/wp-testing/tools/intro-video/mkv/10.mkv</property>
  <property name="audio_index">-1</property>
  <property name="video_index">0</property>
  <property name="mute_on_pause">1</property>
  <property name="mlt_service">avformat-novalidate</property>
  <property name="meta.media.nb_streams">1</property>
  <property name="meta.media.0.stream.type">video</property>
  <property name="meta.media.0.stream.frame_rate">15</property>
  <property name="meta.media.0.stream.sample_aspect_ratio">1</property>
  <property name="meta.media.0.codec.width">1616</property>
  <property name="meta.media.0.codec.height">1024</property>
  <property name="meta.media.0.codec.frame_rate">15</property>
  <property name="meta.media.0.codec.pix_fmt">yuv420p</property>
  <property name="meta.media.0.codec.sample_aspect_ratio">1</property>
  <property name="meta.media.0.codec.colorspace">709</property>
  <property name="meta.media.0.codec.name">theora</property>
  <property name="meta.media.0.codec.long_name">Theora</property>
  <property name="meta.media.0.codec.bit_rate">0</property>
  <property name="meta.attr.0.stream.RECORDMYDESKTOP.markup">0.3.8.1</property>
  <property name="meta.attr.ENCODER.markup">Lavf56.36.100</property>
  <property name="seekable">1</property>
  <property name="meta.media.sample_aspect_num">1</property>
  <property name="meta.media.sample_aspect_den">1</property>
  <property name="aspect_ratio">1</property>
  <property name="meta.media.frame_rate_num">15</property>
  <property name="meta.media.frame_rate_den">1</property>
  <property name="meta.media.colorspace">709</property>
  <property name="meta.media.color_trc">2</property>
  <property name="meta.media.width">1616</property>
  <property name="meta.media.height">1024</property>
  <property name="meta.media.top_field_first">0</property>
  <property name="meta.media.progressive">1</property>
  <property name="kdenlive:file_size">3363182</property>
  <property name="kdenlive:file_hash">9b692dbd68bb5567c3894d4fb6c2fef0</property>
  <property name="global_feed">1</property>
 </producer>
 <producer out="1429" id="52" in="0" title="Anonymous Submission">
  <property name="mlt_type">mlt_producer</property>
  <property name="length">00:00:47:20</property>
  <property name="eof">pause</property>
  <property name="resource">projects/UstimenkoAlexander/wp-testing/wp-testing/tools/intro-video/mkv/11.mkv</property>
  <property name="audio_index">-1</property>
  <property name="video_index">0</property>
  <property name="mute_on_pause">1</property>
  <property name="mlt_service">avformat-novalidate</property>
  <property name="meta.media.nb_streams">1</property>
  <property name="meta.media.0.stream.type">video</property>
  <property name="meta.media.0.stream.frame_rate">15</property>
  <property name="meta.media.0.stream.sample_aspect_ratio">1</property>
  <property name="meta.media.0.codec.width">1616</property>
  <property name="meta.media.0.codec.height">1024</property>
  <property name="meta.media.0.codec.frame_rate">15</property>
  <property name="meta.media.0.codec.pix_fmt">yuv420p</property>
  <property name="meta.media.0.codec.sample_aspect_ratio">1</property>
  <property name="meta.media.0.codec.colorspace">709</property>
  <property name="meta.media.0.codec.name">theora</property>
  <property name="meta.media.0.codec.long_name">Theora</property>
  <property name="meta.media.0.codec.bit_rate">0</property>
  <property name="meta.attr.0.stream.RECORDMYDESKTOP.markup">0.3.8.1</property>
  <property name="meta.attr.ENCODER.markup">Lavf56.36.100</property>
  <property name="seekable">1</property>
  <property name="meta.media.sample_aspect_num">1</property>
  <property name="meta.media.sample_aspect_den">1</property>
  <property name="aspect_ratio">1</property>
  <property name="meta.media.frame_rate_num">15</property>
  <property name="meta.media.frame_rate_den">1</property>
  <property name="meta.media.colorspace">709</property>
  <property name="meta.media.color_trc">2</property>
  <property name="meta.media.width">1616</property>
  <property name="meta.media.height">1024</property>
  <property name="meta.media.top_field_first">0</property>
  <property name="meta.media.progressive">1</property>
  <property name="kdenlive:file_size">3313095</property>
  <property name="kdenlive:file_hash">81250357bbecd701f7ab6d1cca8abbb6</property>
  <property name="global_feed">1</property>
 </producer>
 <producer out="475" id="53" in="0" title="Anonymous Submission">
  <property name="mlt_type">mlt_producer</property>
  <property name="length">00:00:15:26</property>
  <property name="eof">pause</property>
  <property name="resource">projects/UstimenkoAlexander/wp-testing/wp-testing/tools/intro-video/mp3/11-a-01.mp3</property>
  <property name="audio_index">0</property>
  <property name="video_index">-1</property>
  <property name="mute_on_pause">1</property>
  <property name="mlt_service">avformat-novalidate</property>
  <property name="meta.media.nb_streams">1</property>
  <property name="meta.media.0.stream.type">audio</property>
  <property name="meta.media.0.codec.sample_fmt">s16p</property>
  <property name="meta.media.0.codec.sample_rate">44100</property>
  <property name="meta.media.0.codec.channels">2</property>
  <property name="meta.media.0.codec.name">mp3</property>
  <property name="meta.media.0.codec.long_name">MP3 (MPEG audio layer 3)</property>
  <property name="meta.media.0.codec.bit_rate">128000</property>
  <property name="meta.attr.0.stream.encoder.markup">LAME3.99r</property>
  <property name="meta.attr.track.markup">1</property>
  <property name="meta.attr.title.markup">1</property>
  <property name="seekable">1</property>
  <property name="kdenlive:file_size">254582</property>
  <property name="kdenlive:file_hash">6cd94488272f4f76b933ec5690e9ecc1</property>
  <property name="global_feed">1</property>
 </producer>
 <producer out="142" id="54" in="0" title="Anonymous Submission">
  <property name="mlt_type">mlt_producer</property>
  <property name="length">00:00:04:23</property>
  <property name="eof">pause</property>
  <property name="resource">projects/UstimenkoAlexander/wp-testing/wp-testing/tools/intro-video/mp3/11-a-02.mp3</property>
  <property name="audio_index">0</property>
  <property name="video_index">-1</property>
  <property name="mute_on_pause">1</property>
  <property name="mlt_service">avformat-novalidate</property>
  <property name="meta.media.nb_streams">1</property>
  <property name="meta.media.0.stream.type">audio</property>
  <property name="meta.media.0.codec.sample_fmt">s16p</property>
  <property name="meta.media.0.codec.sample_rate">44100</property>
  <property name="meta.media.0.codec.channels">2</property>
  <property name="meta.media.0.codec.name">mp3</property>
  <property name="meta.media.0.codec.long_name">MP3 (MPEG audio layer 3)</property>
  <property name="meta.media.0.codec.bit_rate">128000</property>
  <property name="meta.attr.0.stream.encoder.markup">LAME3.99r</property>
  <property name="meta.attr.track.markup">2</property>
  <property name="meta.attr.title.markup">2</property>
  <property name="seekable">1</property>
  <property name="kdenlive:file_size">76949</property>
  <property name="kdenlive:file_hash">8259501805d7652112de4d2c11de3703</property>
  <property name="global_feed">1</property>
 </producer>
 <producer out="225" id="55" in="0" title="Anonymous Submission">
  <property name="mlt_type">mlt_producer</property>
  <property name="length">00:00:07:16</property>
  <property name="eof">pause</property>
  <property name="resource">projects/UstimenkoAlexander/wp-testing/wp-testing/tools/intro-video/mp3/11-a-03.mp3</property>
  <property name="audio_index">0</property>
  <property name="video_index">-1</property>
  <property name="mute_on_pause">1</property>
  <property name="mlt_service">avformat-novalidate</property>
  <property name="meta.media.nb_streams">1</property>
  <property name="meta.media.0.stream.type">audio</property>
  <property name="meta.media.0.codec.sample_fmt">s16p</property>
  <property name="meta.media.0.codec.sample_rate">44100</property>
  <property name="meta.media.0.codec.channels">2</property>
  <property name="meta.media.0.codec.name">mp3</property>
  <property name="meta.media.0.codec.long_name">MP3 (MPEG audio layer 3)</property>
  <property name="meta.media.0.codec.bit_rate">128000</property>
  <property name="meta.attr.0.stream.encoder.markup">LAME3.99r</property>
  <property name="meta.attr.track.markup">3</property>
  <property name="meta.attr.title.markup">3</property>
  <property name="seekable">1</property>
  <property name="kdenlive:file_size">121253</property>
  <property name="kdenlive:file_hash">cecf06099b4d584e9d3132483195a288</property>
  <property name="global_feed">1</property>
 </producer>
 <producer out="81" id="56" in="0" title="Anonymous Submission">
  <property name="mlt_type">mlt_producer</property>
  <property name="length">00:00:02:22</property>
  <property name="eof">pause</property>
  <property name="resource">projects/UstimenkoAlexander/wp-testing/wp-testing/tools/intro-video/mp3/11-a-04.mp3</property>
  <property name="audio_index">0</property>
  <property name="video_index">-1</property>
  <property name="mute_on_pause">1</property>
  <property name="mlt_service">avformat-novalidate</property>
  <property name="meta.media.nb_streams">1</property>
  <property name="meta.media.0.stream.type">audio</property>
  <property name="meta.media.0.codec.sample_fmt">s16p</property>
  <property name="meta.media.0.codec.sample_rate">44100</property>
  <property name="meta.media.0.codec.channels">2</property>
  <property name="meta.media.0.codec.name">mp3</property>
  <property name="meta.media.0.codec.long_name">MP3 (MPEG audio layer 3)</property>
  <property name="meta.media.0.codec.bit_rate">128000</property>
  <property name="meta.attr.0.stream.encoder.markup">LAME3.99r</property>
  <property name="meta.attr.track.markup">4</property>
  <property name="meta.attr.title.markup">4</property>
  <property name="seekable">1</property>
  <property name="kdenlive:file_size">44348</property>
  <property name="kdenlive:file_hash">b64bd49a4e6e1273f017030fdad37da5</property>
  <property name="global_feed">1</property>
 </producer>
 <producer out="153" id="57" in="0" title="Anonymous Submission">
  <property name="mlt_type">mlt_producer</property>
  <property name="length">00:00:05:04</property>
  <property name="eof">pause</property>
  <property name="resource">projects/UstimenkoAlexander/wp-testing/wp-testing/tools/intro-video/mp3/12-c.mp3</property>
  <property name="audio_index">0</property>
  <property name="video_index">-1</property>
  <property name="mute_on_pause">1</property>
  <property name="mlt_service">avformat-novalidate</property>
  <property name="meta.media.nb_streams">1</property>
  <property name="meta.media.0.stream.type">audio</property>
  <property name="meta.media.0.codec.sample_fmt">s16p</property>
  <property name="meta.media.0.codec.sample_rate">44100</property>
  <property name="meta.media.0.codec.channels">2</property>
  <property name="meta.media.0.codec.name">mp3</property>
  <property name="meta.media.0.codec.long_name">MP3 (MPEG audio layer 3)</property>
  <property name="meta.media.0.codec.bit_rate">128000</property>
  <property name="meta.attr.0.stream.encoder.markup">LAME3.99r</property>
  <property name="seekable">1</property>
  <property name="kdenlive:file_size">82754</property>
  <property name="kdenlive:file_hash">c070abab23f054213a3a2f738e9d7edd</property>
  <property name="global_feed">1</property>
 </producer>
 <producer out="200" id="58" in="0" title="Anonymous Submission">
  <property name="mlt_type">mlt_producer</property>
  <property name="length">00:00:06:21</property>
  <property name="eof">pause</property>
  <property name="resource">projects/UstimenkoAlexander/wp-testing/wp-testing/tools/intro-video/mp3/12-a-01.mp3</property>
  <property name="audio_index">0</property>
  <property name="video_index">-1</property>
  <property name="mute_on_pause">1</property>
  <property name="mlt_service">avformat-novalidate</property>
  <property name="meta.media.nb_streams">1</property>
  <property name="meta.media.0.stream.type">audio</property>
  <property name="meta.media.0.codec.sample_fmt">s16p</property>
  <property name="meta.media.0.codec.sample_rate">44100</property>
  <property name="meta.media.0.codec.channels">2</property>
  <property name="meta.media.0.codec.name">mp3</property>
  <property name="meta.media.0.codec.long_name">MP3 (MPEG audio layer 3)</property>
  <property name="meta.media.0.codec.bit_rate">128000</property>
  <property name="meta.attr.0.stream.encoder.markup">LAME3.99r</property>
  <property name="meta.attr.track.markup">1</property>
  <property name="meta.attr.title.markup">1</property>
  <property name="seekable">1</property>
  <property name="kdenlive:file_size">107460</property>
  <property name="kdenlive:file_hash">31b73205d955dc90eafe588a0ab97ccb</property>
  <property name="global_feed">1</property>
 </producer>
 <producer out="490" id="59" in="0" title="Anonymous Submission">
  <property name="mlt_type">mlt_producer</property>
  <property name="length">00:00:16:11</property>
  <property name="eof">pause</property>
  <property name="resource">projects/UstimenkoAlexander/wp-testing/wp-testing/tools/intro-video/mp3/12-a-02.mp3</property>
  <property name="audio_index">0</property>
  <property name="video_index">-1</property>
  <property name="mute_on_pause">1</property>
  <property name="mlt_service">avformat-novalidate</property>
  <property name="meta.media.nb_streams">1</property>
  <property name="meta.media.0.stream.type">audio</property>
  <property name="meta.media.0.codec.sample_fmt">s16p</property>
  <property name="meta.media.0.codec.sample_rate">44100</property>
  <property name="meta.media.0.codec.channels">2</property>
  <property name="meta.media.0.codec.name">mp3</property>
  <property name="meta.media.0.codec.long_name">MP3 (MPEG audio layer 3)</property>
  <property name="meta.media.0.codec.bit_rate">128000</property>
  <property name="meta.attr.0.stream.encoder.markup">LAME3.99r</property>
  <property name="meta.attr.track.markup">2</property>
  <property name="meta.attr.title.markup">2</property>
  <property name="seekable">1</property>
  <property name="kdenlive:file_size">262105</property>
  <property name="kdenlive:file_hash">74f8da2a5259b72c9987e68dff385531</property>
  <property name="global_feed">1</property>
 </producer>
 <producer out="105" id="60" in="0" title="Anonymous Submission">
  <property name="mlt_type">mlt_producer</property>
  <property name="length">00:00:03:16</property>
  <property name="eof">pause</property>
  <property name="resource">projects/UstimenkoAlexander/wp-testing/wp-testing/tools/intro-video/mp3/12-a-03.mp3</property>
  <property name="audio_index">0</property>
  <property name="video_index">-1</property>
  <property name="mute_on_pause">1</property>
  <property name="mlt_service">avformat-novalidate</property>
  <property name="meta.media.nb_streams">1</property>
  <property name="meta.media.0.stream.type">audio</property>
  <property name="meta.media.0.codec.sample_fmt">s16p</property>
  <property name="meta.media.0.codec.sample_rate">44100</property>
  <property name="meta.media.0.codec.channels">2</property>
  <property name="meta.media.0.codec.name">mp3</property>
  <property name="meta.media.0.codec.long_name">MP3 (MPEG audio layer 3)</property>
  <property name="meta.media.0.codec.bit_rate">128000</property>
  <property name="meta.attr.0.stream.encoder.markup">LAME3.99r</property>
  <property name="meta.attr.track.markup">3</property>
  <property name="meta.attr.title.markup">4</property>
  <property name="seekable">1</property>
  <property name="kdenlive:file_size">56887</property>
  <property name="kdenlive:file_hash">5cfc7d7cc32df80026d26ce16abe8405</property>
  <property name="global_feed">1</property>
 </producer>
 <producer out="31" id="61" in="0" title="Anonymous Submission">
  <property name="mlt_type">mlt_producer</property>
  <property name="length">00:00:01:02</property>
  <property name="eof">pause</property>
  <property name="resource">projects/UstimenkoAlexander/wp-testing/wp-testing/tools/intro-video/mp3/12-a-04.mp3</property>
  <property name="audio_index">0</property>
  <property name="video_index">-1</property>
  <property name="mute_on_pause">1</property>
  <property name="mlt_service">avformat-novalidate</property>
  <property name="meta.media.nb_streams">1</property>
  <property name="meta.media.0.stream.type">audio</property>
  <property name="meta.media.0.codec.sample_fmt">s16p</property>
  <property name="meta.media.0.codec.sample_rate">44100</property>
  <property name="meta.media.0.codec.channels">2</property>
  <property name="meta.media.0.codec.name">mp3</property>
  <property name="meta.media.0.codec.long_name">MP3 (MPEG audio layer 3)</property>
  <property name="meta.media.0.codec.bit_rate">128000</property>
  <property name="meta.attr.0.stream.encoder.markup">LAME3.99r</property>
  <property name="meta.attr.track.markup">4</property>
  <property name="meta.attr.title.markup">5</property>
  <property name="seekable">1</property>
  <property name="kdenlive:file_size">17599</property>
  <property name="kdenlive:file_hash">b44a8669f68c34d0955aacbbbab993e5</property>
  <property name="global_feed">1</property>
 </producer>
 <producer out="1707" id="62" in="0" title="Anonymous Submission">
  <property name="mlt_type">mlt_producer</property>
  <property name="length">00:00:56:28</property>
  <property name="eof">pause</property>
  <property name="resource">projects/UstimenkoAlexander/wp-testing/wp-testing/tools/intro-video/mkv/12.mkv</property>
  <property name="audio_index">-1</property>
  <property name="video_index">0</property>
  <property name="mute_on_pause">1</property>
  <property name="mlt_service">avformat-novalidate</property>
  <property name="meta.media.nb_streams">1</property>
  <property name="meta.media.0.stream.type">video</property>
  <property name="meta.media.0.stream.frame_rate">15</property>
  <property name="meta.media.0.stream.sample_aspect_ratio">1</property>
  <property name="meta.media.0.codec.width">1616</property>
  <property name="meta.media.0.codec.height">1024</property>
  <property name="meta.media.0.codec.frame_rate">15</property>
  <property name="meta.media.0.codec.pix_fmt">yuv420p</property>
  <property name="meta.media.0.codec.sample_aspect_ratio">1</property>
  <property name="meta.media.0.codec.colorspace">709</property>
  <property name="meta.media.0.codec.name">theora</property>
  <property name="meta.media.0.codec.long_name">Theora</property>
  <property name="meta.media.0.codec.bit_rate">0</property>
  <property name="meta.attr.0.stream.RECORDMYDESKTOP.markup">0.3.8.1</property>
  <property name="meta.attr.ENCODER.markup">Lavf56.36.100</property>
  <property name="seekable">1</property>
  <property name="meta.media.sample_aspect_num">1</property>
  <property name="meta.media.sample_aspect_den">1</property>
  <property name="aspect_ratio">1</property>
  <property name="meta.media.frame_rate_num">15</property>
  <property name="meta.media.frame_rate_den">1</property>
  <property name="meta.media.colorspace">709</property>
  <property name="meta.media.color_trc">2</property>
  <property name="meta.media.width">1616</property>
  <property name="meta.media.height">1024</property>
  <property name="meta.media.top_field_first">0</property>
  <property name="meta.media.progressive">1</property>
  <property name="kdenlive:file_size">3824166</property>
  <property name="kdenlive:file_hash">9714b71dd4ed177ececb2e4da358cbec</property>
  <property name="global_feed">1</property>
 </producer>
 <producer out="805" id="63" in="0">
  <property name="mlt_type">producer</property>
  <property name="length">00:00:26:26</property>
  <property name="eof">pause</property>
  <property name="resource">projects/UstimenkoAlexander/wp-testing/wp-testing/tools/intro-video/mkv/13.mkv</property>
  <property name="audio_index">-1</property>
  <property name="video_index">0</property>
  <property name="mute_on_pause">1</property>
  <property name="mlt_service">avformat-novalidate</property>
  <property name="meta.media.nb_streams">1</property>
  <property name="meta.media.0.stream.type">video</property>
  <property name="meta.media.0.stream.frame_rate">15</property>
  <property name="meta.media.0.stream.sample_aspect_ratio">1</property>
  <property name="meta.media.0.codec.width">1616</property>
  <property name="meta.media.0.codec.height">1024</property>
  <property name="meta.media.0.codec.frame_rate">15</property>
  <property name="meta.media.0.codec.pix_fmt">yuv420p</property>
  <property name="meta.media.0.codec.sample_aspect_ratio">1</property>
  <property name="meta.media.0.codec.colorspace">709</property>
  <property name="meta.media.0.codec.name">theora</property>
  <property name="meta.media.0.codec.long_name">Theora</property>
  <property name="meta.media.0.codec.bit_rate">0</property>
  <property name="meta.attr.0.stream.RECORDMYDESKTOP.markup">0.3.8.1</property>
  <property name="meta.attr.ENCODER.markup">Lavf56.36.100</property>
  <property name="seekable">1</property>
  <property name="meta.media.sample_aspect_num">1</property>
  <property name="meta.media.sample_aspect_den">1</property>
  <property name="aspect_ratio">1</property>
  <property name="meta.media.frame_rate_num">15</property>
  <property name="meta.media.frame_rate_den">1</property>
  <property name="meta.media.colorspace">709</property>
  <property name="meta.media.color_trc">2</property>
  <property name="meta.media.width">1616</property>
  <property name="meta.media.height">1024</property>
  <property name="meta.media.top_field_first">0</property>
  <property name="meta.media.progressive">1</property>
  <property name="kdenlive:file_size">1886105</property>
  <property name="kdenlive:file_hash">fac558b231c32d715f5dfe175e9fdbd8</property>
 </producer>
 <producer out="378" id="64" in="0" title="Anonymous Submission">
  <property name="mlt_type">mlt_producer</property>
  <property name="length">00:00:12:19</property>
  <property name="eof">pause</property>
  <property name="resource">projects/UstimenkoAlexander/wp-testing/wp-testing/tools/intro-video/mp3/13-a.mp3</property>
  <property name="audio_index">0</property>
  <property name="video_index">-1</property>
  <property name="mute_on_pause">1</property>
  <property name="mlt_service">avformat-novalidate</property>
  <property name="meta.media.nb_streams">1</property>
  <property name="meta.media.0.stream.type">audio</property>
  <property name="meta.media.0.codec.sample_fmt">s16p</property>
  <property name="meta.media.0.codec.sample_rate">44100</property>
  <property name="meta.media.0.codec.channels">2</property>
  <property name="meta.media.0.codec.name">mp3</property>
  <property name="meta.media.0.codec.long_name">MP3 (MPEG audio layer 3)</property>
  <property name="meta.media.0.codec.bit_rate">128000</property>
  <property name="meta.attr.0.stream.encoder.markup">LAME3.99r</property>
  <property name="seekable">1</property>
  <property name="kdenlive:file_size">202709</property>
  <property name="kdenlive:file_hash">c331b70e4745075db5da79091629debb</property>
  <property name="global_feed">1</property>
 </producer>
 <producer out="224" id="65" in="0" title="Anonymous Submission">
  <property name="mlt_type">mlt_producer</property>
  <property name="length">00:00:07:15</property>
  <property name="eof">pause</property>
  <property name="resource">projects/UstimenkoAlexander/wp-testing/wp-testing/tools/intro-video/mp3/13-c.mp3</property>
  <property name="audio_index">0</property>
  <property name="video_index">-1</property>
  <property name="mute_on_pause">1</property>
  <property name="mlt_service">avformat-novalidate</property>
  <property name="meta.media.nb_streams">1</property>
  <property name="meta.media.0.stream.type">audio</property>
  <property name="meta.media.0.codec.sample_fmt">s16p</property>
  <property name="meta.media.0.codec.sample_rate">44100</property>
  <property name="meta.media.0.codec.channels">2</property>
  <property name="meta.media.0.codec.name">mp3</property>
  <property name="meta.media.0.codec.long_name">MP3 (MPEG audio layer 3)</property>
  <property name="meta.media.0.codec.bit_rate">128000</property>
  <property name="meta.attr.0.stream.encoder.markup">LAME3.99r</property>
  <property name="meta.attr.track.markup">1</property>
  <property name="meta.attr.title.markup">1</property>
  <property name="seekable">1</property>
  <property name="kdenlive:file_size">120417</property>
  <property name="kdenlive:file_hash">f2080ed96da4ecdef95d2a36c4f2ed07</property>
  <property name="global_feed">1</property>
 </producer>
 <producer out="107" id="66" in="0" title="Anonymous Submission">
  <property name="mlt_type">mlt_producer</property>
  <property name="length">00:00:03:18</property>
  <property name="eof">pause</property>
  <property name="resource">projects/UstimenkoAlexander/wp-testing/wp-testing/tools/intro-video/mp3/13-f.mp3</property>
  <property name="audio_index">0</property>
  <property name="video_index">-1</property>
  <property name="mute_on_pause">1</property>
  <property name="mlt_service">avformat-novalidate</property>
  <property name="meta.media.nb_streams">1</property>
  <property name="meta.media.0.stream.type">audio</property>
  <property name="meta.media.0.codec.sample_fmt">s16p</property>
  <property name="meta.media.0.codec.sample_rate">44100</property>
  <property name="meta.media.0.codec.channels">2</property>
  <property name="meta.media.0.codec.name">mp3</property>
  <property name="meta.media.0.codec.long_name">MP3 (MPEG audio layer 3)</property>
  <property name="meta.media.0.codec.bit_rate">128000</property>
  <property name="meta.attr.0.stream.encoder.markup">LAME3.99r</property>
  <property name="seekable">1</property>
  <property name="kdenlive:file_size">58095</property>
  <property name="kdenlive:file_hash">b81845c49e856dc62ef5f3d8b526125d</property>
  <property name="global_feed">1</property>
 </producer>
 <producer out="1147" id="67" in="0" title="Anonymous Submission">
  <property name="mlt_type">mlt_producer</property>
  <property name="length">00:00:38:08</property>
  <property name="eof">pause</property>
  <property name="resource">projects/UstimenkoAlexander/wp-testing/wp-testing/tools/intro-video/mp3/14.mp3</property>
  <property name="audio_index">0</property>
  <property name="video_index">-1</property>
  <property name="mute_on_pause">1</property>
  <property name="mlt_service">avformat-novalidate</property>
  <property name="meta.media.nb_streams">1</property>
  <property name="meta.media.0.stream.type">audio</property>
  <property name="meta.media.0.codec.sample_fmt">s16p</property>
  <property name="meta.media.0.codec.sample_rate">44100</property>
  <property name="meta.media.0.codec.channels">2</property>
  <property name="meta.media.0.codec.name">mp3</property>
  <property name="meta.media.0.codec.long_name">MP3 (MPEG audio layer 3)</property>
  <property name="meta.media.0.codec.bit_rate">128000</property>
  <property name="meta.attr.0.stream.encoder.markup">LAME3.99r</property>
  <property name="seekable">1</property>
  <property name="kdenlive:file_size">612727</property>
  <property name="kdenlive:file_hash">45bc5eb20e0128ec2b8dc7e65c6e570c</property>
  <property name="global_feed">1</property>
 </producer>
 <producer out="12021" id="69" in="0" title="Anonymous Submission">
  <property name="mlt_type">mlt_producer</property>
  <property name="length">00:06:40:22</property>
  <property name="eof">pause</property>
  <property name="resource">projects/UstimenkoAlexander/wp-testing/wp-testing/tools/intro-video/mp3/05_Roland TR 707 Beat 115 bpm.mp3</property>
  <property name="audio_index">0</property>
  <property name="video_index">-1</property>
  <property name="mute_on_pause">1</property>
  <property name="mlt_service">avformat-novalidate</property>
  <property name="meta.media.nb_streams">1</property>
  <property name="meta.media.0.stream.type">audio</property>
  <property name="meta.media.0.codec.sample_fmt">s16p</property>
  <property name="meta.media.0.codec.sample_rate">44100</property>
  <property name="meta.media.0.codec.channels">2</property>
  <property name="meta.media.0.codec.name">mp3</property>
  <property name="meta.media.0.codec.long_name">MP3 (MPEG audio layer 3)</property>
  <property name="meta.media.0.codec.bit_rate">192000</property>
  <property name="meta.attr.0.stream.encoder.markup">LAME3.99r</property>
  <property name="meta.attr.track.markup">1</property>
  <property name="meta.attr.title.markup">1</property>
  <property name="seekable">1</property>
  <property name="kdenlive:file_size">9618539</property>
  <property name="kdenlive:file_hash">b90b648c7057c29ef96ac4f4e6734e9a</property>
  <property name="global_feed">1</property>
 </producer>
 <producer out="7611" id="70" in="0" title="Anonymous Submission">
  <property name="mlt_type">mlt_producer</property>
  <property name="length">00:04:13:22</property>
  <property name="eof">pause</property>
  <property name="resource">projects/UstimenkoAlexander/wp-testing/wp-testing/tools/intro-video/background/Drop-2-funky-lounge-pop-song.wav</property>
  <property name="audio_index">0</property>
  <property name="video_index">-1</property>
  <property name="mute_on_pause">1</property>
  <property name="mlt_service">avformat-novalidate</property>
  <property name="meta.media.nb_streams">1</property>
  <property name="meta.media.0.stream.type">audio</property>
  <property name="meta.media.0.codec.sample_fmt">s16</property>
  <property name="meta.media.0.codec.sample_rate">44100</property>
  <property name="meta.media.0.codec.channels">2</property>
  <property name="meta.media.0.codec.name">pcm_s16le</property>
  <property name="meta.media.0.codec.long_name">PCM signed 16-bit little-endian</property>
  <property name="meta.media.0.codec.bit_rate">1411200</property>
  <property name="seekable">1</property>
  <property name="kdenlive:file_size">44765392</property>
  <property name="kdenlive:file_hash">2cb89268180f2606da0998e5ab37eb8e</property>
  <property name="global_feed">1</property>
 </producer>
 <producer out="12000" id="72" in="0" title="Anonymous Submission">
  <property name="mlt_type">mlt_producer</property>
  <property name="length">00:06:40:01</property>
  <property name="eof">pause</property>
  <property name="resource">projects/UstimenkoAlexander/wp-testing/wp-testing/tools/intro-video/mp3/Jazzistic-music-loop-120-bpm.mp3</property>
  <property name="audio_index">0</property>
  <property name="video_index">-1</property>
  <property name="mute_on_pause">1</property>
  <property name="mlt_service">avformat-novalidate</property>
  <property name="meta.media.nb_streams">1</property>
  <property name="meta.media.0.stream.type">audio</property>
  <property name="meta.media.0.codec.sample_fmt">s16p</property>
  <property name="meta.media.0.codec.sample_rate">44100</property>
  <property name="meta.media.0.codec.channels">2</property>
  <property name="meta.media.0.codec.name">mp3</property>
  <property name="meta.media.0.codec.long_name">MP3 (MPEG audio layer 3)</property>
  <property name="meta.media.0.codec.bit_rate">192000</property>
  <property name="meta.attr.0.stream.encoder.markup">LAME3.99r</property>
  <property name="meta.attr.track.markup">1</property>
  <property name="meta.attr.title.markup">1</property>
  <property name="seekable">1</property>
  <property name="kdenlive:file_size">9601612</property>
  <property name="kdenlive:file_hash">a9053f224a4bcb215eb1e38b190172c2</property>
  <property name="global_feed">1</property>
 </producer>
 <playlist id="main bin" kdenlive:customeffects="&lt;customeffects/>&#xa;">
  <property name="kdenlive:customeffects">&lt;customeffects/>
</property>
  <property name="kdenlive:docproperties.documentid">1446664988374</property>
  <property name="kdenlive:docproperties.enableproxy">0</property>
  <property name="kdenlive:docproperties.generateimageproxy">0</property>
  <property name="kdenlive:docproperties.generateproxy">0</property>
  <property name="kdenlive:docproperties.kdenliveversion">15.08.0</property>
  <property name="kdenlive:docproperties.position">11661</property>
  <property name="kdenlive:docproperties.profile">atsc_720p_30</property>
  <property name="kdenlive:docproperties.projectfolder">projects/UstimenkoAlexander/wp-testing/wp-testing/tools/intro-video</property>
  <property name="kdenlive:docproperties.proxyextension">ts</property>
  <property name="kdenlive:docproperties.proxyimageminsize">2000</property>
  <property name="kdenlive:docproperties.proxyminsize">1000</property>
  <property name="kdenlive:docproperties.proxyparams">-f mpegts -acodec libmp3lame -ac 2 -ab 128k -vcodec mpeg2video -g 5 -s 640x480 -qscale 7</property>
  <property name="kdenlive:docproperties.version">0.91</property>
  <property name="kdenlive:docproperties.verticalzoom">1</property>
  <property name="kdenlive:docproperties.zonein">1700</property>
  <property name="kdenlive:docproperties.zoneout">2006</property>
  <property name="kdenlive:docproperties.zoom">6</property>
  <property name="kdenlive:documentnotes"/>
  <property name="kdenlive:clipgroups">&lt;groups/>
</property>
  <property name="kdenlive:docproperties.expandedfolders"/>
  <property name="kdenlive:docproperties.renderaudiobitrate">192</property>
  <property name="kdenlive:docproperties.renderbitrate">25</property>
  <property name="kdenlive:docproperties.rendercategory">MP4</property>
  <property name="kdenlive:docproperties.renderdestination"/>
  <property name="kdenlive:docproperties.renderendguide">-1</property>
  <property name="kdenlive:docproperties.renderexportaudio">0</property>
  <property name="kdenlive:docproperties.renderguide">0</property>
  <property name="kdenlive:docproperties.renderplay">0</property>
  <property name="kdenlive:docproperties.renderprofile">H.264/AAC High Profile</property>
  <property name="kdenlive:docproperties.renderratio">1</property>
  <property name="kdenlive:docproperties.renderrescale">0</property>
  <property name="kdenlive:docproperties.renderrescaleheight">180</property>
  <property name="kdenlive:docproperties.renderrescalewidth">320</property>
  <property name="kdenlive:docproperties.renderscanning">0</property>
  <property name="kdenlive:docproperties.renderstartguide">-1</property>
  <property name="kdenlive:docproperties.rendertcoverlay">0</property>
  <property name="kdenlive:docproperties.rendertctype">0</property>
  <property name="kdenlive:docproperties.rendertwopass">0</property>
  <property name="kdenlive:docproperties.renderurl">projects/UstimenkoAlexander/wp-testing/wp-testing/tools/intro-video/Wp-testing-Intro.mp4</property>
  <property name="kdenlive:docproperties.renderzone">0</property>
  <property name="xml_retain">1</property>
  <entry out="332" producer="1" in="0"/>
  <entry out="707" producer="2" in="0"/>
  <entry out="149" producer="3" in="0"/>
  <entry out="58" producer="4" in="0"/>
  <entry out="117" producer="5" in="0"/>
  <entry out="128" producer="6" in="0"/>
  <entry out="703" producer="7" in="0"/>
  <entry out="6625" producer="8" in="0"/>
  <entry out="97" producer="9" in="0"/>
  <entry out="60" producer="10" in="0"/>
  <entry out="50" producer="11" in="0"/>
  <entry out="91" producer="12" in="0"/>
  <entry out="167" producer="13" in="0"/>
  <entry out="195" producer="14" in="0"/>
  <entry out="84" producer="15" in="0"/>
  <entry out="242" producer="16" in="0"/>
  <entry out="159" producer="17" in="0"/>
  <entry out="65" producer="18" in="0"/>
  <entry out="225" producer="19" in="0"/>
  <entry out="86" producer="20" in="0"/>
  <entry out="121" producer="21" in="0"/>
  <entry out="149" producer="22" in="0"/>
  <entry out="397" producer="23" in="0"/>
  <entry out="112" producer="25" in="0"/>
  <entry out="731" producer="27" in="0"/>
  <entry out="341" producer="26" in="0"/>
  <entry out="1535" producer="28" in="0"/>
  <entry out="163" producer="29" in="0"/>
  <entry out="44" producer="30" in="0"/>
  <entry out="140" producer="31" in="0"/>
  <entry out="120" producer="32" in="0"/>
  <entry out="140" producer="33" in="0"/>
  <entry out="120" producer="34" in="0"/>
  <entry out="67" producer="35" in="0"/>
  <entry out="156" producer="36" in="0"/>
  <entry out="110" producer="37" in="0"/>
  <entry out="1307" producer="38" in="0"/>
  <entry out="2067" producer="39" in="0"/>
  <entry out="67" producer="40" in="0"/>
  <entry out="93" producer="41" in="0"/>
  <entry out="117" producer="42" in="0"/>
  <entry out="78" producer="43" in="0"/>
  <entry out="70" producer="44" in="0"/>
  <entry out="147" producer="45" in="0"/>
  <entry out="62" producer="46" in="0"/>
  <entry out="140" producer="47" in="0"/>
  <entry out="120" producer="48" in="0"/>
  <entry out="182" producer="49" in="0"/>
  <entry out="95" producer="50" in="0"/>
  <entry out="1463" producer="51" in="0"/>
  <entry out="1429" producer="52" in="0"/>
  <entry out="475" producer="53" in="0"/>
  <entry out="142" producer="54" in="0"/>
  <entry out="225" producer="55" in="0"/>
  <entry out="81" producer="56" in="0"/>
  <entry out="153" producer="57" in="0"/>
  <entry out="200" producer="58" in="0"/>
  <entry out="490" producer="59" in="0"/>
  <entry out="105" producer="60" in="0"/>
  <entry out="31" producer="61" in="0"/>
  <entry out="1707" producer="62" in="0"/>
  <entry out="805" producer="63" in="0"/>
  <entry out="378" producer="64" in="0"/>
  <entry out="224" producer="65" in="0"/>
  <entry out="107" producer="66" in="0"/>
  <entry out="1147" producer="67" in="0"/>
  <entry out="12021" producer="69" in="0"/>
  <entry out="7611" producer="70" in="0"/>
  <entry out="12000" producer="72" in="0"/>
 </playlist>
 <producer out="23729" id="black" in="0">
  <property name="mlt_type">producer</property>
  <property name="length">23730</property>
  <property name="eof">pause</property>
  <property name="resource">black</property>
  <property name="aspect_ratio">0</property>
  <property name="mlt_service">colour</property>
 </producer>
 <playlist id="black_track">
  <entry out="11860" producer="black" in="0"/>
 </playlist>
 <producer out="332" id="1_playlist0" in="0" title="Anonymous Submission">
  <property name="mlt_type">producer</property>
  <property name="length">00:00:11:03</property>
  <property name="eof">pause</property>
  <property name="resource">projects/UstimenkoAlexander/wp-testing/wp-testing/tools/intro-video/mp3/01.mp3</property>
  <property name="audio_index">0</property>
  <property name="video_index">-1</property>
  <property name="mute_on_pause">1</property>
  <property name="mlt_service">avformat-novalidate</property>
  <property name="seekable">1</property>
  <property name="kdenlive:file_size">178049</property>
  <property name="kdenlive:file_hash">bd6e3c02773e484b272693995512e9a8</property>
  <property name="global_feed">1</property>
  <property name="xml">was here</property>
  <property name="meta.media.nb_streams">1</property>
  <property name="meta.media.0.stream.type">audio</property>
  <property name="meta.media.0.codec.sample_fmt">s16p</property>
  <property name="meta.media.0.codec.sample_rate">44100</property>
  <property name="meta.media.0.codec.channels">2</property>
  <property name="meta.media.0.codec.name">mp3</property>
  <property name="meta.media.0.codec.long_name">MP3 (MPEG audio layer 3)</property>
  <property name="meta.media.0.codec.bit_rate">128000</property>
  <property name="meta.attr.0.stream.encoder.markup">LAME3.99r</property>
 </producer>
 <producer out="58" id="4_playlist0" in="0" title="Anonymous Submission">
  <property name="mlt_type">producer</property>
  <property name="length">00:00:01:29</property>
  <property name="eof">pause</property>
  <property name="resource">projects/UstimenkoAlexander/wp-testing/wp-testing/tools/intro-video/mp3/02-01.mp3</property>
  <property name="audio_index">0</property>
  <property name="video_index">-1</property>
  <property name="mute_on_pause">1</property>
  <property name="mlt_service">avformat-novalidate</property>
  <property name="seekable">1</property>
  <property name="kdenlive:file_size">31822</property>
  <property name="kdenlive:file_hash">1939c5615953ed27815175e57feafe46</property>
  <property name="global_feed">1</property>
  <property name="xml">was here</property>
  <property name="meta.media.nb_streams">1</property>
  <property name="meta.media.0.stream.type">audio</property>
  <property name="meta.media.0.codec.sample_fmt">s16p</property>
  <property name="meta.media.0.codec.sample_rate">44100</property>
  <property name="meta.media.0.codec.channels">2</property>
  <property name="meta.media.0.codec.name">mp3</property>
  <property name="meta.media.0.codec.long_name">MP3 (MPEG audio layer 3)</property>
  <property name="meta.media.0.codec.bit_rate">128000</property>
  <property name="meta.attr.0.stream.encoder.markup">LAME3.99r</property>
  <property name="meta.attr.track.markup">1</property>
  <property name="meta.attr.title.markup">let-s-activate</property>
 </producer>
 <producer out="117" id="5_playlist0" in="0" title="Anonymous Submission">
  <property name="mlt_type">producer</property>
  <property name="length">00:00:03:28</property>
  <property name="eof">pause</property>
  <property name="resource">projects/UstimenkoAlexander/wp-testing/wp-testing/tools/intro-video/mp3/02-02.mp3</property>
  <property name="audio_index">0</property>
  <property name="video_index">-1</property>
  <property name="mute_on_pause">1</property>
  <property name="mlt_service">avformat-novalidate</property>
  <property name="seekable">1</property>
  <property name="kdenlive:file_size">63166</property>
  <property name="kdenlive:file_hash">dd36d980819cd5dc027826ae361f187b</property>
  <property name="global_feed">1</property>
  <property name="xml">was here</property>
  <property name="meta.media.nb_streams">1</property>
  <property name="meta.media.0.stream.type">audio</property>
  <property name="meta.media.0.codec.sample_fmt">s16p</property>
  <property name="meta.media.0.codec.sample_rate">44100</property>
  <property name="meta.media.0.codec.channels">2</property>
  <property name="meta.media.0.codec.name">mp3</property>
  <property name="meta.media.0.codec.long_name">MP3 (MPEG audio layer 3)</property>
  <property name="meta.media.0.codec.bit_rate">128000</property>
  <property name="meta.attr.0.stream.encoder.markup">LAME3.99r</property>
  <property name="meta.attr.track.markup">2</property>
  <property name="meta.attr.title.markup">we-see-menu</property>
 </producer>
 <producer out="128" id="6_playlist0" in="0" title="Anonymous Submission">
  <property name="mlt_type">producer</property>
  <property name="length">00:00:04:09</property>
  <property name="eof">pause</property>
  <property name="resource">projects/UstimenkoAlexander/wp-testing/wp-testing/tools/intro-video/mp3/03.mp3</property>
  <property name="audio_index">0</property>
  <property name="video_index">-1</property>
  <property name="mute_on_pause">1</property>
  <property name="mlt_service">avformat-novalidate</property>
  <property name="seekable">1</property>
  <property name="kdenlive:file_size">68962</property>
  <property name="kdenlive:file_hash">7eee8c0249883ca260368f712a4ac1c2</property>
  <property name="global_feed">1</property>
  <property name="xml">was here</property>
  <property name="meta.media.nb_streams">1</property>
  <property name="meta.media.0.stream.type">audio</property>
  <property name="meta.media.0.codec.sample_fmt">s16p</property>
  <property name="meta.media.0.codec.sample_rate">44100</property>
  <property name="meta.media.0.codec.channels">2</property>
  <property name="meta.media.0.codec.name">mp3</property>
  <property name="meta.media.0.codec.long_name">MP3 (MPEG audio layer 3)</property>
  <property name="meta.media.0.codec.bit_rate">128000</property>
  <property name="meta.attr.0.stream.encoder.markup">LAME3.99r</property>
 </producer>
 <producer out="97" id="9_playlist1" in="0" title="Anonymous Submission">
  <property name="mlt_type">producer</property>
  <property name="length">00:00:03:08</property>
  <property name="eof">pause</property>
  <property name="resource">projects/UstimenkoAlexander/wp-testing/wp-testing/tools/intro-video/mp3/04-01.mp3</property>
  <property name="audio_index">0</property>
  <property name="video_index">-1</property>
  <property name="mute_on_pause">1</property>
  <property name="mlt_service">avformat-novalidate</property>
  <property name="seekable">1</property>
  <property name="kdenlive:file_size">52707</property>
  <property name="kdenlive:file_hash">38ea7d77bec24830d9104de839b124c4</property>
  <property name="global_feed">1</property>
  <property name="xml">was here</property>
  <property name="meta.media.nb_streams">1</property>
  <property name="meta.media.0.stream.type">audio</property>
  <property name="meta.media.0.codec.sample_fmt">s16p</property>
  <property name="meta.media.0.codec.sample_rate">44100</property>
  <property name="meta.media.0.codec.channels">2</property>
  <property name="meta.media.0.codec.name">mp3</property>
  <property name="meta.media.0.codec.long_name">MP3 (MPEG audio layer 3)</property>
  <property name="meta.media.0.codec.bit_rate">128000</property>
  <property name="meta.attr.0.stream.encoder.markup">LAME3.99r</property>
  <property name="meta.attr.track.markup">1</property>
  <property name="meta.attr.title.markup">1</property>
 </producer>
 <producer out="60" id="10_playlist1" in="0" title="Anonymous Submission">
  <property name="mlt_type">producer</property>
  <property name="length">00:00:02:01</property>
  <property name="eof">pause</property>
  <property name="resource">projects/UstimenkoAlexander/wp-testing/wp-testing/tools/intro-video/mp3/04-02.mp3</property>
  <property name="audio_index">0</property>
  <property name="video_index">-1</property>
  <property name="mute_on_pause">1</property>
  <property name="mlt_service">avformat-novalidate</property>
  <property name="seekable">1</property>
  <property name="kdenlive:file_size">33063</property>
  <property name="kdenlive:file_hash">4062144bcced45436fa7a007c6d84a04</property>
  <property name="global_feed">1</property>
  <property name="xml">was here</property>
  <property name="meta.media.nb_streams">1</property>
  <property name="meta.media.0.stream.type">audio</property>
  <property name="meta.media.0.codec.sample_fmt">s16p</property>
  <property name="meta.media.0.codec.sample_rate">44100</property>
  <property name="meta.media.0.codec.channels">2</property>
  <property name="meta.media.0.codec.name">mp3</property>
  <property name="meta.media.0.codec.long_name">MP3 (MPEG audio layer 3)</property>
  <property name="meta.media.0.codec.bit_rate">128000</property>
  <property name="meta.attr.0.stream.encoder.markup">LAME3.99r</property>
  <property name="meta.attr.track.markup">2</property>
  <property name="meta.attr.title.markup">2</property>
 </producer>
 <producer out="50" id="11_playlist1" in="0" title="Anonymous Submission">
  <property name="mlt_type">producer</property>
  <property name="length">00:00:01:21</property>
  <property name="eof">pause</property>
  <property name="resource">projects/UstimenkoAlexander/wp-testing/wp-testing/tools/intro-video/mp3/04-03.mp3</property>
  <property name="audio_index">0</property>
  <property name="video_index">-1</property>
  <property name="mute_on_pause">1</property>
  <property name="mlt_service">avformat-novalidate</property>
  <property name="seekable">1</property>
  <property name="kdenlive:file_size">27630</property>
  <property name="kdenlive:file_hash">593f765c4c68c67c4e8240c59369506a</property>
  <property name="global_feed">1</property>
  <property name="xml">was here</property>
  <property name="meta.media.nb_streams">1</property>
  <property name="meta.media.0.stream.type">audio</property>
  <property name="meta.media.0.codec.sample_fmt">s16p</property>
  <property name="meta.media.0.codec.sample_rate">44100</property>
  <property name="meta.media.0.codec.channels">2</property>
  <property name="meta.media.0.codec.name">mp3</property>
  <property name="meta.media.0.codec.long_name">MP3 (MPEG audio layer 3)</property>
  <property name="meta.media.0.codec.bit_rate">128000</property>
  <property name="meta.attr.0.stream.encoder.markup">LAME3.99r</property>
  <property name="meta.attr.track.markup">3</property>
  <property name="meta.attr.title.markup">3</property>
 </producer>
 <producer out="91" id="12_playlist0" in="0" title="Anonymous Submission">
  <property name="mlt_type">producer</property>
  <property name="length">00:00:03:02</property>
  <property name="eof">pause</property>
  <property name="resource">projects/UstimenkoAlexander/wp-testing/wp-testing/tools/intro-video/mp3/04-04.mp3</property>
  <property name="audio_index">0</property>
  <property name="video_index">-1</property>
  <property name="mute_on_pause">1</property>
  <property name="mlt_service">avformat-novalidate</property>
  <property name="seekable">1</property>
  <property name="kdenlive:file_size">49364</property>
  <property name="kdenlive:file_hash">02f0c8ac186266eb8e748338325e6598</property>
  <property name="global_feed">1</property>
  <property name="xml">was here</property>
  <property name="meta.media.nb_streams">1</property>
  <property name="meta.media.0.stream.type">audio</property>
  <property name="meta.media.0.codec.sample_fmt">s16p</property>
  <property name="meta.media.0.codec.sample_rate">44100</property>
  <property name="meta.media.0.codec.channels">2</property>
  <property name="meta.media.0.codec.name">mp3</property>
  <property name="meta.media.0.codec.long_name">MP3 (MPEG audio layer 3)</property>
  <property name="meta.media.0.codec.bit_rate">128000</property>
  <property name="meta.attr.0.stream.encoder.markup">LAME3.99r</property>
  <property name="meta.attr.track.markup">4</property>
  <property name="meta.attr.title.markup">1</property>
 </producer>
 <producer out="167" id="13_playlist0" in="0" title="Anonymous Submission">
  <property name="mlt_type">producer</property>
  <property name="length">00:00:05:18</property>
  <property name="eof">pause</property>
  <property name="resource">projects/UstimenkoAlexander/wp-testing/wp-testing/tools/intro-video/mp3/04-05.mp3</property>
  <property name="audio_index">0</property>
  <property name="video_index">-1</property>
  <property name="mute_on_pause">1</property>
  <property name="mlt_service">avformat-novalidate</property>
  <property name="seekable">1</property>
  <property name="kdenlive:file_size">89906</property>
  <property name="kdenlive:file_hash">76d499c3e1c61f5b0dbf0e2e62b242f4</property>
  <property name="global_feed">1</property>
  <property name="xml">was here</property>
  <property name="meta.media.nb_streams">1</property>
  <property name="meta.media.0.stream.type">audio</property>
  <property name="meta.media.0.codec.sample_fmt">s16p</property>
  <property name="meta.media.0.codec.sample_rate">44100</property>
  <property name="meta.media.0.codec.channels">2</property>
  <property name="meta.media.0.codec.name">mp3</property>
  <property name="meta.media.0.codec.long_name">MP3 (MPEG audio layer 3)</property>
  <property name="meta.media.0.codec.bit_rate">128000</property>
  <property name="meta.attr.0.stream.encoder.markup">LAME3.99r</property>
  <property name="meta.attr.track.markup">5</property>
  <property name="meta.attr.title.markup">2</property>
 </producer>
 <producer out="195" id="14_playlist0" in="0" title="Anonymous Submission">
  <property name="mlt_type">producer</property>
  <property name="length">00:00:06:16</property>
  <property name="eof">pause</property>
  <property name="resource">projects/UstimenkoAlexander/wp-testing/wp-testing/tools/intro-video/mp3/04-06.mp3</property>
  <property name="audio_index">0</property>
  <property name="video_index">-1</property>
  <property name="mute_on_pause">1</property>
  <property name="mlt_service">avformat-novalidate</property>
  <property name="seekable">1</property>
  <property name="kdenlive:file_size">104952</property>
  <property name="kdenlive:file_hash">042b06d23062bf430ab1fc67a2d7e916</property>
  <property name="global_feed">1</property>
  <property name="xml">was here</property>
  <property name="meta.media.nb_streams">1</property>
  <property name="meta.media.0.stream.type">audio</property>
  <property name="meta.media.0.codec.sample_fmt">s16p</property>
  <property name="meta.media.0.codec.sample_rate">44100</property>
  <property name="meta.media.0.codec.channels">2</property>
  <property name="meta.media.0.codec.name">mp3</property>
  <property name="meta.media.0.codec.long_name">MP3 (MPEG audio layer 3)</property>
  <property name="meta.media.0.codec.bit_rate">128000</property>
  <property name="meta.attr.0.stream.encoder.markup">LAME3.99r</property>
  <property name="meta.attr.track.markup">6</property>
  <property name="meta.attr.title.markup">3</property>
 </producer>
 <producer out="84" id="15_playlist0" in="0" title="Anonymous Submission">
  <property name="mlt_type">producer</property>
  <property name="length">00:00:02:25</property>
  <property name="eof">pause</property>
  <property name="resource">projects/UstimenkoAlexander/wp-testing/wp-testing/tools/intro-video/mp3/04-07.mp3</property>
  <property name="audio_index">0</property>
  <property name="video_index">-1</property>
  <property name="mute_on_pause">1</property>
  <property name="mlt_service">avformat-novalidate</property>
  <property name="seekable">1</property>
  <property name="kdenlive:file_size">45602</property>
  <property name="kdenlive:file_hash">e0a9826c88e2fe3653bc2d44004a99ff</property>
  <property name="global_feed">1</property>
  <property name="xml">was here</property>
  <property name="meta.media.nb_streams">1</property>
  <property name="meta.media.0.stream.type">audio</property>
  <property name="meta.media.0.codec.sample_fmt">s16p</property>
  <property name="meta.media.0.codec.sample_rate">44100</property>
  <property name="meta.media.0.codec.channels">2</property>
  <property name="meta.media.0.codec.name">mp3</property>
  <property name="meta.media.0.codec.long_name">MP3 (MPEG audio layer 3)</property>
  <property name="meta.media.0.codec.bit_rate">128000</property>
  <property name="meta.attr.0.stream.encoder.markup">LAME3.99r</property>
  <property name="meta.attr.track.markup">7</property>
  <property name="meta.attr.title.markup">4</property>
 </producer>
 <producer out="242" id="16_playlist0" in="0" title="Anonymous Submission">
  <property name="mlt_type">producer</property>
  <property name="length">00:00:08:03</property>
  <property name="eof">pause</property>
  <property name="resource">projects/UstimenkoAlexander/wp-testing/wp-testing/tools/intro-video/mp3/04-08.mp3</property>
  <property name="audio_index">0</property>
  <property name="video_index">-1</property>
  <property name="mute_on_pause">1</property>
  <property name="mlt_service">avformat-novalidate</property>
  <property name="seekable">1</property>
  <property name="kdenlive:file_size">130030</property>
  <property name="kdenlive:file_hash">e69fb428f3f018d0943c99ebb0ec1ca4</property>
  <property name="global_feed">1</property>
  <property name="xml">was here</property>
  <property name="meta.media.nb_streams">1</property>
  <property name="meta.media.0.stream.type">audio</property>
  <property name="meta.media.0.codec.sample_fmt">s16p</property>
  <property name="meta.media.0.codec.sample_rate">44100</property>
  <property name="meta.media.0.codec.channels">2</property>
  <property name="meta.media.0.codec.name">mp3</property>
  <property name="meta.media.0.codec.long_name">MP3 (MPEG audio layer 3)</property>
  <property name="meta.media.0.codec.bit_rate">128000</property>
  <property name="meta.attr.0.stream.encoder.markup">LAME3.99r</property>
  <property name="meta.attr.track.markup">8</property>
  <property name="meta.attr.title.markup">5</property>
 </producer>
 <producer out="159" id="17_playlist0" in="0" title="Anonymous Submission">
  <property name="mlt_type">producer</property>
  <property name="length">00:00:05:10</property>
  <property name="eof">pause</property>
  <property name="resource">projects/UstimenkoAlexander/wp-testing/wp-testing/tools/intro-video/mp3/04-09.mp3</property>
  <property name="audio_index">0</property>
  <property name="video_index">-1</property>
  <property name="mute_on_pause">1</property>
  <property name="mlt_service">avformat-novalidate</property>
  <property name="seekable">1</property>
  <property name="kdenlive:file_size">85726</property>
  <property name="kdenlive:file_hash">7718caef35699b71f7b6dd7a57874cf9</property>
  <property name="global_feed">1</property>
  <property name="xml">was here</property>
  <property name="meta.media.nb_streams">1</property>
  <property name="meta.media.0.stream.type">audio</property>
  <property name="meta.media.0.codec.sample_fmt">s16p</property>
  <property name="meta.media.0.codec.sample_rate">44100</property>
  <property name="meta.media.0.codec.channels">2</property>
  <property name="meta.media.0.codec.name">mp3</property>
  <property name="meta.media.0.codec.long_name">MP3 (MPEG audio layer 3)</property>
  <property name="meta.media.0.codec.bit_rate">128000</property>
  <property name="meta.attr.0.stream.encoder.markup">LAME3.99r</property>
  <property name="meta.attr.track.markup">9</property>
  <property name="meta.attr.title.markup">6</property>
 </producer>
 <producer out="65" id="18_playlist0" in="0" title="Anonymous Submission">
  <property name="mlt_type">producer</property>
  <property name="length">00:00:02:06</property>
  <property name="eof">pause</property>
  <property name="resource">projects/UstimenkoAlexander/wp-testing/wp-testing/tools/intro-video/mp3/04-10.mp3</property>
  <property name="audio_index">0</property>
  <property name="video_index">-1</property>
  <property name="mute_on_pause">1</property>
  <property name="mlt_service">avformat-novalidate</property>
  <property name="seekable">1</property>
  <property name="kdenlive:file_size">35572</property>
  <property name="kdenlive:file_hash">e053ca72af68f505c896fb13ed6c12b3</property>
  <property name="global_feed">1</property>
  <property name="xml">was here</property>
  <property name="meta.media.nb_streams">1</property>
  <property name="meta.media.0.stream.type">audio</property>
  <property name="meta.media.0.codec.sample_fmt">s16p</property>
  <property name="meta.media.0.codec.sample_rate">44100</property>
  <property name="meta.media.0.codec.channels">2</property>
  <property name="meta.media.0.codec.name">mp3</property>
  <property name="meta.media.0.codec.long_name">MP3 (MPEG audio layer 3)</property>
  <property name="meta.media.0.codec.bit_rate">128000</property>
  <property name="meta.attr.0.stream.encoder.markup">LAME3.99r</property>
  <property name="meta.attr.track.markup">10</property>
  <property name="meta.attr.title.markup">7</property>
 </producer>
 <producer out="225" id="19_playlist0" in="0" title="Anonymous Submission">
  <property name="mlt_type">producer</property>
  <property name="length">00:00:07:16</property>
  <property name="eof">pause</property>
  <property name="resource">projects/UstimenkoAlexander/wp-testing/wp-testing/tools/intro-video/mp3/04-11.mp3</property>
  <property name="audio_index">0</property>
  <property name="video_index">-1</property>
  <property name="mute_on_pause">1</property>
  <property name="mlt_service">avformat-novalidate</property>
  <property name="seekable">1</property>
  <property name="kdenlive:file_size">120836</property>
  <property name="kdenlive:file_hash">1c1bb1fd0bed7f9768e4403b7f4bcf74</property>
  <property name="global_feed">1</property>
  <property name="xml">was here</property>
  <property name="meta.media.nb_streams">1</property>
  <property name="meta.media.0.stream.type">audio</property>
  <property name="meta.media.0.codec.sample_fmt">s16p</property>
  <property name="meta.media.0.codec.sample_rate">44100</property>
  <property name="meta.media.0.codec.channels">2</property>
  <property name="meta.media.0.codec.name">mp3</property>
  <property name="meta.media.0.codec.long_name">MP3 (MPEG audio layer 3)</property>
  <property name="meta.media.0.codec.bit_rate">128000</property>
  <property name="meta.attr.0.stream.encoder.markup">LAME3.99r</property>
  <property name="meta.attr.track.markup">11</property>
  <property name="meta.attr.title.markup">1</property>
 </producer>
 <producer out="86" id="20_playlist0" in="0" title="Anonymous Submission">
  <property name="mlt_type">producer</property>
  <property name="length">00:00:02:27</property>
  <property name="eof">pause</property>
  <property name="resource">projects/UstimenkoAlexander/wp-testing/wp-testing/tools/intro-video/mp3/04-12.mp3</property>
  <property name="audio_index">0</property>
  <property name="video_index">-1</property>
  <property name="mute_on_pause">1</property>
  <property name="mlt_service">avformat-novalidate</property>
  <property name="seekable">1</property>
  <property name="kdenlive:file_size">46857</property>
  <property name="kdenlive:file_hash">d2e7f09855715be1d9a5c204e59fd4e5</property>
  <property name="global_feed">1</property>
  <property name="xml">was here</property>
  <property name="meta.media.nb_streams">1</property>
  <property name="meta.media.0.stream.type">audio</property>
  <property name="meta.media.0.codec.sample_fmt">s16p</property>
  <property name="meta.media.0.codec.sample_rate">44100</property>
  <property name="meta.media.0.codec.channels">2</property>
  <property name="meta.media.0.codec.name">mp3</property>
  <property name="meta.media.0.codec.long_name">MP3 (MPEG audio layer 3)</property>
  <property name="meta.media.0.codec.bit_rate">128000</property>
  <property name="meta.attr.0.stream.encoder.markup">LAME3.99r</property>
  <property name="meta.attr.track.markup">12</property>
  <property name="meta.attr.title.markup">2</property>
 </producer>
 <producer out="121" id="21_playlist0" in="0" title="Anonymous Submission">
  <property name="mlt_type">producer</property>
  <property name="length">00:00:04:02</property>
  <property name="eof">pause</property>
  <property name="resource">projects/UstimenkoAlexander/wp-testing/wp-testing/tools/intro-video/mp3/04-13.mp3</property>
  <property name="audio_index">0</property>
  <property name="video_index">-1</property>
  <property name="mute_on_pause">1</property>
  <property name="mlt_service">avformat-novalidate</property>
  <property name="seekable">1</property>
  <property name="kdenlive:file_size">65665</property>
  <property name="kdenlive:file_hash">9c0ac2f2a153d4a496fe214478bd49ae</property>
  <property name="global_feed">1</property>
  <property name="xml">was here</property>
  <property name="meta.media.nb_streams">1</property>
  <property name="meta.media.0.stream.type">audio</property>
  <property name="meta.media.0.codec.sample_fmt">s16p</property>
  <property name="meta.media.0.codec.sample_rate">44100</property>
  <property name="meta.media.0.codec.channels">2</property>
  <property name="meta.media.0.codec.name">mp3</property>
  <property name="meta.media.0.codec.long_name">MP3 (MPEG audio layer 3)</property>
  <property name="meta.media.0.codec.bit_rate">128000</property>
  <property name="meta.attr.0.stream.encoder.markup">LAME3.99r</property>
  <property name="meta.attr.track.markup">13</property>
  <property name="meta.attr.title.markup">3</property>
 </producer>
 <producer out="149" id="22_playlist0" in="0" title="Anonymous Submission">
  <property name="mlt_type">producer</property>
  <property name="length">00:00:05:00</property>
  <property name="eof">pause</property>
  <property name="resource">projects/UstimenkoAlexander/wp-testing/wp-testing/tools/intro-video/mp3/04-14.mp3</property>
  <property name="audio_index">0</property>
  <property name="video_index">-1</property>
  <property name="mute_on_pause">1</property>
  <property name="mlt_service">avformat-novalidate</property>
  <property name="seekable">1</property>
  <property name="kdenlive:file_size">80294</property>
  <property name="kdenlive:file_hash">2ca83b3da3bb31e191854cb45834f81b</property>
  <property name="global_feed">1</property>
  <property name="xml">was here</property>
  <property name="meta.media.nb_streams">1</property>
  <property name="meta.media.0.stream.type">audio</property>
  <property name="meta.media.0.codec.sample_fmt">s16p</property>
  <property name="meta.media.0.codec.sample_rate">44100</property>
  <property name="meta.media.0.codec.channels">2</property>
  <property name="meta.media.0.codec.name">mp3</property>
  <property name="meta.media.0.codec.long_name">MP3 (MPEG audio layer 3)</property>
  <property name="meta.media.0.codec.bit_rate">128000</property>
  <property name="meta.attr.0.stream.encoder.markup">LAME3.99r</property>
  <property name="meta.attr.track.markup">14</property>
  <property name="meta.attr.title.markup">4</property>
 </producer>
 <producer out="112" id="25_playlist0" in="0" title="Anonymous Submission">
  <property name="mlt_type">producer</property>
  <property name="length">00:00:03:23</property>
  <property name="eof">pause</property>
  <property name="resource">projects/UstimenkoAlexander/wp-testing/wp-testing/tools/intro-video/mp3/05-01.mp3</property>
  <property name="audio_index">0</property>
  <property name="video_index">-1</property>
  <property name="mute_on_pause">1</property>
  <property name="mlt_service">avformat-novalidate</property>
  <property name="seekable">1</property>
  <property name="kdenlive:file_size">60653</property>
  <property name="kdenlive:file_hash">1576e9d09b4c7a81146dbf6e110436a3</property>
  <property name="global_feed">1</property>
  <property name="xml">was here</property>
  <property name="meta.media.nb_streams">1</property>
  <property name="meta.media.0.stream.type">audio</property>
  <property name="meta.media.0.codec.sample_fmt">s16p</property>
  <property name="meta.media.0.codec.sample_rate">44100</property>
  <property name="meta.media.0.codec.channels">2</property>
  <property name="meta.media.0.codec.name">mp3</property>
  <property name="meta.media.0.codec.long_name">MP3 (MPEG audio layer 3)</property>
  <property name="meta.media.0.codec.bit_rate">128000</property>
  <property name="meta.attr.0.stream.encoder.markup">LAME3.99r</property>
  <property name="meta.attr.track.markup">1</property>
  <property name="meta.attr.title.markup">5-e-1</property>
 </producer>
 <producer out="341" id="26_playlist0" in="0" title="Anonymous Submission">
  <property name="mlt_type">producer</property>
  <property name="length">00:00:11:12</property>
  <property name="eof">pause</property>
  <property name="resource">projects/UstimenkoAlexander/wp-testing/wp-testing/tools/intro-video/mp3/06.mp3</property>
  <property name="audio_index">0</property>
  <property name="video_index">-1</property>
  <property name="mute_on_pause">1</property>
  <property name="mlt_service">avformat-novalidate</property>
  <property name="seekable">1</property>
  <property name="kdenlive:file_size">186826</property>
  <property name="kdenlive:file_hash">1861092116fbd860f9eb2fa2937f2983</property>
  <property name="global_feed">1</property>
  <property name="xml">was here</property>
  <property name="meta.media.nb_streams">1</property>
  <property name="meta.media.0.stream.type">audio</property>
  <property name="meta.media.0.codec.sample_fmt">s16p</property>
  <property name="meta.media.0.codec.sample_rate">44100</property>
  <property name="meta.media.0.codec.channels">2</property>
  <property name="meta.media.0.codec.name">mp3</property>
  <property name="meta.media.0.codec.long_name">MP3 (MPEG audio layer 3)</property>
  <property name="meta.media.0.codec.bit_rate">128000</property>
  <property name="meta.attr.0.stream.encoder.markup">LAME3.99r</property>
 </producer>
 <producer out="163" id="29_playlist0" in="0" title="Anonymous Submission">
  <property name="mlt_type">producer</property>
  <property name="length">00:00:05:14</property>
  <property name="eof">pause</property>
  <property name="resource">projects/UstimenkoAlexander/wp-testing/wp-testing/tools/intro-video/mp3/07-01.mp3</property>
  <property name="audio_index">0</property>
  <property name="video_index">-1</property>
  <property name="mute_on_pause">1</property>
  <property name="mlt_service">avformat-novalidate</property>
  <property name="seekable">1</property>
  <property name="kdenlive:file_size">87816</property>
  <property name="kdenlive:file_hash">94a939df862690031800fb37ce903572</property>
  <property name="global_feed">1</property>
  <property name="xml">was here</property>
  <property name="meta.media.nb_streams">1</property>
  <property name="meta.media.0.stream.type">audio</property>
  <property name="meta.media.0.codec.sample_fmt">s16p</property>
  <property name="meta.media.0.codec.sample_rate">44100</property>
  <property name="meta.media.0.codec.channels">2</property>
  <property name="meta.media.0.codec.name">mp3</property>
  <property name="meta.media.0.codec.long_name">MP3 (MPEG audio layer 3)</property>
  <property name="meta.media.0.codec.bit_rate">128000</property>
  <property name="meta.attr.0.stream.encoder.markup">LAME3.99r</property>
  <property name="meta.attr.track.markup">1</property>
  <property name="meta.attr.title.markup">1</property>
 </producer>
 <producer out="44" id="30_playlist0" in="0" title="Anonymous Submission">
  <property name="mlt_type">producer</property>
  <property name="length">00:00:01:15</property>
  <property name="eof">pause</property>
  <property name="resource">projects/UstimenkoAlexander/wp-testing/wp-testing/tools/intro-video/mp3/07-02.mp3</property>
  <property name="audio_index">0</property>
  <property name="video_index">-1</property>
  <property name="mute_on_pause">1</property>
  <property name="mlt_service">avformat-novalidate</property>
  <property name="seekable">1</property>
  <property name="kdenlive:file_size">24286</property>
  <property name="kdenlive:file_hash">69233d392d036399bc98993b0d74afb9</property>
  <property name="global_feed">1</property>
  <property name="xml">was here</property>
  <property name="meta.media.nb_streams">1</property>
  <property name="meta.media.0.stream.type">audio</property>
  <property name="meta.media.0.codec.sample_fmt">s16p</property>
  <property name="meta.media.0.codec.sample_rate">44100</property>
  <property name="meta.media.0.codec.channels">2</property>
  <property name="meta.media.0.codec.name">mp3</property>
  <property name="meta.media.0.codec.long_name">MP3 (MPEG audio layer 3)</property>
  <property name="meta.media.0.codec.bit_rate">128000</property>
  <property name="meta.attr.0.stream.encoder.markup">LAME3.99r</property>
  <property name="meta.attr.track.markup">2</property>
  <property name="meta.attr.title.markup">2</property>
 </producer>
 <producer out="120" id="32_playlist0" in="0" title="Anonymous Submission">
  <property name="mlt_type">producer</property>
  <property name="length">00:00:04:01</property>
  <property name="eof">pause</property>
  <property name="resource">projects/UstimenkoAlexander/wp-testing/wp-testing/tools/intro-video/mp3/07-04.mp3</property>
  <property name="audio_index">0</property>
  <property name="video_index">-1</property>
  <property name="mute_on_pause">1</property>
  <property name="mlt_service">avformat-novalidate</property>
  <property name="seekable">1</property>
  <property name="kdenlive:file_size">64828</property>
  <property name="kdenlive:file_hash">6f55a2dfb6808bc4c75fb20f19344b3d</property>
  <property name="global_feed">1</property>
  <property name="xml">was here</property>
  <property name="meta.media.nb_streams">1</property>
  <property name="meta.media.0.stream.type">audio</property>
  <property name="meta.media.0.codec.sample_fmt">s16p</property>
  <property name="meta.media.0.codec.sample_rate">44100</property>
  <property name="meta.media.0.codec.channels">2</property>
  <property name="meta.media.0.codec.name">mp3</property>
  <property name="meta.media.0.codec.long_name">MP3 (MPEG audio layer 3)</property>
  <property name="meta.media.0.codec.bit_rate">128000</property>
  <property name="meta.attr.0.stream.encoder.markup">LAME3.99r</property>
  <property name="meta.attr.track.markup">4</property>
  <property name="meta.attr.title.markup">4</property>
 </producer>
 <producer out="140" id="31_playlist0" in="0" title="Anonymous Submission">
  <property name="mlt_type">producer</property>
  <property name="length">00:00:04:21</property>
  <property name="eof">pause</property>
  <property name="resource">projects/UstimenkoAlexander/wp-testing/wp-testing/tools/intro-video/mp3/07-03.mp3</property>
  <property name="audio_index">0</property>
  <property name="video_index">-1</property>
  <property name="mute_on_pause">1</property>
  <property name="mlt_service">avformat-novalidate</property>
  <property name="seekable">1</property>
  <property name="kdenlive:file_size">75695</property>
  <property name="kdenlive:file_hash">ebc24e3c69be454f51da5ab6365f0f0d</property>
  <property name="global_feed">1</property>
  <property name="xml">was here</property>
  <property name="meta.media.nb_streams">1</property>
  <property name="meta.media.0.stream.type">audio</property>
  <property name="meta.media.0.codec.sample_fmt">s16p</property>
  <property name="meta.media.0.codec.sample_rate">44100</property>
  <property name="meta.media.0.codec.channels">2</property>
  <property name="meta.media.0.codec.name">mp3</property>
  <property name="meta.media.0.codec.long_name">MP3 (MPEG audio layer 3)</property>
  <property name="meta.media.0.codec.bit_rate">128000</property>
  <property name="meta.attr.0.stream.encoder.markup">LAME3.99r</property>
  <property name="meta.attr.track.markup">3</property>
  <property name="meta.attr.title.markup">3</property>
 </producer>
 <producer out="140" id="33_playlist0" in="0" title="Anonymous Submission">
  <property name="mlt_type">producer</property>
  <property name="length">00:00:04:21</property>
  <property name="eof">pause</property>
  <property name="resource">projects/UstimenkoAlexander/wp-testing/wp-testing/tools/intro-video/mp3/08-01.mp3</property>
  <property name="audio_index">0</property>
  <property name="video_index">-1</property>
  <property name="mute_on_pause">1</property>
  <property name="mlt_service">avformat-novalidate</property>
  <property name="seekable">1</property>
  <property name="kdenlive:file_size">75695</property>
  <property name="kdenlive:file_hash">e35ae7f9bfab6d831f75c18125404d64</property>
  <property name="global_feed">1</property>
  <property name="xml">was here</property>
  <property name="meta.media.nb_streams">1</property>
  <property name="meta.media.0.stream.type">audio</property>
  <property name="meta.media.0.codec.sample_fmt">s16p</property>
  <property name="meta.media.0.codec.sample_rate">44100</property>
  <property name="meta.media.0.codec.channels">2</property>
  <property name="meta.media.0.codec.name">mp3</property>
  <property name="meta.media.0.codec.long_name">MP3 (MPEG audio layer 3)</property>
  <property name="meta.media.0.codec.bit_rate">128000</property>
  <property name="meta.attr.0.stream.encoder.markup">LAME3.99r</property>
  <property name="meta.attr.track.markup">1</property>
  <property name="meta.attr.title.markup">1</property>
 </producer>
 <producer out="120" id="34_playlist0" in="0" title="Anonymous Submission">
  <property name="mlt_type">producer</property>
  <property name="length">00:00:04:01</property>
  <property name="eof">pause</property>
  <property name="resource">projects/UstimenkoAlexander/wp-testing/wp-testing/tools/intro-video/mp3/08-02.mp3</property>
  <property name="audio_index">0</property>
  <property name="video_index">-1</property>
  <property name="mute_on_pause">1</property>
  <property name="mlt_service">avformat-novalidate</property>
  <property name="seekable">1</property>
  <property name="kdenlive:file_size">65246</property>
  <property name="kdenlive:file_hash">aad67fa750d513237f7a24527af9010d</property>
  <property name="global_feed">1</property>
  <property name="xml">was here</property>
  <property name="meta.media.nb_streams">1</property>
  <property name="meta.media.0.stream.type">audio</property>
  <property name="meta.media.0.codec.sample_fmt">s16p</property>
  <property name="meta.media.0.codec.sample_rate">44100</property>
  <property name="meta.media.0.codec.channels">2</property>
  <property name="meta.media.0.codec.name">mp3</property>
  <property name="meta.media.0.codec.long_name">MP3 (MPEG audio layer 3)</property>
  <property name="meta.media.0.codec.bit_rate">128000</property>
  <property name="meta.attr.0.stream.encoder.markup">LAME3.99r</property>
  <property name="meta.attr.track.markup">2</property>
  <property name="meta.attr.title.markup">2</property>
 </producer>
 <producer out="67" id="35_playlist0" in="0" title="Anonymous Submission">
  <property name="mlt_type">producer</property>
  <property name="length">00:00:02:08</property>
  <property name="eof">pause</property>
  <property name="resource">projects/UstimenkoAlexander/wp-testing/wp-testing/tools/intro-video/mp3/08-03.mp3</property>
  <property name="audio_index">0</property>
  <property name="video_index">-1</property>
  <property name="mute_on_pause">1</property>
  <property name="mlt_service">avformat-novalidate</property>
  <property name="seekable">1</property>
  <property name="kdenlive:file_size">36825</property>
  <property name="kdenlive:file_hash">8be00f15b0f9d148af048581e39e5702</property>
  <property name="global_feed">1</property>
  <property name="xml">was here</property>
  <property name="meta.media.nb_streams">1</property>
  <property name="meta.media.0.stream.type">audio</property>
  <property name="meta.media.0.codec.sample_fmt">s16p</property>
  <property name="meta.media.0.codec.sample_rate">44100</property>
  <property name="meta.media.0.codec.channels">2</property>
  <property name="meta.media.0.codec.name">mp3</property>
  <property name="meta.media.0.codec.long_name">MP3 (MPEG audio layer 3)</property>
  <property name="meta.media.0.codec.bit_rate">128000</property>
  <property name="meta.attr.0.stream.encoder.markup">LAME3.99r</property>
  <property name="meta.attr.track.markup">3</property>
  <property name="meta.attr.title.markup">3</property>
 </producer>
 <producer out="156" id="36_playlist0" in="0" title="Anonymous Submission">
  <property name="mlt_type">producer</property>
  <property name="length">00:00:05:07</property>
  <property name="eof">pause</property>
  <property name="resource">projects/UstimenkoAlexander/wp-testing/wp-testing/tools/intro-video/mp3/08-04.mp3</property>
  <property name="audio_index">0</property>
  <property name="video_index">-1</property>
  <property name="mute_on_pause">1</property>
  <property name="mlt_service">avformat-novalidate</property>
  <property name="seekable">1</property>
  <property name="kdenlive:file_size">84054</property>
  <property name="kdenlive:file_hash">48f90ba9ddab636bd37cbcbd9ebd6be9</property>
  <property name="global_feed">1</property>
  <property name="xml">was here</property>
  <property name="meta.media.nb_streams">1</property>
  <property name="meta.media.0.stream.type">audio</property>
  <property name="meta.media.0.codec.sample_fmt">s16p</property>
  <property name="meta.media.0.codec.sample_rate">44100</property>
  <property name="meta.media.0.codec.channels">2</property>
  <property name="meta.media.0.codec.name">mp3</property>
  <property name="meta.media.0.codec.long_name">MP3 (MPEG audio layer 3)</property>
  <property name="meta.media.0.codec.bit_rate">128000</property>
  <property name="meta.attr.0.stream.encoder.markup">LAME3.99r</property>
  <property name="meta.attr.track.markup">4</property>
  <property name="meta.attr.title.markup">4</property>
 </producer>
 <producer out="110" id="37_playlist0" in="0" title="Anonymous Submission">
  <property name="mlt_type">producer</property>
  <property name="length">00:00:03:21</property>
  <property name="eof">pause</property>
  <property name="resource">projects/UstimenkoAlexander/wp-testing/wp-testing/tools/intro-video/mp3/08-05.mp3</property>
  <property name="audio_index">0</property>
  <property name="video_index">-1</property>
  <property name="mute_on_pause">1</property>
  <property name="mlt_service">avformat-novalidate</property>
  <property name="seekable">1</property>
  <property name="kdenlive:file_size">59813</property>
  <property name="kdenlive:file_hash">47ae5213086aa726b96aae7483474aa0</property>
  <property name="global_feed">1</property>
  <property name="xml">was here</property>
  <property name="meta.media.nb_streams">1</property>
  <property name="meta.media.0.stream.type">audio</property>
  <property name="meta.media.0.codec.sample_fmt">s16p</property>
  <property name="meta.media.0.codec.sample_rate">44100</property>
  <property name="meta.media.0.codec.channels">2</property>
  <property name="meta.media.0.codec.name">mp3</property>
  <property name="meta.media.0.codec.long_name">MP3 (MPEG audio layer 3)</property>
  <property name="meta.media.0.codec.bit_rate">128000</property>
  <property name="meta.attr.0.stream.encoder.markup">LAME3.99r</property>
  <property name="meta.attr.track.markup">5</property>
  <property name="meta.attr.title.markup">5</property>
 </producer>
 <producer out="67" id="40_playlist0" in="0" title="Anonymous Submission">
  <property name="mlt_type">producer</property>
  <property name="length">00:00:02:08</property>
  <property name="eof">pause</property>
  <property name="resource">projects/UstimenkoAlexander/wp-testing/wp-testing/tools/intro-video/mp3/09-g-01.mp3</property>
  <property name="audio_index">0</property>
  <property name="video_index">-1</property>
  <property name="mute_on_pause">1</property>
  <property name="mlt_service">avformat-novalidate</property>
  <property name="seekable">1</property>
  <property name="kdenlive:file_size">36825</property>
  <property name="kdenlive:file_hash">295de7e3b8434b1a7e081840e599b7a6</property>
  <property name="global_feed">1</property>
  <property name="xml">was here</property>
  <property name="meta.media.nb_streams">1</property>
  <property name="meta.media.0.stream.type">audio</property>
  <property name="meta.media.0.codec.sample_fmt">s16p</property>
  <property name="meta.media.0.codec.sample_rate">44100</property>
  <property name="meta.media.0.codec.channels">2</property>
  <property name="meta.media.0.codec.name">mp3</property>
  <property name="meta.media.0.codec.long_name">MP3 (MPEG audio layer 3)</property>
  <property name="meta.media.0.codec.bit_rate">128000</property>
  <property name="meta.attr.0.stream.encoder.markup">LAME3.99r</property>
  <property name="meta.attr.track.markup">1</property>
  <property name="meta.attr.title.markup">1</property>
 </producer>
 <producer out="93" id="41_playlist0" in="0" title="Anonymous Submission">
  <property name="mlt_type">producer</property>
  <property name="length">00:00:03:04</property>
  <property name="eof">pause</property>
  <property name="resource">projects/UstimenkoAlexander/wp-testing/wp-testing/tools/intro-video/mp3/09-g-02.mp3</property>
  <property name="audio_index">0</property>
  <property name="video_index">-1</property>
  <property name="mute_on_pause">1</property>
  <property name="mlt_service">avformat-novalidate</property>
  <property name="seekable">1</property>
  <property name="kdenlive:file_size">50618</property>
  <property name="kdenlive:file_hash">4d96fb711542d0d1f113a7afa94ae753</property>
  <property name="global_feed">1</property>
  <property name="xml">was here</property>
  <property name="meta.media.nb_streams">1</property>
  <property name="meta.media.0.stream.type">audio</property>
  <property name="meta.media.0.codec.sample_fmt">s16p</property>
  <property name="meta.media.0.codec.sample_rate">44100</property>
  <property name="meta.media.0.codec.channels">2</property>
  <property name="meta.media.0.codec.name">mp3</property>
  <property name="meta.media.0.codec.long_name">MP3 (MPEG audio layer 3)</property>
  <property name="meta.media.0.codec.bit_rate">128000</property>
  <property name="meta.attr.0.stream.encoder.markup">LAME3.99r</property>
  <property name="meta.attr.track.markup">2</property>
  <property name="meta.attr.title.markup">2</property>
 </producer>
 <producer out="117" id="42_playlist0" in="0" title="Anonymous Submission">
  <property name="mlt_type">producer</property>
  <property name="length">00:00:03:28</property>
  <property name="eof">pause</property>
  <property name="resource">projects/UstimenkoAlexander/wp-testing/wp-testing/tools/intro-video/mp3/09-g-03.mp3</property>
  <property name="audio_index">0</property>
  <property name="video_index">-1</property>
  <property name="mute_on_pause">1</property>
  <property name="mlt_service">avformat-novalidate</property>
  <property name="seekable">1</property>
  <property name="kdenlive:file_size">63156</property>
  <property name="kdenlive:file_hash">728372178e545091ed424a43a1fabe54</property>
  <property name="global_feed">1</property>
  <property name="xml">was here</property>
  <property name="meta.media.nb_streams">1</property>
  <property name="meta.media.0.stream.type">audio</property>
  <property name="meta.media.0.codec.sample_fmt">s16p</property>
  <property name="meta.media.0.codec.sample_rate">44100</property>
  <property name="meta.media.0.codec.channels">2</property>
  <property name="meta.media.0.codec.name">mp3</property>
  <property name="meta.media.0.codec.long_name">MP3 (MPEG audio layer 3)</property>
  <property name="meta.media.0.codec.bit_rate">128000</property>
  <property name="meta.attr.0.stream.encoder.markup">LAME3.99r</property>
  <property name="meta.attr.track.markup">3</property>
  <property name="meta.attr.title.markup">3</property>
 </producer>
 <producer out="78" id="43_playlist0" in="0" title="Anonymous Submission">
  <property name="mlt_type">producer</property>
  <property name="length">00:00:02:19</property>
  <property name="eof">pause</property>
  <property name="resource">projects/UstimenkoAlexander/wp-testing/wp-testing/tools/intro-video/mp3/09-g-04.mp3</property>
  <property name="audio_index">0</property>
  <property name="video_index">-1</property>
  <property name="mute_on_pause">1</property>
  <property name="mlt_service">avformat-novalidate</property>
  <property name="seekable">1</property>
  <property name="kdenlive:file_size">42676</property>
  <property name="kdenlive:file_hash">c86f8c1e808accf08687552ed00ed4f3</property>
  <property name="global_feed">1</property>
  <property name="xml">was here</property>
  <property name="meta.media.nb_streams">1</property>
  <property name="meta.media.0.stream.type">audio</property>
  <property name="meta.media.0.codec.sample_fmt">s16p</property>
  <property name="meta.media.0.codec.sample_rate">44100</property>
  <property name="meta.media.0.codec.channels">2</property>
  <property name="meta.media.0.codec.name">mp3</property>
  <property name="meta.media.0.codec.long_name">MP3 (MPEG audio layer 3)</property>
  <property name="meta.media.0.codec.bit_rate">128000</property>
  <property name="meta.attr.0.stream.encoder.markup">LAME3.99r</property>
  <property name="meta.attr.track.markup">4</property>
  <property name="meta.attr.title.markup">4</property>
 </producer>
 <producer out="70" id="44_playlist0" in="0" title="Anonymous Submission">
  <property name="mlt_type">producer</property>
  <property name="length">00:00:02:11</property>
  <property name="eof">pause</property>
  <property name="resource">projects/UstimenkoAlexander/wp-testing/wp-testing/tools/intro-video/mp3/09-g-05.mp3</property>
  <property name="audio_index">0</property>
  <property name="video_index">-1</property>
  <property name="mute_on_pause">1</property>
  <property name="mlt_service">avformat-novalidate</property>
  <property name="seekable">1</property>
  <property name="kdenlive:file_size">38079</property>
  <property name="kdenlive:file_hash">8486e2d03c503c93d7a2ee0082ccb490</property>
  <property name="global_feed">1</property>
  <property name="xml">was here</property>
  <property name="meta.media.nb_streams">1</property>
  <property name="meta.media.0.stream.type">audio</property>
  <property name="meta.media.0.codec.sample_fmt">s16p</property>
  <property name="meta.media.0.codec.sample_rate">44100</property>
  <property name="meta.media.0.codec.channels">2</property>
  <property name="meta.media.0.codec.name">mp3</property>
  <property name="meta.media.0.codec.long_name">MP3 (MPEG audio layer 3)</property>
  <property name="meta.media.0.codec.bit_rate">128000</property>
  <property name="meta.attr.0.stream.encoder.markup">LAME3.99r</property>
  <property name="meta.attr.track.markup">5</property>
  <property name="meta.attr.title.markup">5</property>
 </producer>
 <producer out="147" id="45_playlist0" in="0" title="Anonymous Submission">
  <property name="mlt_type">producer</property>
  <property name="length">00:00:04:28</property>
  <property name="eof">pause</property>
  <property name="resource">projects/UstimenkoAlexander/wp-testing/wp-testing/tools/intro-video/mp3/09-g-06.mp3</property>
  <property name="audio_index">0</property>
  <property name="video_index">-1</property>
  <property name="mute_on_pause">1</property>
  <property name="mlt_service">avformat-novalidate</property>
  <property name="seekable">1</property>
  <property name="kdenlive:file_size">79457</property>
  <property name="kdenlive:file_hash">29c600d011e3082a82332f3d511453e6</property>
  <property name="global_feed">1</property>
  <property name="xml">was here</property>
  <property name="meta.media.nb_streams">1</property>
  <property name="meta.media.0.stream.type">audio</property>
  <property name="meta.media.0.codec.sample_fmt">s16p</property>
  <property name="meta.media.0.codec.sample_rate">44100</property>
  <property name="meta.media.0.codec.channels">2</property>
  <property name="meta.media.0.codec.name">mp3</property>
  <property name="meta.media.0.codec.long_name">MP3 (MPEG audio layer 3)</property>
  <property name="meta.media.0.codec.bit_rate">128000</property>
  <property name="meta.attr.0.stream.encoder.markup">LAME3.99r</property>
  <property name="meta.attr.track.markup">6</property>
  <property name="meta.attr.title.markup">6</property>
 </producer>
 <producer out="62" id="46_playlist0" in="0" title="Anonymous Submission">
  <property name="mlt_type">producer</property>
  <property name="length">00:00:02:03</property>
  <property name="eof">pause</property>
  <property name="resource">projects/UstimenkoAlexander/wp-testing/wp-testing/tools/intro-video/mp3/09-g-07.mp3</property>
  <property name="audio_index">0</property>
  <property name="video_index">-1</property>
  <property name="mute_on_pause">1</property>
  <property name="mlt_service">avformat-novalidate</property>
  <property name="seekable">1</property>
  <property name="kdenlive:file_size">34317</property>
  <property name="kdenlive:file_hash">7016d16646d4a8b8288400b23f3dab80</property>
  <property name="global_feed">1</property>
  <property name="xml">was here</property>
  <property name="meta.media.nb_streams">1</property>
  <property name="meta.media.0.stream.type">audio</property>
  <property name="meta.media.0.codec.sample_fmt">s16p</property>
  <property name="meta.media.0.codec.sample_rate">44100</property>
  <property name="meta.media.0.codec.channels">2</property>
  <property name="meta.media.0.codec.name">mp3</property>
  <property name="meta.media.0.codec.long_name">MP3 (MPEG audio layer 3)</property>
  <property name="meta.media.0.codec.bit_rate">128000</property>
  <property name="meta.attr.0.stream.encoder.markup">LAME3.99r</property>
  <property name="meta.attr.track.markup">7</property>
  <property name="meta.attr.title.markup">7</property>
 </producer>
 <producer out="140" id="47_playlist0" in="0" title="Anonymous Submission">
  <property name="mlt_type">producer</property>
  <property name="length">00:00:04:21</property>
  <property name="eof">pause</property>
  <property name="resource">projects/UstimenkoAlexander/wp-testing/wp-testing/tools/intro-video/mp3/10-a-01.mp3</property>
  <property name="audio_index">0</property>
  <property name="video_index">-1</property>
  <property name="mute_on_pause">1</property>
  <property name="mlt_service">avformat-novalidate</property>
  <property name="seekable">1</property>
  <property name="kdenlive:file_size">75695</property>
  <property name="kdenlive:file_hash">b21a0d3b58c7092c3fe386216d21e206</property>
  <property name="global_feed">1</property>
  <property name="xml">was here</property>
  <property name="meta.media.nb_streams">1</property>
  <property name="meta.media.0.stream.type">audio</property>
  <property name="meta.media.0.codec.sample_fmt">s16p</property>
  <property name="meta.media.0.codec.sample_rate">44100</property>
  <property name="meta.media.0.codec.channels">2</property>
  <property name="meta.media.0.codec.name">mp3</property>
  <property name="meta.media.0.codec.long_name">MP3 (MPEG audio layer 3)</property>
  <property name="meta.media.0.codec.bit_rate">128000</property>
  <property name="meta.attr.0.stream.encoder.markup">LAME3.99r</property>
  <property name="meta.attr.track.markup">1</property>
  <property name="meta.attr.title.markup">1</property>
 </producer>
 <producer out="120" id="48_playlist0" in="0" title="Anonymous Submission">
  <property name="mlt_type">producer</property>
  <property name="length">00:00:04:01</property>
  <property name="eof">pause</property>
  <property name="resource">projects/UstimenkoAlexander/wp-testing/wp-testing/tools/intro-video/mp3/10-a-02.mp3</property>
  <property name="audio_index">0</property>
  <property name="video_index">-1</property>
  <property name="mute_on_pause">1</property>
  <property name="mlt_service">avformat-novalidate</property>
  <property name="seekable">1</property>
  <property name="kdenlive:file_size">65246</property>
  <property name="kdenlive:file_hash">0012cf28789db74606c87a7136900529</property>
  <property name="global_feed">1</property>
  <property name="xml">was here</property>
  <property name="meta.media.nb_streams">1</property>
  <property name="meta.media.0.stream.type">audio</property>
  <property name="meta.media.0.codec.sample_fmt">s16p</property>
  <property name="meta.media.0.codec.sample_rate">44100</property>
  <property name="meta.media.0.codec.channels">2</property>
  <property name="meta.media.0.codec.name">mp3</property>
  <property name="meta.media.0.codec.long_name">MP3 (MPEG audio layer 3)</property>
  <property name="meta.media.0.codec.bit_rate">128000</property>
  <property name="meta.attr.0.stream.encoder.markup">LAME3.99r</property>
  <property name="meta.attr.track.markup">2</property>
  <property name="meta.attr.title.markup">2</property>
 </producer>
 <producer out="182" id="49_playlist0" in="0" title="Anonymous Submission">
  <property name="mlt_type">producer</property>
  <property name="length">00:00:06:03</property>
  <property name="eof">pause</property>
  <property name="resource">projects/UstimenkoAlexander/wp-testing/wp-testing/tools/intro-video/mp3/10-a-03.mp3</property>
  <property name="audio_index">0</property>
  <property name="video_index">-1</property>
  <property name="mute_on_pause">1</property>
  <property name="mlt_service">avformat-novalidate</property>
  <property name="seekable">1</property>
  <property name="kdenlive:file_size">97847</property>
  <property name="kdenlive:file_hash">62b8d1048855817321d0adc0c6be0ee7</property>
  <property name="global_feed">1</property>
  <property name="xml">was here</property>
  <property name="meta.media.nb_streams">1</property>
  <property name="meta.media.0.stream.type">audio</property>
  <property name="meta.media.0.codec.sample_fmt">s16p</property>
  <property name="meta.media.0.codec.sample_rate">44100</property>
  <property name="meta.media.0.codec.channels">2</property>
  <property name="meta.media.0.codec.name">mp3</property>
  <property name="meta.media.0.codec.long_name">MP3 (MPEG audio layer 3)</property>
  <property name="meta.media.0.codec.bit_rate">128000</property>
  <property name="meta.attr.0.stream.encoder.markup">LAME3.99r</property>
  <property name="meta.attr.track.markup">3</property>
  <property name="meta.attr.title.markup">3</property>
 </producer>
 <producer out="95" id="50_playlist0" in="0" title="Anonymous Submission">
  <property name="mlt_type">producer</property>
  <property name="length">00:00:03:06</property>
  <property name="eof">pause</property>
  <property name="resource">projects/UstimenkoAlexander/wp-testing/wp-testing/tools/intro-video/mp3/10-a-04.mp3</property>
  <property name="audio_index">0</property>
  <property name="video_index">-1</property>
  <property name="mute_on_pause">1</property>
  <property name="mlt_service">avformat-novalidate</property>
  <property name="seekable">1</property>
  <property name="kdenlive:file_size">51872</property>
  <property name="kdenlive:file_hash">c3d99eba5076166fc9edc420518e42a4</property>
  <property name="global_feed">1</property>
  <property name="xml">was here</property>
  <property name="meta.media.nb_streams">1</property>
  <property name="meta.media.0.stream.type">audio</property>
  <property name="meta.media.0.codec.sample_fmt">s16p</property>
  <property name="meta.media.0.codec.sample_rate">44100</property>
  <property name="meta.media.0.codec.channels">2</property>
  <property name="meta.media.0.codec.name">mp3</property>
  <property name="meta.media.0.codec.long_name">MP3 (MPEG audio layer 3)</property>
  <property name="meta.media.0.codec.bit_rate">128000</property>
  <property name="meta.attr.0.stream.encoder.markup">LAME3.99r</property>
  <property name="meta.attr.track.markup">4</property>
  <property name="meta.attr.title.markup">4</property>
 </producer>
 <producer out="475" id="53_playlist0" in="0" title="Anonymous Submission">
  <property name="mlt_type">producer</property>
  <property name="length">00:00:15:26</property>
  <property name="eof">pause</property>
  <property name="resource">projects/UstimenkoAlexander/wp-testing/wp-testing/tools/intro-video/mp3/11-a-01.mp3</property>
  <property name="audio_index">0</property>
  <property name="video_index">-1</property>
  <property name="mute_on_pause">1</property>
  <property name="mlt_service">avformat-novalidate</property>
  <property name="seekable">1</property>
  <property name="kdenlive:file_size">254582</property>
  <property name="kdenlive:file_hash">6cd94488272f4f76b933ec5690e9ecc1</property>
  <property name="global_feed">1</property>
  <property name="xml">was here</property>
  <property name="meta.media.nb_streams">1</property>
  <property name="meta.media.0.stream.type">audio</property>
  <property name="meta.media.0.codec.sample_fmt">s16p</property>
  <property name="meta.media.0.codec.sample_rate">44100</property>
  <property name="meta.media.0.codec.channels">2</property>
  <property name="meta.media.0.codec.name">mp3</property>
  <property name="meta.media.0.codec.long_name">MP3 (MPEG audio layer 3)</property>
  <property name="meta.media.0.codec.bit_rate">128000</property>
  <property name="meta.attr.0.stream.encoder.markup">LAME3.99r</property>
  <property name="meta.attr.track.markup">1</property>
  <property name="meta.attr.title.markup">1</property>
 </producer>
 <producer out="142" id="54_playlist0" in="0" title="Anonymous Submission">
  <property name="mlt_type">producer</property>
  <property name="length">00:00:04:23</property>
  <property name="eof">pause</property>
  <property name="resource">projects/UstimenkoAlexander/wp-testing/wp-testing/tools/intro-video/mp3/11-a-02.mp3</property>
  <property name="audio_index">0</property>
  <property name="video_index">-1</property>
  <property name="mute_on_pause">1</property>
  <property name="mlt_service">avformat-novalidate</property>
  <property name="seekable">1</property>
  <property name="kdenlive:file_size">76949</property>
  <property name="kdenlive:file_hash">8259501805d7652112de4d2c11de3703</property>
  <property name="global_feed">1</property>
  <property name="xml">was here</property>
  <property name="meta.media.nb_streams">1</property>
  <property name="meta.media.0.stream.type">audio</property>
  <property name="meta.media.0.codec.sample_fmt">s16p</property>
  <property name="meta.media.0.codec.sample_rate">44100</property>
  <property name="meta.media.0.codec.channels">2</property>
  <property name="meta.media.0.codec.name">mp3</property>
  <property name="meta.media.0.codec.long_name">MP3 (MPEG audio layer 3)</property>
  <property name="meta.media.0.codec.bit_rate">128000</property>
  <property name="meta.attr.0.stream.encoder.markup">LAME3.99r</property>
  <property name="meta.attr.track.markup">2</property>
  <property name="meta.attr.title.markup">2</property>
 </producer>
 <producer out="225" id="55_playlist0" in="0" title="Anonymous Submission">
  <property name="mlt_type">producer</property>
  <property name="length">00:00:07:16</property>
  <property name="eof">pause</property>
  <property name="resource">projects/UstimenkoAlexander/wp-testing/wp-testing/tools/intro-video/mp3/11-a-03.mp3</property>
  <property name="audio_index">0</property>
  <property name="video_index">-1</property>
  <property name="mute_on_pause">1</property>
  <property name="mlt_service">avformat-novalidate</property>
  <property name="seekable">1</property>
  <property name="kdenlive:file_size">121253</property>
  <property name="kdenlive:file_hash">cecf06099b4d584e9d3132483195a288</property>
  <property name="global_feed">1</property>
  <property name="xml">was here</property>
  <property name="meta.media.nb_streams">1</property>
  <property name="meta.media.0.stream.type">audio</property>
  <property name="meta.media.0.codec.sample_fmt">s16p</property>
  <property name="meta.media.0.codec.sample_rate">44100</property>
  <property name="meta.media.0.codec.channels">2</property>
  <property name="meta.media.0.codec.name">mp3</property>
  <property name="meta.media.0.codec.long_name">MP3 (MPEG audio layer 3)</property>
  <property name="meta.media.0.codec.bit_rate">128000</property>
  <property name="meta.attr.0.stream.encoder.markup">LAME3.99r</property>
  <property name="meta.attr.track.markup">3</property>
  <property name="meta.attr.title.markup">3</property>
 </producer>
 <producer out="81" id="56_playlist0" in="0" title="Anonymous Submission">
  <property name="mlt_type">producer</property>
  <property name="length">00:00:02:22</property>
  <property name="eof">pause</property>
  <property name="resource">projects/UstimenkoAlexander/wp-testing/wp-testing/tools/intro-video/mp3/11-a-04.mp3</property>
  <property name="audio_index">0</property>
  <property name="video_index">-1</property>
  <property name="mute_on_pause">1</property>
  <property name="mlt_service">avformat-novalidate</property>
  <property name="seekable">1</property>
  <property name="kdenlive:file_size">44348</property>
  <property name="kdenlive:file_hash">b64bd49a4e6e1273f017030fdad37da5</property>
  <property name="global_feed">1</property>
  <property name="xml">was here</property>
  <property name="meta.media.nb_streams">1</property>
  <property name="meta.media.0.stream.type">audio</property>
  <property name="meta.media.0.codec.sample_fmt">s16p</property>
  <property name="meta.media.0.codec.sample_rate">44100</property>
  <property name="meta.media.0.codec.channels">2</property>
  <property name="meta.media.0.codec.name">mp3</property>
  <property name="meta.media.0.codec.long_name">MP3 (MPEG audio layer 3)</property>
  <property name="meta.media.0.codec.bit_rate">128000</property>
  <property name="meta.attr.0.stream.encoder.markup">LAME3.99r</property>
  <property name="meta.attr.track.markup">4</property>
  <property name="meta.attr.title.markup">4</property>
 </producer>
 <producer out="200" id="58_playlist0" in="0" title="Anonymous Submission">
  <property name="mlt_type">producer</property>
  <property name="length">00:00:06:21</property>
  <property name="eof">pause</property>
  <property name="resource">projects/UstimenkoAlexander/wp-testing/wp-testing/tools/intro-video/mp3/12-a-01.mp3</property>
  <property name="audio_index">0</property>
  <property name="video_index">-1</property>
  <property name="mute_on_pause">1</property>
  <property name="mlt_service">avformat-novalidate</property>
  <property name="seekable">1</property>
  <property name="kdenlive:file_size">107460</property>
  <property name="kdenlive:file_hash">31b73205d955dc90eafe588a0ab97ccb</property>
  <property name="global_feed">1</property>
  <property name="xml">was here</property>
  <property name="meta.media.nb_streams">1</property>
  <property name="meta.media.0.stream.type">audio</property>
  <property name="meta.media.0.codec.sample_fmt">s16p</property>
  <property name="meta.media.0.codec.sample_rate">44100</property>
  <property name="meta.media.0.codec.channels">2</property>
  <property name="meta.media.0.codec.name">mp3</property>
  <property name="meta.media.0.codec.long_name">MP3 (MPEG audio layer 3)</property>
  <property name="meta.media.0.codec.bit_rate">128000</property>
  <property name="meta.attr.0.stream.encoder.markup">LAME3.99r</property>
  <property name="meta.attr.track.markup">1</property>
  <property name="meta.attr.title.markup">1</property>
 </producer>
 <producer out="490" id="59_playlist0" in="0" title="Anonymous Submission">
  <property name="mlt_type">producer</property>
  <property name="length">00:00:16:11</property>
  <property name="eof">pause</property>
  <property name="resource">projects/UstimenkoAlexander/wp-testing/wp-testing/tools/intro-video/mp3/12-a-02.mp3</property>
  <property name="audio_index">0</property>
  <property name="video_index">-1</property>
  <property name="mute_on_pause">1</property>
  <property name="mlt_service">avformat-novalidate</property>
  <property name="seekable">1</property>
  <property name="kdenlive:file_size">262105</property>
  <property name="kdenlive:file_hash">74f8da2a5259b72c9987e68dff385531</property>
  <property name="global_feed">1</property>
  <property name="xml">was here</property>
  <property name="meta.media.nb_streams">1</property>
  <property name="meta.media.0.stream.type">audio</property>
  <property name="meta.media.0.codec.sample_fmt">s16p</property>
  <property name="meta.media.0.codec.sample_rate">44100</property>
  <property name="meta.media.0.codec.channels">2</property>
  <property name="meta.media.0.codec.name">mp3</property>
  <property name="meta.media.0.codec.long_name">MP3 (MPEG audio layer 3)</property>
  <property name="meta.media.0.codec.bit_rate">128000</property>
  <property name="meta.attr.0.stream.encoder.markup">LAME3.99r</property>
  <property name="meta.attr.track.markup">2</property>
  <property name="meta.attr.title.markup">2</property>
 </producer>
 <producer out="153" id="57_playlist0" in="0" title="Anonymous Submission">
  <property name="mlt_type">producer</property>
  <property name="length">00:00:05:04</property>
  <property name="eof">pause</property>
  <property name="resource">projects/UstimenkoAlexander/wp-testing/wp-testing/tools/intro-video/mp3/12-c.mp3</property>
  <property name="audio_index">0</property>
  <property name="video_index">-1</property>
  <property name="mute_on_pause">1</property>
  <property name="mlt_service">avformat-novalidate</property>
  <property name="seekable">1</property>
  <property name="kdenlive:file_size">82754</property>
  <property name="kdenlive:file_hash">c070abab23f054213a3a2f738e9d7edd</property>
  <property name="global_feed">1</property>
  <property name="xml">was here</property>
  <property name="meta.media.nb_streams">1</property>
  <property name="meta.media.0.stream.type">audio</property>
  <property name="meta.media.0.codec.sample_fmt">s16p</property>
  <property name="meta.media.0.codec.sample_rate">44100</property>
  <property name="meta.media.0.codec.channels">2</property>
  <property name="meta.media.0.codec.name">mp3</property>
  <property name="meta.media.0.codec.long_name">MP3 (MPEG audio layer 3)</property>
  <property name="meta.media.0.codec.bit_rate">128000</property>
  <property name="meta.attr.0.stream.encoder.markup">LAME3.99r</property>
 </producer>
 <producer out="105" id="60_playlist0" in="0" title="Anonymous Submission">
  <property name="mlt_type">producer</property>
  <property name="length">00:00:03:16</property>
  <property name="eof">pause</property>
  <property name="resource">projects/UstimenkoAlexander/wp-testing/wp-testing/tools/intro-video/mp3/12-a-03.mp3</property>
  <property name="audio_index">0</property>
  <property name="video_index">-1</property>
  <property name="mute_on_pause">1</property>
  <property name="mlt_service">avformat-novalidate</property>
  <property name="seekable">1</property>
  <property name="kdenlive:file_size">56887</property>
  <property name="kdenlive:file_hash">5cfc7d7cc32df80026d26ce16abe8405</property>
  <property name="global_feed">1</property>
  <property name="xml">was here</property>
  <property name="meta.media.nb_streams">1</property>
  <property name="meta.media.0.stream.type">audio</property>
  <property name="meta.media.0.codec.sample_fmt">s16p</property>
  <property name="meta.media.0.codec.sample_rate">44100</property>
  <property name="meta.media.0.codec.channels">2</property>
  <property name="meta.media.0.codec.name">mp3</property>
  <property name="meta.media.0.codec.long_name">MP3 (MPEG audio layer 3)</property>
  <property name="meta.media.0.codec.bit_rate">128000</property>
  <property name="meta.attr.0.stream.encoder.markup">LAME3.99r</property>
  <property name="meta.attr.track.markup">3</property>
  <property name="meta.attr.title.markup">4</property>
 </producer>
 <producer out="378" id="64_playlist0" in="0" title="Anonymous Submission">
  <property name="mlt_type">producer</property>
  <property name="length">00:00:12:19</property>
  <property name="eof">pause</property>
  <property name="resource">projects/UstimenkoAlexander/wp-testing/wp-testing/tools/intro-video/mp3/13-a.mp3</property>
  <property name="audio_index">0</property>
  <property name="video_index">-1</property>
  <property name="mute_on_pause">1</property>
  <property name="mlt_service">avformat-novalidate</property>
  <property name="seekable">1</property>
  <property name="kdenlive:file_size">202709</property>
  <property name="kdenlive:file_hash">c331b70e4745075db5da79091629debb</property>
  <property name="global_feed">1</property>
  <property name="xml">was here</property>
  <property name="meta.media.nb_streams">1</property>
  <property name="meta.media.0.stream.type">audio</property>
  <property name="meta.media.0.codec.sample_fmt">s16p</property>
  <property name="meta.media.0.codec.sample_rate">44100</property>
  <property name="meta.media.0.codec.channels">2</property>
  <property name="meta.media.0.codec.name">mp3</property>
  <property name="meta.media.0.codec.long_name">MP3 (MPEG audio layer 3)</property>
  <property name="meta.media.0.codec.bit_rate">128000</property>
  <property name="meta.attr.0.stream.encoder.markup">LAME3.99r</property>
 </producer>
 <producer out="224" id="65_playlist0" in="0" title="Anonymous Submission">
  <property name="mlt_type">producer</property>
  <property name="length">00:00:07:15</property>
  <property name="eof">pause</property>
  <property name="resource">projects/UstimenkoAlexander/wp-testing/wp-testing/tools/intro-video/mp3/13-c.mp3</property>
  <property name="audio_index">0</property>
  <property name="video_index">-1</property>
  <property name="mute_on_pause">1</property>
  <property name="mlt_service">avformat-novalidate</property>
  <property name="seekable">1</property>
  <property name="kdenlive:file_size">120417</property>
  <property name="kdenlive:file_hash">f2080ed96da4ecdef95d2a36c4f2ed07</property>
  <property name="global_feed">1</property>
  <property name="xml">was here</property>
  <property name="meta.media.nb_streams">1</property>
  <property name="meta.media.0.stream.type">audio</property>
  <property name="meta.media.0.codec.sample_fmt">s16p</property>
  <property name="meta.media.0.codec.sample_rate">44100</property>
  <property name="meta.media.0.codec.channels">2</property>
  <property name="meta.media.0.codec.name">mp3</property>
  <property name="meta.media.0.codec.long_name">MP3 (MPEG audio layer 3)</property>
  <property name="meta.media.0.codec.bit_rate">128000</property>
  <property name="meta.attr.0.stream.encoder.markup">LAME3.99r</property>
  <property name="meta.attr.track.markup">1</property>
  <property name="meta.attr.title.markup">1</property>
 </producer>
 <producer out="107" id="66_playlist0" in="0" title="Anonymous Submission">
  <property name="mlt_type">producer</property>
  <property name="length">00:00:03:18</property>
  <property name="eof">pause</property>
  <property name="resource">projects/UstimenkoAlexander/wp-testing/wp-testing/tools/intro-video/mp3/13-f.mp3</property>
  <property name="audio_index">0</property>
  <property name="video_index">-1</property>
  <property name="mute_on_pause">1</property>
  <property name="mlt_service">avformat-novalidate</property>
  <property name="seekable">1</property>
  <property name="kdenlive:file_size">58095</property>
  <property name="kdenlive:file_hash">b81845c49e856dc62ef5f3d8b526125d</property>
  <property name="global_feed">1</property>
  <property name="xml">was here</property>
  <property name="meta.media.nb_streams">1</property>
  <property name="meta.media.0.stream.type">audio</property>
  <property name="meta.media.0.codec.sample_fmt">s16p</property>
  <property name="meta.media.0.codec.sample_rate">44100</property>
  <property name="meta.media.0.codec.channels">2</property>
  <property name="meta.media.0.codec.name">mp3</property>
  <property name="meta.media.0.codec.long_name">MP3 (MPEG audio layer 3)</property>
  <property name="meta.media.0.codec.bit_rate">128000</property>
  <property name="meta.attr.0.stream.encoder.markup">LAME3.99r</property>
 </producer>
 <producer out="1147" id="67_playlist0" in="0" title="Anonymous Submission">
  <property name="mlt_type">producer</property>
  <property name="length">00:00:38:08</property>
  <property name="eof">pause</property>
  <property name="resource">projects/UstimenkoAlexander/wp-testing/wp-testing/tools/intro-video/mp3/14.mp3</property>
  <property name="audio_index">0</property>
  <property name="video_index">-1</property>
  <property name="mute_on_pause">1</property>
  <property name="mlt_service">avformat-novalidate</property>
  <property name="seekable">1</property>
  <property name="kdenlive:file_size">612727</property>
  <property name="kdenlive:file_hash">45bc5eb20e0128ec2b8dc7e65c6e570c</property>
  <property name="global_feed">1</property>
  <property name="xml">was here</property>
  <property name="meta.media.nb_streams">1</property>
  <property name="meta.media.0.stream.type">audio</property>
  <property name="meta.media.0.codec.sample_fmt">s16p</property>
  <property name="meta.media.0.codec.sample_rate">44100</property>
  <property name="meta.media.0.codec.channels">2</property>
  <property name="meta.media.0.codec.name">mp3</property>
  <property name="meta.media.0.codec.long_name">MP3 (MPEG audio layer 3)</property>
  <property name="meta.media.0.codec.bit_rate">128000</property>
  <property name="meta.attr.0.stream.encoder.markup">LAME3.99r</property>
 </producer>
 <playlist id="playlist1">
  <property name="kdenlive:track_name">Audio</property>
  <property name="kdenlive:audio_track">1</property>
  <property name="kdenlive:locked_track">0</property>
  <entry out="332" producer="1_playlist0" in="0"/>
  <blank length="13"/>
  <entry out="58" producer="4_playlist0" in="0"/>
  <blank length="232"/>
  <entry out="117" producer="5_playlist0" in="0"/>
  <blank length="92"/>
  <entry out="128" producer="6_playlist0" in="0"/>
  <blank length="101"/>
  <entry out="97" producer="9_playlist1" in="0"/>
  <blank length="92"/>
  <entry out="60" producer="10_playlist1" in="0"/>
  <blank length="61"/>
  <entry out="50" producer="11_playlist1" in="0"/>
  <blank length="137"/>
  <entry out="91" producer="12_playlist0" in="0"/>
  <blank length="103"/>
  <entry out="167" producer="13_playlist0" in="0"/>
  <blank length="49"/>
  <entry out="195" producer="14_playlist0" in="0"/>
  <blank length="184"/>
  <entry out="84" producer="15_playlist0" in="0"/>
  <blank length="75"/>
  <entry out="242" producer="16_playlist0" in="0"/>
  <blank length="254"/>
  <entry out="159" producer="17_playlist0" in="0"/>
  <blank length="21"/>
  <entry out="65" producer="18_playlist0" in="0"/>
  <blank length="65"/>
  <entry out="225" producer="19_playlist0" in="0"/>
  <blank length="28"/>
  <entry out="86" producer="20_playlist0" in="0"/>
  <blank length="42"/>
  <entry out="121" producer="21_playlist0" in="0"/>
  <blank length="89"/>
  <entry out="149" producer="22_playlist0" in="0"/>
  <blank length="71"/>
  <entry out="112" producer="25_playlist0" in="0"/>
  <blank length="82"/>
  <entry out="341" producer="26_playlist0" in="0"/>
  <blank length="27"/>
  <entry out="163" producer="29_playlist0" in="0"/>
  <blank length="14"/>
  <entry out="44" producer="30_playlist0" in="0"/>
  <blank length="48"/>
  <entry out="120" producer="32_playlist0" in="0"/>
  <blank length="156"/>
  <entry out="140" producer="31_playlist0" in="0"/>
  <blank length="28"/>
  <entry out="140" producer="33_playlist0" in="0"/>
  <blank length="29"/>
  <entry out="120" producer="34_playlist0" in="0"/>
  <blank length="16"/>
  <entry out="67" producer="35_playlist0" in="0"/>
  <blank length="15"/>
  <entry out="156" producer="36_playlist0" in="0"/>
  <blank length="81"/>
  <entry out="110" producer="37_playlist0" in="0"/>
  <blank length="151"/>
  <entry out="67" producer="40_playlist0" in="0"/>
  <blank length="16"/>
  <entry out="93" producer="41_playlist0" in="0"/>
  <blank length="18"/>
  <entry out="117" producer="42_playlist0" in="0"/>
  <blank length="168"/>
  <entry out="78" producer="43_playlist0" in="0"/>
  <blank length="34"/>
  <entry out="70" producer="44_playlist0" in="0"/>
  <blank length="48"/>
  <entry out="147" producer="45_playlist0" in="0"/>
  <blank length="97"/>
  <entry out="62" producer="46_playlist0" in="0"/>
  <blank length="29"/>
  <entry out="140" producer="47_playlist0" in="0"/>
  <blank length="27"/>
  <entry out="120" producer="48_playlist0" in="0"/>
  <blank length="18"/>
  <entry out="182" producer="49_playlist0" in="0"/>
  <blank length="13"/>
  <entry out="95" producer="50_playlist0" in="0"/>
  <blank length="41"/>
  <entry out="475" producer="53_playlist0" in="0"/>
  <blank length="15"/>
  <entry out="142" producer="54_playlist0" in="0"/>
  <blank length="19"/>
  <entry out="225" producer="55_playlist0" in="0"/>
  <blank length="50"/>
  <entry out="81" producer="56_playlist0" in="0"/>
  <blank length="55"/>
  <entry out="200" producer="58_playlist0" in="0"/>
  <blank length="16"/>
  <entry out="490" producer="59_playlist0" in="0"/>
  <blank length="22"/>
  <entry out="153" producer="57_playlist0" in="0"/>
  <blank length="19"/>
  <entry out="105" producer="60_playlist0" in="0"/>
  <blank length="40"/>
  <entry out="378" producer="64_playlist0" in="0"/>
  <blank length="27"/>
  <entry out="224" producer="65_playlist0" in="0"/>
  <blank length="24"/>
  <entry out="107" producer="66_playlist0" in="0"/>
  <blank length="27"/>
  <entry out="602" producer="67_playlist0" in="0"/>
  <blank length="34"/>
  <entry out="1147" producer="67_playlist0" in="867"/>
 </playlist>
 <producer out="2649" id="slowmotion:8:2,5" in="0">
  <property name="mlt_type">producer</property>
  <property name="length">2650</property>
  <property name="eof">pause</property>
  <property name="resource">projects/UstimenkoAlexander/wp-testing/wp-testing/tools/intro-video/mkv/04.mkv?2,5</property>
  <property name="aspect_ratio">1</property>
  <property name="mlt_service">framebuffer</property>
  <property name="strobe">1</property>
 </producer>
 <producer out="3896" id="slowmotion:8:1,7" in="0">
  <property name="mlt_type">producer</property>
  <property name="length">3897</property>
  <property name="eof">pause</property>
  <property name="resource">projects/UstimenkoAlexander/wp-testing/wp-testing/tools/intro-video/mkv/04.mkv?1,7</property>
  <property name="aspect_ratio">1</property>
  <property name="mlt_service">framebuffer</property>
  <property name="strobe">1</property>
 </producer>
 <producer out="1655" id="slowmotion:8:4" in="0">
  <property name="mlt_type">producer</property>
  <property name="length">1656</property>
  <property name="eof">pause</property>
  <property name="resource">projects/UstimenkoAlexander/wp-testing/wp-testing/tools/intro-video/mkv/04.mkv?4</property>
  <property name="aspect_ratio">1</property>
  <property name="mlt_service">framebuffer</property>
  <property name="strobe">1</property>
 </producer>
 <producer out="1103" id="slowmotion:8:6" in="0">
  <property name="mlt_type">producer</property>
  <property name="length">1104</property>
  <property name="eof">pause</property>
  <property name="resource">projects/UstimenkoAlexander/wp-testing/wp-testing/tools/intro-video/mkv/04.mkv?6</property>
  <property name="aspect_ratio">1</property>
  <property name="mlt_service">framebuffer</property>
  <property name="strobe">1</property>
 </producer>
 <producer out="6625" id="slowmotion:8:1" in="0">
  <property name="mlt_type">producer</property>
  <property name="length">6626</property>
  <property name="eof">pause</property>
  <property name="resource">projects/UstimenkoAlexander/wp-testing/wp-testing/tools/intro-video/mkv/04.mkv?1</property>
  <property name="aspect_ratio">1</property>
  <property name="mlt_service">framebuffer</property>
 </producer>
 <producer out="5095" id="slowmotion:8:1,3" in="0">
  <property name="mlt_type">producer</property>
  <property name="length">5096</property>
  <property name="eof">pause</property>
  <property name="resource">projects/UstimenkoAlexander/wp-testing/wp-testing/tools/intro-video/mkv/04.mkv?1,3</property>
  <property name="aspect_ratio">1</property>
  <property name="mlt_service">framebuffer</property>
  <property name="strobe">1</property>
 </producer>
 <producer out="5520" id="slowmotion:8:1,2" in="0">
  <property name="mlt_type">producer</property>
  <property name="length">5521</property>
  <property name="eof">pause</property>
  <property name="resource">projects/UstimenkoAlexander/wp-testing/wp-testing/tools/intro-video/mkv/04.mkv?1,2</property>
  <property name="aspect_ratio">1</property>
  <property name="mlt_service">framebuffer</property>
  <property name="strobe">1</property>
 </producer>
 <producer out="2193" id="slowmotion:28:0,7" in="0">
  <property name="mlt_type">producer</property>
  <property name="length">2194</property>
  <property name="eof">pause</property>
  <property name="resource">projects/UstimenkoAlexander/wp-testing/wp-testing/tools/intro-video/mkv/07.mkv?0,7</property>
  <property name="aspect_ratio">1</property>
  <property name="mlt_service">framebuffer</property>
  <property name="strobe">1</property>
 </producer>
 <producer out="767" id="slowmotion:28:2" in="0">
  <property name="mlt_type">producer</property>
  <property name="length">768</property>
  <property name="eof">pause</property>
  <property name="resource">projects/UstimenkoAlexander/wp-testing/wp-testing/tools/intro-video/mkv/07.mkv?2</property>
  <property name="aspect_ratio">1</property>
  <property name="mlt_service">framebuffer</property>
  <property name="strobe">1</property>
 </producer>
 <producer out="1023" id="slowmotion:28:1,5" in="0">
  <property name="mlt_type">producer</property>
  <property name="length">1024</property>
  <property name="eof">pause</property>
  <property name="resource">projects/UstimenkoAlexander/wp-testing/wp-testing/tools/intro-video/mkv/07.mkv?1,5</property>
  <property name="aspect_ratio">1</property>
  <property name="mlt_service">framebuffer</property>
  <property name="strobe">1</property>
 </producer>
 <producer out="653" id="slowmotion:38:2" in="0">
  <property name="mlt_type">producer</property>
  <property name="length">654</property>
  <property name="eof">pause</property>
  <property name="resource">projects/UstimenkoAlexander/wp-testing/wp-testing/tools/intro-video/mkv/08.mkv?2</property>
  <property name="aspect_ratio">1</property>
  <property name="mlt_service">framebuffer</property>
  <property name="strobe">1</property>
 </producer>
 <producer out="1033" id="slowmotion:39:2" in="0">
  <property name="mlt_type">producer</property>
  <property name="length">1034</property>
  <property name="eof">pause</property>
  <property name="resource">projects/UstimenkoAlexander/wp-testing/wp-testing/tools/intro-video/mkv/09.mkv?2</property>
  <property name="aspect_ratio">1</property>
  <property name="mlt_service">framebuffer</property>
  <property name="strobe">1</property>
 </producer>
 <producer out="2067" id="slowmotion:39:1" in="0">
  <property name="mlt_type">producer</property>
  <property name="length">2068</property>
  <property name="eof">pause</property>
  <property name="resource">projects/UstimenkoAlexander/wp-testing/wp-testing/tools/intro-video/mkv/09.mkv?1</property>
  <property name="aspect_ratio">1</property>
  <property name="mlt_service">framebuffer</property>
 </producer>
 <producer out="1463" id="51_playlist1" in="0" title="Anonymous Submission">
  <property name="mlt_type">producer</property>
  <property name="length">00:00:48:24</property>
  <property name="eof">pause</property>
  <property name="resource">projects/UstimenkoAlexander/wp-testing/wp-testing/tools/intro-video/mkv/10.mkv</property>
  <property name="audio_index">-1</property>
  <property name="video_index">0</property>
  <property name="mute_on_pause">1</property>
  <property name="mlt_service">avformat-novalidate</property>
  <property name="seekable">1</property>
  <property name="aspect_ratio">1</property>
  <property name="kdenlive:file_size">3363182</property>
  <property name="kdenlive:file_hash">59f0254235256f9391e6f7fae975b3d3</property>
  <property name="global_feed">1</property>
  <property name="xml">was here</property>
  <property name="meta.media.nb_streams">1</property>
  <property name="meta.media.0.stream.type">video</property>
  <property name="meta.media.0.stream.frame_rate">15</property>
  <property name="meta.media.0.stream.sample_aspect_ratio">1</property>
  <property name="meta.media.0.codec.width">1616</property>
  <property name="meta.media.0.codec.height">1024</property>
  <property name="meta.media.0.codec.frame_rate">15</property>
  <property name="meta.media.0.codec.pix_fmt">yuv420p</property>
  <property name="meta.media.0.codec.sample_aspect_ratio">1</property>
  <property name="meta.media.0.codec.colorspace">709</property>
  <property name="meta.media.0.codec.name">theora</property>
  <property name="meta.media.0.codec.long_name">Theora</property>
  <property name="meta.media.0.codec.bit_rate">0</property>
  <property name="meta.attr.0.stream.RECORDMYDESKTOP.markup">0.3.8.1</property>
  <property name="meta.attr.ENCODER.markup">Lavf56.36.100</property>
  <property name="meta.media.sample_aspect_num">1</property>
  <property name="meta.media.sample_aspect_den">1</property>
  <property name="meta.media.frame_rate_num">15</property>
  <property name="meta.media.frame_rate_den">1</property>
  <property name="meta.media.colorspace">709</property>
  <property name="meta.media.color_trc">2</property>
  <property name="meta.media.width">1616</property>
  <property name="meta.media.height">1024</property>
  <property name="meta.media.top_field_first">0</property>
  <property name="meta.media.progressive">1</property>
 </producer>
 <producer out="1170" id="slowmotion:51:1,25" in="0">
  <property name="mlt_type">producer</property>
  <property name="length">1171</property>
  <property name="eof">pause</property>
  <property name="resource">projects/UstimenkoAlexander/wp-testing/wp-testing/tools/intro-video/mkv/10.mkv?1,25</property>
  <property name="aspect_ratio">1</property>
  <property name="mlt_service">framebuffer</property>
  <property name="strobe">1</property>
 </producer>
 <producer out="1463" id="slowmotion:51:1" in="0">
  <property name="mlt_type">producer</property>
  <property name="length">1464</property>
  <property name="eof">pause</property>
  <property name="resource">projects/UstimenkoAlexander/wp-testing/wp-testing/tools/intro-video/mkv/10.mkv?1</property>
  <property name="aspect_ratio">1</property>
  <property name="mlt_service">framebuffer</property>
 </producer>
 <producer out="2041" id="slowmotion:52:0,7" in="0">
  <property name="mlt_type">producer</property>
  <property name="length">2042</property>
  <property name="eof">pause</property>
  <property name="resource">projects/UstimenkoAlexander/wp-testing/wp-testing/tools/intro-video/mkv/11.mkv?0,7</property>
  <property name="aspect_ratio">1</property>
  <property name="mlt_service">framebuffer</property>
  <property name="strobe">1</property>
 </producer>
 <producer out="952" id="slowmotion:52:1,5" in="0">
  <property name="mlt_type">producer</property>
  <property name="length">953</property>
  <property name="eof">pause</property>
  <property name="resource">projects/UstimenkoAlexander/wp-testing/wp-testing/tools/intro-video/mkv/11.mkv?1,5</property>
  <property name="aspect_ratio">1</property>
  <property name="mlt_service">framebuffer</property>
  <property name="strobe">1</property>
 </producer>
 <producer out="475" id="slowmotion:52:3" in="0">
  <property name="mlt_type">producer</property>
  <property name="length">476</property>
  <property name="eof">pause</property>
  <property name="resource">projects/UstimenkoAlexander/wp-testing/wp-testing/tools/intro-video/mkv/11.mkv?3</property>
  <property name="aspect_ratio">1</property>
  <property name="mlt_service">framebuffer</property>
  <property name="strobe">1</property>
 </producer>
 <producer out="1422" id="slowmotion:62:1,2" in="0">
  <property name="mlt_type">producer</property>
  <property name="length">1423</property>
  <property name="eof">pause</property>
  <property name="resource">projects/UstimenkoAlexander/wp-testing/wp-testing/tools/intro-video/mkv/12.mkv?1,2</property>
  <property name="aspect_ratio">1</property>
  <property name="mlt_service">framebuffer</property>
  <property name="strobe">1</property>
 </producer>
 <producer out="1707" id="slowmotion:62:1" in="0">
  <property name="mlt_type">producer</property>
  <property name="length">1708</property>
  <property name="eof">pause</property>
  <property name="resource">projects/UstimenkoAlexander/wp-testing/wp-testing/tools/intro-video/mkv/12.mkv?1</property>
  <property name="aspect_ratio">1</property>
  <property name="mlt_service">framebuffer</property>
 </producer>
 <producer out="3415" id="slowmotion:62:0,5" in="0">
  <property name="mlt_type">producer</property>
  <property name="length">3416</property>
  <property name="eof">pause</property>
  <property name="resource">projects/UstimenkoAlexander/wp-testing/wp-testing/tools/intro-video/mkv/12.mkv?0,5</property>
  <property name="aspect_ratio">1</property>
  <property name="mlt_service">framebuffer</property>
  <property name="strobe">1</property>
 </producer>
 <producer out="1342" id="slowmotion:63:0,6" in="0">
  <property name="mlt_type">producer</property>
  <property name="length">1343</property>
  <property name="eof">pause</property>
  <property name="resource">projects/UstimenkoAlexander/wp-testing/wp-testing/tools/intro-video/mkv/13.mkv?0,6</property>
  <property name="aspect_ratio">1</property>
  <property name="mlt_service">framebuffer</property>
  <property name="strobe">1</property>
 </producer>
 <producer out="2014" id="slowmotion:63:0,4" in="0">
  <property name="mlt_type">producer</property>
  <property name="length">2015</property>
  <property name="eof">pause</property>
  <property name="resource">projects/UstimenkoAlexander/wp-testing/wp-testing/tools/intro-video/mkv/13.mkv?0,4</property>
  <property name="aspect_ratio">1</property>
  <property name="mlt_service">framebuffer</property>
  <property name="strobe">1</property>
 </producer>
 <producer out="805" id="slowmotion:63:1" in="0">
  <property name="mlt_type">producer</property>
  <property name="length">806</property>
  <property name="eof">pause</property>
  <property name="resource">projects/UstimenkoAlexander/wp-testing/wp-testing/tools/intro-video/mkv/13.mkv?1</property>
  <property name="aspect_ratio">1</property>
  <property name="mlt_service">framebuffer</property>
 </producer>
 <playlist id="playlist2">
  <property name="kdenlive:track_name">Video</property>
  <property name="kdenlive:locked_track">0</property>
  <entry out="332" producer="3" in="0"/>
  <entry out="521" producer="2" in="67"/>
  <entry out="205" producer="7" in="147"/>
  <entry out="412" producer="7" in="327"/>
  <entry out="505" producer="7" in="413"/>
  <entry out="133" producer="8" in="83"/>
  <entry out="283" producer="slowmotion:8:2,5" in="94"/>
  <entry out="405" producer="slowmotion:8:2,5" in="284"/>
  <entry out="532" producer="slowmotion:8:2,5" in="407"/>
  <entry out="1689" producer="8" in="1335"/>
  <entry out="1426" producer="slowmotion:8:1,7" in="1112"/>
  <entry out="831" producer="slowmotion:8:4" in="648"/>
  <entry out="3738" producer="8" in="3336"/>
  <entry out="835" producer="slowmotion:8:6" in="623"/>
  <entry out="5219" producer="slowmotion:8:1" in="5019"/>
  <entry out="4105" producer="slowmotion:8:1,3" in="4015"/>
  <entry out="5675" producer="8" in="5386"/>
  <entry out="5962" producer="8" in="5834"/>
  <entry out="5417" producer="slowmotion:8:1,2" in="5028"/>
  <entry out="263" producer="23" in="27"/>
  <entry out="492" producer="27" in="47"/>
  <entry out="515" producer="slowmotion:28:0,7" in="172"/>
  <entry out="306" producer="slowmotion:28:2" in="180"/>
  <entry out="717" producer="slowmotion:28:1,5" in="513"/>
  <entry out="675" producer="slowmotion:28:2" in="571"/>
  <entry out="647" producer="38" in="90"/>
  <entry out="581" producer="slowmotion:38:2" in="387"/>
  <entry out="112" producer="39" in="49"/>
  <entry out="500" producer="39" in="125"/>
  <entry out="963" producer="39" in="547"/>
  <entry out="579" producer="slowmotion:39:2" in="482"/>
  <entry out="657" producer="slowmotion:39:2" in="581"/>
  <entry out="881" producer="slowmotion:39:2" in="755"/>
  <entry out="1974" producer="slowmotion:39:1" in="1946"/>
  <entry out="522" producer="51_playlist1" in="136"/>
  <entry out="638" producer="slowmotion:51:1,25" in="419"/>
  <entry out="907" producer="slowmotion:51:1" in="830"/>
  <entry out="637" producer="slowmotion:52:0,7" in="171"/>
  <entry out="481" producer="slowmotion:52:1,5" in="298"/>
  <entry out="333" producer="slowmotion:52:3" in="242"/>
  <entry out="1141" producer="52" in="1005"/>
  <entry out="1014" producer="slowmotion:62:1,2" in="6"/>
  <entry out="1591" producer="slowmotion:62:1" in="1384"/>
  <entry out="3271" producer="slowmotion:62:0,5" in="3184"/>
  <entry out="454" producer="slowmotion:63:0,6" in="80"/>
  <entry out="488" producer="63" in="274"/>
  <entry out="1824" producer="slowmotion:63:0,4" in="1217"/>
  <entry out="747" producer="slowmotion:63:1" in="731"/>
  <entry out="284" producer="3" in="0">
   <filter out="285" id="fade_to_black" in="249">
    <property name="track">0</property>
    <property name="start">1</property>
    <property name="mlt_type">filter</property>
    <property name="mlt_service">brightness</property>
    <property name="kdenlive_id">fade_to_black</property>
    <property name="tag">brightness</property>
    <property name="kdenlive_ix">1</property>
    <property name="end">0</property>
    <property name="kdenlive_info"/>
   </filter>
  </entry>
 </playlist>
 <producer out="23730" id="72_" in="0" title="Anonymous Submission">
  <property name="mlt_type">producer</property>
  <property name="length">23731</property>
  <property name="eof">pause</property>
  <property name="resource">projects/UstimenkoAlexander/wp-testing/wp-testing/tools/intro-video/mp3/Jazzistic-music-loop-120-bpm.mp3</property>
  <property name="audio_index">0</property>
  <property name="video_index">-1</property>
  <property name="mute_on_pause">1</property>
  <property name="mlt_service">avformat-novalidate</property>
  <property name="seekable">1</property>
  <property name="kdenlive:file_size">9601612</property>
  <property name="kdenlive:file_hash">a9053f224a4bcb215eb1e38b190172c2</property>
  <property name="global_feed">1</property>
  <property name="xml">was here</property>
  <property name="meta.media.nb_streams">1</property>
  <property name="meta.media.0.stream.type">audio</property>
  <property name="meta.media.0.codec.sample_fmt">s16p</property>
  <property name="meta.media.0.codec.sample_rate">44100</property>
  <property name="meta.media.0.codec.channels">2</property>
  <property name="meta.media.0.codec.name">mp3</property>
  <property name="meta.media.0.codec.long_name">MP3 (MPEG audio layer 3)</property>
  <property name="meta.media.0.codec.bit_rate">192000</property>
  <property name="meta.attr.0.stream.encoder.markup">LAME3.99r</property>
  <property name="meta.attr.track.markup">1</property>
  <property name="meta.attr.title.markup">1</property>
 </producer>
 <playlist id="playlist0">
  <property name="kdenlive:track_name">Back</property>
  <entry out="11860" producer="72_" in="0">
   <filter id="volume">
    <property name="track">0</property>
    <property name="window">75</property>
    <property name="max_gain">20dB</property>
    <property name="mlt_type">filter</property>
    <property name="mlt_service">volume</property>
    <property name="kdenlive_id">volume</property>
    <property name="tag">volume</property>
    <property name="kdenlive_ix">1</property>
    <property name="kdenlive_info"/>
    <property name="disable"/>
    <property name="gain">0,04</property>
   </filter>
   <filter out="11860" id="fadeout" in="11719">
    <property name="track">0</property>
    <property name="window">75</property>
    <property name="max_gain">20dB</property>
    <property name="mlt_type">filter</property>
    <property name="mlt_service">volume</property>
    <property name="kdenlive_id">fadeout</property>
    <property name="tag">volume</property>
    <property name="kdenlive_ix">2</property>
    <property name="gain">1</property>
    <property name="end">0</property>
    <property name="kdenlive_info"/>
    <property name="disable"/>
   </filter>
   <filter out="118" id="fadein">
    <property name="track">0</property>
    <property name="window">75</property>
    <property name="max_gain">20dB</property>
    <property name="mlt_type">filter</property>
    <property name="mlt_service">volume</property>
    <property name="kdenlive_id">fadein</property>
    <property name="tag">volume</property>
    <property name="kdenlive_ix">3</property>
    <property name="gain">0</property>
    <property name="end">1</property>
    <property name="kdenlive_info"/>
   </filter>
  </entry>
 </playlist>
 <tractor out="11860" global_feed="1" id="maintractor" in="0" title="Anonymous Submission">
  <track producer="black_track"/>
  <track producer="playlist1" hide="video"/>
  <track producer="playlist2"/>
  <track producer="playlist0" hide="video"/>
  <transition id="transition0">
   <property name="a_track">1</property>
   <property name="b_track">2</property>
   <property name="mlt_type">transition</property>
   <property name="mlt_service">mix</property>
   <property name="always_active">1</property>
   <property name="combine">1</property>
   <property name="internal_added">237</property>
  </transition>
  <transition id="transition1">
   <property name="a_track">1</property>
   <property name="b_track">2</property>
   <property name="mlt_type">transition</property>
   <property name="mlt_service">mix</property>
   <property name="always_active">1</property>
   <property name="internal_added">237</property>
   <property name="combine">1</property>
  </transition>
  <transition id="transition2">
   <property name="a_track">1</property>
   <property name="b_track">2</property>
   <property name="mlt_type">transition</property>
   <property name="mlt_service">mix</property>
   <property name="always_active">1</property>
   <property name="internal_added">237</property>
   <property name="combine">1</property>
  </transition>
  <transition id="transition3">
   <property name="a_track">1</property>
   <property name="b_track">2</property>
   <property name="mlt_type">transition</property>
   <property name="mlt_service">mix</property>
   <property name="always_active">1</property>
   <property name="internal_added">237</property>
   <property name="combine">1</property>
  </transition>
  <transition id="transition4">
   <property name="a_track">1</property>
   <property name="b_track">2</property>
   <property name="mlt_type">transition</property>
   <property name="mlt_service">mix</property>
   <property name="always_active">1</property>
   <property name="internal_added">237</property>
   <property name="combine">1</property>
  </transition>
  <transition id="transition5">
   <property name="a_track">1</property>
   <property name="b_track">2</property>
   <property name="mlt_type">transition</property>
   <property name="mlt_service">mix</property>
   <property name="always_active">1</property>
   <property name="internal_added">237</property>
   <property name="combine">1</property>
  </transition>
  <transition id="transition6">
   <property name="a_track">1</property>
   <property name="b_track">2</property>
   <property name="mlt_type">transition</property>
   <property name="mlt_service">mix</property>
   <property name="always_active">1</property>
   <property name="internal_added">237</property>
   <property name="combine">1</property>
  </transition>
  <transition id="transition7">
   <property name="a_track">1</property>
   <property name="b_track">3</property>
   <property name="mlt_type">transition</property>
   <property name="mlt_service">mix</property>
   <property name="always_active">1</property>
   <property name="internal_added">237</property>
   <property name="combine">1</property>
  </transition>
  <transition id="transition8">
   <property name="a_track">1</property>
   <property name="b_track">3</property>
   <property name="mlt_type">transition</property>
   <property name="mlt_service">mix</property>
   <property name="always_active">1</property>
   <property name="internal_added">237</property>
   <property name="combine">1</property>
  </transition>
  <transition id="transition9">
   <property name="a_track">1</property>
   <property name="b_track">2</property>
   <property name="mlt_type">transition</property>
   <property name="mlt_service">mix</property>
   <property name="always_active">1</property>
   <property name="combine">1</property>
   <property name="internal_added">237</property>
  </transition>
  <transition id="transition10">
   <property name="a_track">1</property>
   <property name="b_track">3</property>
   <property name="mlt_type">transition</property>
   <property name="mlt_service">mix</property>
   <property name="always_active">1</property>
   <property name="combine">1</property>
   <property name="internal_added">237</property>
  </transition>
  <transition id="transition11">
   <property name="a_track">0</property>
   <property name="b_track">1</property>
   <property name="mlt_type">transition</property>
   <property name="mlt_service">mix</property>
   <property name="always_active">1</property>
   <property name="combine">1</property>
   <property name="internal_added">237</property>
  </transition>
  <transition id="transition12">
   <property name="a_track">0</property>
   <property name="b_track">2</property>
   <property name="mlt_type">transition</property>
   <property name="mlt_service">mix</property>
   <property name="always_active">1</property>
   <property name="combine">1</property>
   <property name="internal_added">237</property>
  </transition>
  <transition id="transition13">
   <property name="a_track">0</property>
   <property name="b_track">3</property>
   <property name="mlt_type">transition</property>
   <property name="mlt_service">mix</property>
   <property name="always_active">1</property>
   <property name="combine">1</property>
   <property name="internal_added">237</property>
  </transition>
 </tractor>
</mlt>
